<svg width="360" height="640" viewBox="0 0 360 640" fill="none" xmlns="http://www.w3.org/2000/svg">
<g clip-path="url(#clip0_124_619)">
<rect width="360" height="640" fill="white"/>
<g filter="url(#filter0_bd_124_619)">
<rect width="347" height="56" transform="translate(0 584)" fill="white"/>
<rect y="584" width="361" height="56" fill="#38A0FF"/>
<path d="M144.585 622.672V621.727H150.214V622.672H147.945V629H146.851V622.672H144.585ZM152.639 629.11C152.128 629.11 151.681 628.993 151.3 628.759C150.919 628.524 150.623 628.196 150.412 627.775C150.202 627.353 150.096 626.861 150.096 626.298C150.096 625.732 150.202 625.237 150.412 624.813C150.623 624.389 150.919 624.06 151.3 623.826C151.681 623.592 152.128 623.474 152.639 623.474C153.15 623.474 153.596 623.592 153.978 623.826C154.359 624.06 154.655 624.389 154.865 624.813C155.076 625.237 155.181 625.732 155.181 626.298C155.181 626.861 155.076 627.353 154.865 627.775C154.655 628.196 154.359 628.524 153.978 628.759C153.596 628.993 153.15 629.11 152.639 629.11ZM152.642 628.219C152.974 628.219 153.248 628.131 153.466 627.956C153.684 627.781 153.845 627.548 153.949 627.256C154.056 626.965 154.109 626.644 154.109 626.294C154.109 625.946 154.056 625.626 153.949 625.335C153.845 625.042 153.684 624.806 153.466 624.629C153.248 624.451 152.974 624.362 152.642 624.362C152.309 624.362 152.032 624.451 151.811 624.629C151.594 624.806 151.431 625.042 151.325 625.335C151.221 625.626 151.169 625.946 151.169 626.294C151.169 626.644 151.221 626.965 151.325 627.256C151.431 627.548 151.594 627.781 151.811 627.956C152.032 628.131 152.309 628.219 152.642 628.219ZM156.127 629V623.545H157.153V624.412H157.21C157.309 624.118 157.484 623.888 157.735 623.719C157.989 623.549 158.275 623.464 158.595 623.464C158.661 623.464 158.739 623.466 158.829 623.471C158.921 623.476 158.994 623.482 159.046 623.489V624.504C159.003 624.492 158.927 624.479 158.818 624.465C158.71 624.449 158.601 624.44 158.492 624.44C158.241 624.44 158.017 624.494 157.821 624.6C157.626 624.704 157.473 624.85 157.359 625.037C157.245 625.222 157.188 625.432 157.188 625.669V629H156.127ZM160.786 625.761V629H159.725V623.545H160.744V624.433H160.811C160.937 624.144 161.133 623.912 161.401 623.737C161.671 623.562 162.01 623.474 162.42 623.474C162.792 623.474 163.117 623.553 163.396 623.709C163.676 623.863 163.892 624.092 164.046 624.398C164.2 624.703 164.277 625.081 164.277 625.531V629H163.215V625.658C163.215 625.263 163.112 624.954 162.906 624.732C162.7 624.507 162.418 624.394 162.058 624.394C161.811 624.394 161.592 624.447 161.401 624.554C161.211 624.661 161.061 624.817 160.95 625.023C160.841 625.226 160.786 625.473 160.786 625.761ZM167.048 629.121C166.703 629.121 166.39 629.057 166.111 628.929C165.832 628.799 165.61 628.611 165.447 628.364C165.286 628.118 165.205 627.816 165.205 627.459C165.205 627.151 165.265 626.898 165.383 626.699C165.501 626.5 165.661 626.343 165.862 626.227C166.064 626.111 166.289 626.023 166.537 625.964C166.786 625.905 167.039 625.86 167.297 625.829C167.624 625.791 167.889 625.76 168.093 625.737C168.296 625.71 168.444 625.669 168.536 625.612C168.629 625.555 168.675 625.463 168.675 625.335V625.31C168.675 625 168.587 624.76 168.412 624.589C168.239 624.419 167.981 624.334 167.638 624.334C167.28 624.334 166.999 624.413 166.793 624.572C166.589 624.728 166.448 624.902 166.37 625.094L165.372 624.866C165.491 624.535 165.664 624.268 165.891 624.064C166.12 623.858 166.384 623.709 166.683 623.616C166.981 623.522 167.295 623.474 167.624 623.474C167.842 623.474 168.072 623.5 168.316 623.553C168.562 623.602 168.792 623.695 169.005 623.83C169.221 623.964 169.397 624.157 169.534 624.408C169.672 624.657 169.74 624.98 169.74 625.378V629H168.703V628.254H168.661C168.592 628.392 168.489 628.527 168.352 628.659C168.214 628.792 168.038 628.902 167.823 628.989C167.607 629.077 167.349 629.121 167.048 629.121ZM167.279 628.268C167.573 628.268 167.824 628.21 168.032 628.094C168.243 627.978 168.403 627.827 168.512 627.64C168.623 627.451 168.678 627.248 168.678 627.033V626.33C168.641 626.367 168.567 626.403 168.458 626.436C168.352 626.467 168.23 626.494 168.093 626.518C167.955 626.539 167.821 626.559 167.691 626.578C167.561 626.595 167.452 626.609 167.365 626.621C167.159 626.647 166.97 626.691 166.8 626.752C166.632 626.814 166.497 626.902 166.395 627.018C166.296 627.132 166.246 627.284 166.246 627.473C166.246 627.736 166.343 627.935 166.537 628.07C166.731 628.202 166.979 628.268 167.279 628.268ZM174.908 629.121C174.563 629.121 174.25 629.057 173.971 628.929C173.691 628.799 173.47 628.611 173.307 628.364C173.146 628.118 173.065 627.816 173.065 627.459C173.065 627.151 173.124 626.898 173.243 626.699C173.361 626.5 173.521 626.343 173.722 626.227C173.923 626.111 174.148 626.023 174.397 625.964C174.646 625.905 174.899 625.86 175.157 625.829C175.484 625.791 175.749 625.76 175.952 625.737C176.156 625.71 176.304 625.669 176.396 625.612C176.489 625.555 176.535 625.463 176.535 625.335V625.31C176.535 625 176.447 624.76 176.272 624.589C176.099 624.419 175.841 624.334 175.498 624.334C175.14 624.334 174.859 624.413 174.653 624.572C174.449 624.728 174.308 624.902 174.23 625.094L173.232 624.866C173.351 624.535 173.523 624.268 173.751 624.064C173.98 623.858 174.244 623.709 174.543 623.616C174.841 623.522 175.155 623.474 175.484 623.474C175.701 623.474 175.932 623.5 176.176 623.553C176.422 623.602 176.652 623.695 176.865 623.83C177.08 623.964 177.257 624.157 177.394 624.408C177.531 624.657 177.6 624.98 177.6 625.378V629H176.563V628.254H176.521C176.452 628.392 176.349 628.527 176.212 628.659C176.074 628.792 175.898 628.902 175.682 628.989C175.467 629.077 175.209 629.121 174.908 629.121ZM175.139 628.268C175.433 628.268 175.684 628.21 175.892 628.094C176.103 627.978 176.262 627.827 176.371 627.64C176.483 627.451 176.538 627.248 176.538 627.033V626.33C176.5 626.367 176.427 626.403 176.318 626.436C176.212 626.467 176.09 626.494 175.952 626.518C175.815 626.539 175.681 626.559 175.551 626.578C175.421 626.595 175.312 626.609 175.224 626.621C175.018 626.647 174.83 626.691 174.66 626.752C174.492 626.814 174.357 626.902 174.255 627.018C174.155 627.132 174.106 627.284 174.106 627.473C174.106 627.736 174.203 627.935 174.397 628.07C174.591 628.202 174.838 628.268 175.139 628.268ZM179.836 621.727V629H178.774V621.727H179.836ZM182.086 621.727V629H181.025V621.727H182.086ZM184.862 629.121C184.517 629.121 184.204 629.057 183.925 628.929C183.645 628.799 183.424 628.611 183.261 628.364C183.1 628.118 183.019 627.816 183.019 627.459C183.019 627.151 183.078 626.898 183.197 626.699C183.315 626.5 183.475 626.343 183.676 626.227C183.877 626.111 184.102 626.023 184.351 625.964C184.599 625.905 184.853 625.86 185.111 625.829C185.437 625.791 185.703 625.76 185.906 625.737C186.11 625.71 186.258 625.669 186.35 625.612C186.442 625.555 186.489 625.463 186.489 625.335V625.31C186.489 625 186.401 624.76 186.226 624.589C186.053 624.419 185.795 624.334 185.452 624.334C185.094 624.334 184.812 624.413 184.606 624.572C184.403 624.728 184.262 624.902 184.184 625.094L183.186 624.866C183.304 624.535 183.477 624.268 183.704 624.064C183.934 623.858 184.198 623.709 184.496 623.616C184.795 623.522 185.108 623.474 185.437 623.474C185.655 623.474 185.886 623.5 186.13 623.553C186.376 623.602 186.606 623.695 186.819 623.83C187.034 623.964 187.211 624.157 187.348 624.408C187.485 624.657 187.554 624.98 187.554 625.378V629H186.517V628.254H186.474C186.406 628.392 186.303 628.527 186.165 628.659C186.028 628.792 185.852 628.902 185.636 628.989C185.421 629.077 185.163 629.121 184.862 629.121ZM185.093 628.268C185.387 628.268 185.637 628.21 185.846 628.094C186.057 627.978 186.216 627.827 186.325 627.64C186.436 627.451 186.492 627.248 186.492 627.033V626.33C186.454 626.367 186.381 626.403 186.272 626.436C186.165 626.467 186.043 626.494 185.906 626.518C185.769 626.539 185.635 626.559 185.505 626.578C185.375 626.595 185.266 626.609 185.178 626.621C184.972 626.647 184.784 626.691 184.614 626.752C184.445 626.814 184.311 626.902 184.209 627.018C184.109 627.132 184.06 627.284 184.06 627.473C184.06 627.736 184.157 627.935 184.351 628.07C184.545 628.202 184.792 628.268 185.093 628.268ZM191.22 629V621.727H192.317V624.888H195.943V621.727H197.044V629H195.943V625.829H192.317V629H191.22ZM200.614 629.11C200.103 629.11 199.656 628.993 199.275 628.759C198.894 628.524 198.598 628.196 198.388 627.775C198.177 627.353 198.071 626.861 198.071 626.298C198.071 625.732 198.177 625.237 198.388 624.813C198.598 624.389 198.894 624.06 199.275 623.826C199.656 623.592 200.103 623.474 200.614 623.474C201.125 623.474 201.572 623.592 201.953 623.826C202.334 624.06 202.63 624.389 202.841 624.813C203.051 625.237 203.157 625.732 203.157 626.298C203.157 626.861 203.051 627.353 202.841 627.775C202.63 628.196 202.334 628.524 201.953 628.759C201.572 628.993 201.125 629.11 200.614 629.11ZM200.618 628.219C200.949 628.219 201.224 628.131 201.442 627.956C201.659 627.781 201.82 627.548 201.924 627.256C202.031 626.965 202.084 626.644 202.084 626.294C202.084 625.946 202.031 625.626 201.924 625.335C201.82 625.042 201.659 624.806 201.442 624.629C201.224 624.451 200.949 624.362 200.618 624.362C200.284 624.362 200.007 624.451 199.787 624.629C199.569 624.806 199.407 625.042 199.3 625.335C199.196 625.626 199.144 625.946 199.144 626.294C199.144 626.644 199.196 626.965 199.3 627.256C199.407 627.548 199.569 627.781 199.787 627.956C200.007 628.131 200.284 628.219 200.618 628.219ZM204.102 629V623.545H205.121V624.433H205.189C205.302 624.133 205.488 623.898 205.746 623.73C206.004 623.56 206.313 623.474 206.673 623.474C207.038 623.474 207.343 623.56 207.589 623.73C207.838 623.901 208.021 624.135 208.14 624.433H208.196C208.327 624.142 208.534 623.91 208.818 623.737C209.102 623.562 209.44 623.474 209.833 623.474C210.328 623.474 210.732 623.629 211.044 623.94C211.359 624.25 211.517 624.717 211.517 625.342V629H210.455V625.442C210.455 625.072 210.354 624.805 210.153 624.639C209.952 624.473 209.712 624.391 209.432 624.391C209.087 624.391 208.818 624.497 208.626 624.71C208.434 624.921 208.338 625.192 208.338 625.523V629H207.28V625.374C207.28 625.078 207.188 624.84 207.003 624.661C206.819 624.481 206.578 624.391 206.282 624.391C206.081 624.391 205.895 624.444 205.725 624.55C205.557 624.655 205.421 624.8 205.316 624.987C205.215 625.174 205.164 625.391 205.164 625.637V629H204.102ZM215.051 629.11C214.513 629.11 214.05 628.995 213.662 628.766C213.276 628.534 212.978 628.208 212.767 627.789C212.559 627.368 212.455 626.874 212.455 626.308C212.455 625.75 212.559 625.257 212.767 624.831C212.978 624.405 213.272 624.072 213.648 623.833C214.027 623.594 214.469 623.474 214.976 623.474C215.284 623.474 215.582 623.525 215.871 623.627C216.16 623.729 216.419 623.889 216.649 624.107C216.878 624.324 217.059 624.607 217.192 624.955C217.325 625.301 217.391 625.721 217.391 626.216V626.592H213.055V625.797H216.35C216.35 625.518 216.294 625.27 216.18 625.055C216.066 624.837 215.906 624.665 215.701 624.54C215.497 624.414 215.258 624.352 214.983 624.352C214.685 624.352 214.424 624.425 214.202 624.572C213.982 624.716 213.811 624.906 213.691 625.14C213.572 625.372 213.513 625.624 213.513 625.896V626.518C213.513 626.882 213.577 627.192 213.705 627.448C213.835 627.704 214.016 627.899 214.248 628.034C214.48 628.167 214.751 628.233 215.061 628.233C215.263 628.233 215.446 628.205 215.612 628.148C215.777 628.089 215.921 628.001 216.041 627.885C216.162 627.769 216.254 627.626 216.318 627.455L217.323 627.636C217.243 627.932 217.098 628.192 216.89 628.414C216.684 628.634 216.425 628.806 216.112 628.929C215.802 629.05 215.448 629.11 215.051 629.11Z" fill="white"/>
<path fill-rule="evenodd" clip-rule="evenodd" d="M180.386 592.211C180.747 591.93 181.253 591.93 181.614 592.211L190.614 599.211C190.858 599.4 191 599.691 191 600V611C191 611.796 190.684 612.559 190.121 613.121C189.559 613.684 188.796 614 188 614H184V605C184 603.895 183.105 603 182 603H180C178.895 603 178 603.895 178 605V614H174C173.204 614 172.441 613.684 171.879 613.121C171.316 612.559 171 611.796 171 611V600C171 599.691 171.142 599.4 171.386 599.211L180.386 592.211Z" fill="white"/>
</g>
<rect x="-1" width="361" height="70" fill="#38A0FF"/>
<path d="M316.989 26.875L318.125 28.0108L307.153 38.9583H306.042V37.8467L316.989 26.875ZM321.339 19.625C321.037 19.625 320.723 19.7458 320.493 19.9754L318.282 22.1867L322.813 26.7179L325.025 24.5067C325.496 24.0354 325.496 23.25 325.025 22.8029L322.197 19.9754C321.955 19.7337 321.653 19.625 321.339 19.625ZM316.989 23.4796L303.625 36.8438V41.375H308.156L321.52 28.0108L316.989 23.4796Z" fill="white"/>
<path d="M170.348 34.3223H173.034C172.962 35.2728 172.698 36.1159 172.243 36.8516C171.787 37.5807 171.152 38.1536 170.338 38.5703C169.524 38.987 168.538 39.1953 167.379 39.1953C166.487 39.1953 165.683 39.0391 164.967 38.7266C164.258 38.4076 163.649 37.9551 163.141 37.3691C162.64 36.7767 162.256 36.0671 161.989 35.2402C161.722 34.4069 161.588 33.4727 161.588 32.4375V31.3535C161.588 30.3184 161.725 29.3841 161.998 28.5508C162.272 27.7174 162.662 27.0078 163.17 26.4219C163.685 25.8294 164.3 25.3737 165.016 25.0547C165.739 24.7357 166.546 24.5762 167.438 24.5762C168.597 24.5762 169.577 24.791 170.377 25.2207C171.178 25.6439 171.8 26.2266 172.243 26.9688C172.685 27.7109 172.952 28.5638 173.043 29.5273H170.358C170.306 28.9284 170.176 28.4206 169.967 28.0039C169.765 27.5872 169.459 27.2715 169.049 27.0566C168.646 26.8353 168.108 26.7246 167.438 26.7246C166.917 26.7246 166.458 26.8223 166.061 27.0176C165.67 27.2129 165.345 27.5059 165.084 27.8965C164.824 28.2806 164.629 28.7624 164.498 29.3418C164.368 29.9147 164.303 30.5788 164.303 31.334V32.4375C164.303 33.1602 164.362 33.8079 164.479 34.3809C164.596 34.9538 164.778 35.4388 165.026 35.8359C165.273 36.2331 165.592 36.5358 165.983 36.7441C166.373 36.9525 166.839 37.0566 167.379 37.0566C168.037 37.0566 168.571 36.9525 168.981 36.7441C169.398 36.5358 169.713 36.2298 169.928 35.8262C170.149 35.4225 170.289 34.9212 170.348 34.3223ZM177.253 28.4336V39H174.665V28.4336H177.253ZM174.489 25.6699C174.489 25.2858 174.619 24.9668 174.88 24.7129C175.147 24.459 175.505 24.332 175.954 24.332C176.403 24.332 176.758 24.459 177.018 24.7129C177.285 24.9668 177.419 25.2858 177.419 25.6699C177.419 26.0475 177.285 26.3633 177.018 26.6172C176.758 26.8711 176.403 26.998 175.954 26.998C175.505 26.998 175.147 26.8711 174.88 26.6172C174.619 26.3633 174.489 26.0475 174.489 25.6699ZM179.304 24H181.892V36.666L181.638 39H179.304V24ZM188.689 33.6094V33.8145C188.689 34.6022 188.601 35.3249 188.425 35.9824C188.256 36.64 187.999 37.2096 187.654 37.6914C187.308 38.1667 186.879 38.5378 186.364 38.8047C185.857 39.0651 185.261 39.1953 184.577 39.1953C183.926 39.1953 183.36 39.0684 182.878 38.8145C182.403 38.5605 182.002 38.2025 181.677 37.7402C181.351 37.2715 181.091 36.7214 180.896 36.0898C180.7 35.4518 180.554 34.7552 180.456 34V33.4434C180.554 32.6816 180.7 31.985 180.896 31.3535C181.091 30.722 181.351 30.1719 181.677 29.7031C182.002 29.2344 182.403 28.873 182.878 28.6191C183.353 28.3652 183.913 28.2383 184.558 28.2383C185.248 28.2383 185.85 28.3717 186.364 28.6387C186.885 28.8991 187.315 29.2702 187.654 29.752C187.999 30.2272 188.256 30.7936 188.425 31.4512C188.601 32.1022 188.689 32.8216 188.689 33.6094ZM186.101 33.8145V33.6094C186.101 33.1602 186.065 32.737 185.993 32.3398C185.922 31.9362 185.805 31.5814 185.642 31.2754C185.479 30.9694 185.258 30.7285 184.978 30.5527C184.698 30.377 184.346 30.2891 183.923 30.2891C183.519 30.2891 183.174 30.3574 182.888 30.4941C182.608 30.6309 182.374 30.8197 182.185 31.0605C182.002 31.3014 181.859 31.5846 181.755 31.9102C181.657 32.2357 181.592 32.5872 181.56 32.9648V34.4883C181.605 34.9896 181.713 35.4421 181.882 35.8457C182.051 36.2428 182.302 36.5586 182.634 36.793C182.973 37.0273 183.409 37.1445 183.943 37.1445C184.359 37.1445 184.708 37.0632 184.988 36.9004C185.267 36.7311 185.489 36.4967 185.652 36.1973C185.814 35.8913 185.928 35.5365 185.993 35.1328C186.065 34.7292 186.101 34.2897 186.101 33.8145ZM189.705 33.8242V33.6191C189.705 32.8444 189.815 32.1315 190.037 31.4805C190.258 30.8229 190.58 30.2533 191.004 29.7715C191.427 29.2897 191.944 28.9154 192.556 28.6484C193.168 28.375 193.865 28.2383 194.646 28.2383C195.44 28.2383 196.143 28.375 196.755 28.6484C197.374 28.9154 197.895 29.2897 198.318 29.7715C198.741 30.2533 199.063 30.8229 199.285 31.4805C199.506 32.1315 199.617 32.8444 199.617 33.6191V33.8242C199.617 34.5924 199.506 35.3053 199.285 35.9629C199.063 36.6139 198.741 37.1836 198.318 37.6719C197.895 38.1536 197.377 38.528 196.765 38.7949C196.153 39.0618 195.453 39.1953 194.666 39.1953C193.884 39.1953 193.184 39.0618 192.566 38.7949C191.948 38.528 191.427 38.1536 191.004 37.6719C190.58 37.1836 190.258 36.6139 190.037 35.9629C189.815 35.3053 189.705 34.5924 189.705 33.8242ZM192.283 33.6191V33.8242C192.283 34.2865 192.328 34.7194 192.42 35.123C192.511 35.5267 192.651 35.8815 192.839 36.1875C193.028 36.4935 193.272 36.7344 193.572 36.9102C193.878 37.0794 194.242 37.1641 194.666 37.1641C195.082 37.1641 195.44 37.0794 195.74 36.9102C196.039 36.7344 196.283 36.4935 196.472 36.1875C196.668 35.8815 196.811 35.5267 196.902 35.123C196.993 34.7194 197.039 34.2865 197.039 33.8242V33.6191C197.039 33.1634 196.993 32.737 196.902 32.3398C196.811 31.9362 196.668 31.5814 196.472 31.2754C196.283 30.9629 196.036 30.7188 195.73 30.543C195.431 30.3607 195.069 30.2695 194.646 30.2695C194.229 30.2695 193.871 30.3607 193.572 30.543C193.272 30.7188 193.028 30.9629 192.839 31.2754C192.651 31.5814 192.511 31.9362 192.42 32.3398C192.328 32.737 192.283 33.1634 192.283 33.6191Z" fill="white"/>
<g filter="url(#filter1_d_124_619)">
<rect x="36" y="160" width="290" height="59" rx="10" fill="white"/>
<path d="M85.98 181.42C85.9194 180.883 85.6694 180.466 85.23 180.17C84.7906 179.871 84.2376 179.722 83.5709 179.722C83.0936 179.722 82.6808 179.797 82.3323 179.949C81.9838 180.097 81.713 180.301 81.5198 180.562C81.3304 180.82 81.2357 181.114 81.2357 181.443C81.2357 181.72 81.3001 181.958 81.4289 182.159C81.5614 182.36 81.7338 182.528 81.9459 182.665C82.1618 182.797 82.3929 182.909 82.6391 183C82.8853 183.087 83.122 183.159 83.3493 183.216L84.4857 183.511C84.8569 183.602 85.2376 183.725 85.6277 183.881C86.0179 184.036 86.3796 184.241 86.713 184.494C87.0463 184.748 87.3152 185.062 87.5198 185.438C87.7281 185.812 87.8323 186.261 87.8323 186.784C87.8323 187.443 87.6618 188.028 87.3209 188.54C86.9838 189.051 86.4933 189.455 85.8493 189.75C85.2092 190.045 84.4345 190.193 83.5255 190.193C82.6542 190.193 81.9005 190.055 81.2641 189.778C80.6277 189.502 80.1296 189.11 79.7698 188.602C79.4099 188.091 79.2111 187.485 79.1732 186.784H80.9345C80.9686 187.205 81.105 187.555 81.3436 187.835C81.5861 188.112 81.8948 188.318 82.2698 188.455C82.6486 188.587 83.0633 188.653 83.5141 188.653C84.0103 188.653 84.4516 188.576 84.838 188.42C85.2281 188.261 85.5349 188.042 85.7584 187.761C85.9819 187.477 86.0936 187.146 86.0936 186.767C86.0936 186.422 85.9952 186.14 85.7982 185.92C85.605 185.701 85.3417 185.519 85.0084 185.375C84.6789 185.231 84.3058 185.104 83.8891 184.994L82.5141 184.619C81.5823 184.366 80.8436 183.992 80.2982 183.5C79.7565 183.008 79.4857 182.356 79.4857 181.545C79.4857 180.875 79.6675 180.29 80.0311 179.79C80.3948 179.29 80.8872 178.902 81.5084 178.625C82.1296 178.345 82.8304 178.205 83.6107 178.205C84.3986 178.205 85.0936 178.343 85.6959 178.619C86.302 178.896 86.7792 179.277 87.1277 179.761C87.4762 180.242 87.658 180.795 87.6732 181.42H85.98ZM89.5539 193.273V181.273H91.213V182.688H91.3551C91.4535 182.506 91.5956 182.295 91.7812 182.057C91.9668 181.818 92.2244 181.61 92.5539 181.432C92.8835 181.25 93.3191 181.159 93.8607 181.159C94.5653 181.159 95.1941 181.337 95.7471 181.693C96.3001 182.049 96.7338 182.562 97.0482 183.233C97.3664 183.903 97.5255 184.71 97.5255 185.653C97.5255 186.597 97.3683 187.405 97.0539 188.08C96.7395 188.75 96.3077 189.267 95.7585 189.631C95.2092 189.991 94.5823 190.17 93.8778 190.17C93.3475 190.17 92.9138 190.081 92.5766 189.903C92.2433 189.725 91.9819 189.517 91.7926 189.278C91.6032 189.04 91.4573 188.828 91.3551 188.642H91.2528V193.273H89.5539ZM91.2187 185.636C91.2187 186.25 91.3077 186.788 91.4857 187.25C91.6638 187.712 91.9213 188.074 92.2585 188.335C92.5956 188.593 93.0085 188.722 93.4971 188.722C94.0047 188.722 94.4289 188.587 94.7698 188.318C95.1107 188.045 95.3683 187.676 95.5426 187.21C95.7206 186.744 95.8096 186.22 95.8096 185.636C95.8096 185.061 95.7225 184.544 95.5482 184.085C95.3778 183.627 95.1202 183.265 94.7755 183C94.4346 182.735 94.0085 182.602 93.4971 182.602C93.0047 182.602 92.588 182.729 92.2471 182.983C91.91 183.237 91.6543 183.591 91.4801 184.045C91.3058 184.5 91.2187 185.03 91.2187 185.636ZM102.95 190.176C102.09 190.176 101.35 189.992 100.729 189.625C100.111 189.254 99.634 188.733 99.2969 188.062C98.9635 187.388 98.7969 186.598 98.7969 185.693C98.7969 184.799 98.9635 184.011 99.2969 183.33C99.634 182.648 100.104 182.116 100.706 181.733C101.312 181.35 102.02 181.159 102.831 181.159C103.323 181.159 103.801 181.241 104.263 181.403C104.725 181.566 105.14 181.822 105.507 182.17C105.875 182.519 106.164 182.972 106.376 183.528C106.589 184.081 106.695 184.754 106.695 185.545V186.148H99.7571V184.875H105.03C105.03 184.428 104.939 184.032 104.757 183.688C104.575 183.339 104.32 183.064 103.99 182.864C103.664 182.663 103.282 182.562 102.842 182.562C102.365 182.562 101.948 182.68 101.592 182.915C101.24 183.146 100.967 183.449 100.774 183.824C100.585 184.195 100.49 184.598 100.49 185.034V186.028C100.49 186.612 100.592 187.108 100.797 187.517C101.005 187.926 101.295 188.239 101.666 188.455C102.037 188.667 102.471 188.773 102.967 188.773C103.289 188.773 103.583 188.727 103.848 188.636C104.113 188.542 104.342 188.402 104.536 188.216C104.729 188.03 104.876 187.801 104.979 187.528L106.587 187.818C106.458 188.292 106.227 188.706 105.893 189.062C105.564 189.415 105.149 189.689 104.649 189.886C104.153 190.08 103.587 190.176 102.95 190.176ZM114.879 183.403L113.34 183.676C113.275 183.479 113.173 183.292 113.033 183.114C112.896 182.936 112.711 182.79 112.476 182.676C112.241 182.562 111.948 182.506 111.595 182.506C111.114 182.506 110.713 182.614 110.391 182.83C110.069 183.042 109.908 183.316 109.908 183.653C109.908 183.945 110.016 184.18 110.232 184.358C110.448 184.536 110.796 184.682 111.277 184.795L112.663 185.114C113.466 185.299 114.065 185.585 114.459 185.972C114.853 186.358 115.05 186.86 115.05 187.477C115.05 188 114.898 188.466 114.595 188.875C114.296 189.28 113.877 189.598 113.34 189.83C112.805 190.061 112.186 190.176 111.482 190.176C110.504 190.176 109.707 189.968 109.09 189.551C108.472 189.131 108.093 188.534 107.953 187.761L109.595 187.511C109.698 187.939 109.908 188.263 110.226 188.483C110.544 188.699 110.959 188.807 111.47 188.807C112.027 188.807 112.472 188.691 112.805 188.46C113.139 188.225 113.305 187.939 113.305 187.602C113.305 187.33 113.203 187.1 112.999 186.915C112.798 186.729 112.489 186.589 112.073 186.494L110.595 186.17C109.781 185.985 109.179 185.689 108.788 185.284C108.402 184.879 108.209 184.366 108.209 183.744C108.209 183.229 108.353 182.778 108.641 182.392C108.929 182.006 109.326 181.705 109.834 181.489C110.341 181.269 110.923 181.159 111.578 181.159C112.521 181.159 113.264 181.364 113.805 181.773C114.347 182.178 114.705 182.722 114.879 183.403ZM119.217 190.193C118.664 190.193 118.164 190.091 117.717 189.886C117.27 189.678 116.916 189.377 116.655 188.983C116.397 188.589 116.269 188.106 116.269 187.534C116.269 187.042 116.363 186.636 116.553 186.318C116.742 186 116.998 185.748 117.32 185.562C117.642 185.377 118.002 185.237 118.399 185.142C118.797 185.047 119.202 184.975 119.615 184.926C120.138 184.866 120.562 184.816 120.888 184.778C121.214 184.737 121.45 184.67 121.598 184.58C121.746 184.489 121.82 184.341 121.82 184.136V184.097C121.82 183.6 121.68 183.216 121.399 182.943C121.123 182.67 120.71 182.534 120.161 182.534C119.589 182.534 119.138 182.661 118.808 182.915C118.483 183.165 118.257 183.443 118.132 183.75L116.536 183.386C116.725 182.856 117.002 182.428 117.365 182.102C117.733 181.773 118.155 181.534 118.632 181.386C119.109 181.235 119.611 181.159 120.138 181.159C120.486 181.159 120.856 181.201 121.246 181.284C121.64 181.364 122.007 181.511 122.348 181.727C122.693 181.943 122.975 182.252 123.195 182.653C123.414 183.051 123.524 183.568 123.524 184.205V190H121.865V188.807H121.797C121.687 189.027 121.522 189.242 121.303 189.455C121.083 189.667 120.801 189.843 120.456 189.983C120.111 190.123 119.699 190.193 119.217 190.193ZM119.587 188.83C120.056 188.83 120.458 188.737 120.791 188.551C121.128 188.366 121.384 188.123 121.558 187.824C121.736 187.521 121.825 187.197 121.825 186.852V185.727C121.765 185.788 121.647 185.845 121.473 185.898C121.303 185.947 121.108 185.991 120.888 186.028C120.668 186.062 120.454 186.095 120.246 186.125C120.038 186.152 119.863 186.174 119.723 186.193C119.394 186.235 119.092 186.305 118.82 186.403C118.551 186.502 118.335 186.644 118.172 186.83C118.013 187.011 117.933 187.254 117.933 187.557C117.933 187.977 118.089 188.295 118.399 188.511C118.71 188.723 119.106 188.83 119.587 188.83Z" fill="#333437"/>
<path d="M245.989 184.875L247.125 186.011L236.153 196.958H235.042V195.847L245.989 184.875ZM250.339 177.625C250.037 177.625 249.723 177.746 249.493 177.975L247.282 180.187L251.813 184.718L254.025 182.507C254.496 182.035 254.496 181.25 254.025 180.803L251.197 177.975C250.955 177.734 250.653 177.625 250.339 177.625ZM245.989 181.48L232.625 194.844V199.375H237.156L250.52 186.011L245.989 181.48Z" fill="#333437" fill-opacity="0.9"/>
<rect x="280.5" y="173.5" width="33.6111" height="31" rx="7.5" fill="white" stroke="#AC2B2B"/>
<path d="M305.622 184.361C302.474 184.087 299.307 183.946 296.149 183.946C294.277 183.946 292.405 184.029 290.533 184.195L288.605 184.361" stroke="#AC0000" stroke-opacity="0.8" stroke-width="1.5" stroke-linecap="round" stroke-linejoin="round"/>
<path d="M293.804 183.523L294.012 182.436C294.164 181.648 294.277 181.059 295.875 181.059H298.352C299.949 181.059 300.072 181.681 300.214 182.444L300.422 183.523" stroke="#AC0000" stroke-opacity="0.8" stroke-width="1.5" stroke-linecap="round" stroke-linejoin="round"/>
<path d="M303.589 186.982L302.975 195.336C302.871 196.638 302.786 197.65 300.148 197.65H294.079C291.441 197.65 291.356 196.638 291.252 195.336L290.637 186.982" stroke="#AC0000" stroke-opacity="0.8" stroke-width="1.5" stroke-linecap="round" stroke-linejoin="round"/>
<path d="M295.534 193.088H298.683" stroke="#AC0000" stroke-opacity="0.8" stroke-width="1.5" stroke-linecap="round" stroke-linejoin="round"/>
<path d="M294.75 189.769H299.477" stroke="#AC0000" stroke-opacity="0.8" stroke-width="1.5" stroke-linecap="round" stroke-linejoin="round"/>
<rect x="36" y="290" width="290" height="59" rx="10" fill="white"/>
<path d="M59.386 312.148H57.6133C57.5451 311.769 57.4182 311.436 57.2326 311.148C57.047 310.86 56.8197 310.616 56.5508 310.415C56.2818 310.214 55.9807 310.062 55.6474 309.96C55.3178 309.858 54.9674 309.807 54.5962 309.807C53.9258 309.807 53.3254 309.975 52.7951 310.312C52.2686 310.65 51.8519 311.144 51.5451 311.795C51.2421 312.447 51.0905 313.242 51.0905 314.182C51.0905 315.129 51.2421 315.928 51.5451 316.58C51.8519 317.231 52.2705 317.723 52.8008 318.057C53.3311 318.39 53.9277 318.557 54.5905 318.557C54.958 318.557 55.3065 318.508 55.636 318.409C55.9693 318.307 56.2705 318.157 56.5394 317.96C56.8083 317.763 57.0356 317.523 57.2212 317.239C57.4106 316.951 57.5413 316.621 57.6133 316.25L59.386 316.256C59.2913 316.828 59.1076 317.354 58.8349 317.835C58.5659 318.312 58.2193 318.725 57.7951 319.074C57.3746 319.419 56.8936 319.686 56.3519 319.875C55.8102 320.064 55.2193 320.159 54.5792 320.159C53.5716 320.159 52.6739 319.92 51.886 319.443C51.0981 318.962 50.4769 318.275 50.0224 317.381C49.5716 316.487 49.3462 315.42 49.3462 314.182C49.3462 312.939 49.5735 311.873 50.028 310.983C50.4826 310.089 51.1038 309.403 51.8917 308.926C52.6796 308.445 53.5754 308.205 54.5792 308.205C55.1966 308.205 55.7724 308.294 56.3065 308.472C56.8443 308.646 57.3273 308.903 57.7553 309.244C58.1833 309.581 58.5375 309.994 58.8178 310.483C59.0981 310.968 59.2875 311.523 59.386 312.148ZM64.8718 320.176C64.012 320.176 63.2715 319.992 62.6503 319.625C62.0328 319.254 61.5556 318.733 61.2184 318.062C60.8851 317.388 60.7184 316.598 60.7184 315.693C60.7184 314.799 60.8851 314.011 61.2184 313.33C61.5556 312.648 62.0253 312.116 62.6275 311.733C63.2336 311.35 63.9419 311.159 64.7525 311.159C65.245 311.159 65.7222 311.241 66.1843 311.403C66.6465 311.566 67.0612 311.822 67.4287 312.17C67.7961 312.519 68.0859 312.972 68.298 313.528C68.5101 314.081 68.6162 314.754 68.6162 315.545V316.148H61.6787V314.875H66.9514C66.9514 314.428 66.8605 314.032 66.6787 313.688C66.4968 313.339 66.2412 313.064 65.9116 312.864C65.5859 312.663 65.2033 312.562 64.7639 312.562C64.2866 312.562 63.87 312.68 63.5139 312.915C63.1616 313.146 62.8889 313.449 62.6957 313.824C62.5063 314.195 62.4116 314.598 62.4116 315.034V316.028C62.4116 316.612 62.5139 317.108 62.7184 317.517C62.9268 317.926 63.2165 318.239 63.5878 318.455C63.959 318.667 64.3927 318.773 64.8889 318.773C65.2109 318.773 65.5044 318.727 65.7696 318.636C66.0347 318.542 66.2639 318.402 66.4571 318.216C66.6503 318.03 66.798 317.801 66.9003 317.528L68.5082 317.818C68.3794 318.292 68.1484 318.706 67.815 319.062C67.4855 319.415 67.0707 319.689 66.5707 319.886C66.0745 320.08 65.5082 320.176 64.8718 320.176ZM71.96 314.818V320H70.2611V311.273H71.8918V312.693H71.9997C72.2005 312.231 72.5149 311.86 72.9429 311.58C73.3747 311.299 73.9183 311.159 74.5736 311.159C75.1683 311.159 75.6891 311.284 76.1361 311.534C76.5831 311.78 76.9297 312.148 77.1759 312.636C77.4221 313.125 77.5452 313.729 77.5452 314.449V320H75.8463V314.653C75.8463 314.021 75.6816 313.527 75.352 313.17C75.0225 312.811 74.5698 312.631 73.9941 312.631C73.6001 312.631 73.2497 312.716 72.9429 312.886C72.6399 313.057 72.3994 313.307 72.2213 313.636C72.0471 313.962 71.96 314.356 71.96 314.818ZM83.345 320.176C82.4851 320.176 81.7446 319.992 81.1234 319.625C80.506 319.254 80.0287 318.733 79.6916 318.062C79.3582 317.388 79.1916 316.598 79.1916 315.693C79.1916 314.799 79.3582 314.011 79.6916 313.33C80.0287 312.648 80.4984 312.116 81.1007 311.733C81.7067 311.35 82.4151 311.159 83.2257 311.159C83.7181 311.159 84.1954 311.241 84.6575 311.403C85.1196 311.566 85.5344 311.822 85.9018 312.17C86.2692 312.519 86.559 312.972 86.7711 313.528C86.9832 314.081 87.0893 314.754 87.0893 315.545V316.148H80.1518V314.875H85.4245C85.4245 314.428 85.3336 314.032 85.1518 313.688C84.97 313.339 84.7143 313.064 84.3847 312.864C84.059 312.663 83.6764 312.562 83.237 312.562C82.7597 312.562 82.3431 312.68 81.987 312.915C81.6347 313.146 81.362 313.449 81.1688 313.824C80.9794 314.195 80.8847 314.598 80.8847 315.034V316.028C80.8847 316.612 80.987 317.108 81.1916 317.517C81.3999 317.926 81.6897 318.239 82.0609 318.455C82.4321 318.667 82.8658 318.773 83.362 318.773C83.684 318.773 83.9776 318.727 84.2427 318.636C84.5079 318.542 84.737 318.402 84.9302 318.216C85.1234 318.03 85.2711 317.801 85.3734 317.528L86.9813 317.818C86.8526 318.292 86.6215 318.706 86.2882 319.062C85.9586 319.415 85.5438 319.689 85.0438 319.886C84.5476 320.08 83.9813 320.176 83.345 320.176ZM95.9957 320.17C95.2911 320.17 94.6623 319.991 94.1093 319.631C93.56 319.267 93.1282 318.75 92.8138 318.08C92.5032 317.405 92.3479 316.597 92.3479 315.653C92.3479 314.71 92.5051 313.903 92.8195 313.233C93.1377 312.562 93.5733 312.049 94.1263 311.693C94.6794 311.337 95.3063 311.159 96.007 311.159C96.5487 311.159 96.9843 311.25 97.3138 311.432C97.6472 311.61 97.9047 311.818 98.0866 312.057C98.2722 312.295 98.4161 312.506 98.5184 312.688H98.6207V308.364H100.32V320H98.6604V318.642H98.5184C98.4161 318.828 98.2684 319.04 98.0752 319.278C97.8858 319.517 97.6244 319.725 97.2911 319.903C96.9578 320.081 96.526 320.17 95.9957 320.17ZM96.3707 318.722C96.8593 318.722 97.2722 318.593 97.6093 318.335C97.9502 318.074 98.2078 317.712 98.382 317.25C98.56 316.788 98.6491 316.25 98.6491 315.636C98.6491 315.03 98.5619 314.5 98.3877 314.045C98.2135 313.591 97.9578 313.237 97.6207 312.983C97.2835 312.729 96.8669 312.602 96.3707 312.602C95.8593 312.602 95.4332 312.735 95.0922 313C94.7513 313.265 94.4938 313.627 94.3195 314.085C94.1491 314.544 94.0638 315.061 94.0638 315.636C94.0638 316.22 94.151 316.744 94.3252 317.21C94.4994 317.676 94.757 318.045 95.0979 318.318C95.4426 318.587 95.8669 318.722 96.3707 318.722ZM102.504 320V311.273H104.203V320H102.504ZM103.362 309.926C103.067 309.926 102.813 309.828 102.601 309.631C102.392 309.43 102.288 309.191 102.288 308.915C102.288 308.634 102.392 308.396 102.601 308.199C102.813 307.998 103.067 307.898 103.362 307.898C103.658 307.898 103.91 307.998 104.118 308.199C104.33 308.396 104.436 308.634 104.436 308.915C104.436 309.191 104.33 309.43 104.118 309.631C103.91 309.828 103.658 309.926 103.362 309.926ZM111.942 308.364V320H110.243V308.364H111.942ZM116.527 320.193C115.974 320.193 115.474 320.091 115.027 319.886C114.58 319.678 114.226 319.377 113.965 318.983C113.707 318.589 113.578 318.106 113.578 317.534C113.578 317.042 113.673 316.636 113.862 316.318C114.052 316 114.307 315.748 114.629 315.562C114.951 315.377 115.311 315.237 115.709 315.142C116.107 315.047 116.512 314.975 116.925 314.926C117.448 314.866 117.872 314.816 118.198 314.778C118.523 314.737 118.76 314.67 118.908 314.58C119.056 314.489 119.129 314.341 119.129 314.136V314.097C119.129 313.6 118.989 313.216 118.709 312.943C118.432 312.67 118.02 312.534 117.47 312.534C116.898 312.534 116.448 312.661 116.118 312.915C115.792 313.165 115.567 313.443 115.442 313.75L113.845 313.386C114.035 312.856 114.311 312.428 114.675 312.102C115.042 311.773 115.465 311.534 115.942 311.386C116.419 311.235 116.921 311.159 117.448 311.159C117.796 311.159 118.165 311.201 118.556 311.284C118.949 311.364 119.317 311.511 119.658 311.727C120.003 311.943 120.285 312.252 120.504 312.653C120.724 313.051 120.834 313.568 120.834 314.205V320H119.175V318.807H119.107C118.997 319.027 118.832 319.242 118.612 319.455C118.393 319.667 118.11 319.843 117.766 319.983C117.421 320.123 117.008 320.193 116.527 320.193ZM116.896 318.83C117.366 318.83 117.768 318.737 118.101 318.551C118.438 318.366 118.694 318.123 118.868 317.824C119.046 317.521 119.135 317.197 119.135 316.852V315.727C119.074 315.788 118.957 315.845 118.783 315.898C118.612 315.947 118.417 315.991 118.198 316.028C117.978 316.062 117.764 316.095 117.556 316.125C117.347 316.152 117.173 316.174 117.033 316.193C116.703 316.235 116.402 316.305 116.129 316.403C115.86 316.502 115.645 316.644 115.482 316.83C115.323 317.011 115.243 317.254 115.243 317.557C115.243 317.977 115.398 318.295 115.709 318.511C116.02 318.723 116.415 318.83 116.896 318.83ZM130.01 311.273L126.845 320H125.027L121.857 311.273H123.681L125.891 317.989H125.982L128.186 311.273H130.01ZM134.746 320.176C133.928 320.176 133.214 319.989 132.604 319.614C131.994 319.239 131.521 318.714 131.183 318.04C130.846 317.366 130.678 316.578 130.678 315.676C130.678 314.771 130.846 313.979 131.183 313.301C131.521 312.623 131.994 312.097 132.604 311.722C133.214 311.347 133.928 311.159 134.746 311.159C135.564 311.159 136.278 311.347 136.888 311.722C137.498 312.097 137.971 312.623 138.308 313.301C138.646 313.979 138.814 314.771 138.814 315.676C138.814 316.578 138.646 317.366 138.308 318.04C137.971 318.714 137.498 319.239 136.888 319.614C136.278 319.989 135.564 320.176 134.746 320.176ZM134.752 318.75C135.282 318.75 135.721 318.61 136.07 318.33C136.418 318.049 136.676 317.676 136.843 317.21C137.013 316.744 137.098 316.231 137.098 315.67C137.098 315.114 137.013 314.602 136.843 314.136C136.676 313.667 136.418 313.29 136.07 313.006C135.721 312.722 135.282 312.58 134.752 312.58C134.218 312.58 133.774 312.722 133.422 313.006C133.074 313.29 132.814 313.667 132.644 314.136C132.477 314.602 132.394 315.114 132.394 315.67C132.394 316.231 132.477 316.744 132.644 317.21C132.814 317.676 133.074 318.049 133.422 318.33C133.774 318.61 134.218 318.75 134.752 318.75ZM140.47 320V311.273H142.113V312.659H142.203C142.363 312.189 142.643 311.82 143.044 311.551C143.45 311.278 143.908 311.142 144.419 311.142C144.525 311.142 144.65 311.146 144.794 311.153C144.942 311.161 145.058 311.17 145.141 311.182V312.807C145.073 312.788 144.952 312.767 144.777 312.744C144.603 312.718 144.429 312.705 144.255 312.705C143.853 312.705 143.495 312.79 143.181 312.96C142.87 313.127 142.624 313.36 142.442 313.659C142.26 313.955 142.169 314.292 142.169 314.67V320H140.47ZM149.735 320.176C148.917 320.176 148.203 319.989 147.593 319.614C146.983 319.239 146.509 318.714 146.172 318.04C145.835 317.366 145.667 316.578 145.667 315.676C145.667 314.771 145.835 313.979 146.172 313.301C146.509 312.623 146.983 312.097 147.593 311.722C148.203 311.347 148.917 311.159 149.735 311.159C150.553 311.159 151.267 311.347 151.877 311.722C152.487 312.097 152.96 312.623 153.297 313.301C153.634 313.979 153.803 314.771 153.803 315.676C153.803 316.578 153.634 317.366 153.297 318.04C152.96 318.714 152.487 319.239 151.877 319.614C151.267 319.989 150.553 320.176 149.735 320.176ZM149.74 318.75C150.271 318.75 150.71 318.61 151.059 318.33C151.407 318.049 151.665 317.676 151.831 317.21C152.002 316.744 152.087 316.231 152.087 315.67C152.087 315.114 152.002 314.602 151.831 314.136C151.665 313.667 151.407 313.29 151.059 313.006C150.71 312.722 150.271 312.58 149.74 312.58C149.206 312.58 148.763 312.722 148.411 313.006C148.062 313.29 147.803 313.667 147.632 314.136C147.466 314.602 147.382 315.114 147.382 315.67C147.382 316.231 147.466 316.744 147.632 317.21C147.803 317.676 148.062 318.049 148.411 318.33C148.763 318.61 149.206 318.75 149.74 318.75Z" fill="#333437"/>
<path d="M245.989 314.875L247.125 316.011L236.153 326.958H235.042V325.847L245.989 314.875ZM250.339 307.625C250.037 307.625 249.723 307.746 249.493 307.975L247.282 310.187L251.813 314.718L254.025 312.507C254.496 312.035 254.496 311.25 254.025 310.803L251.197 307.975C250.955 307.734 250.653 307.625 250.339 307.625ZM245.989 311.48L232.625 324.844V329.375H237.156L250.52 316.011L245.989 311.48Z" fill="#333437" fill-opacity="0.9"/>
<rect x="280.5" y="303.5" width="33.6111" height="31" rx="7.5" fill="white" stroke="#AC2B2B"/>
<path d="M305.622 314.361C302.474 314.087 299.307 313.946 296.149 313.946C294.277 313.946 292.405 314.029 290.533 314.195L288.605 314.361" stroke="#AC0000" stroke-opacity="0.8" stroke-width="1.5" stroke-linecap="round" stroke-linejoin="round"/>
<path d="M293.804 313.523L294.012 312.436C294.164 311.648 294.277 311.059 295.875 311.059H298.352C299.949 311.059 300.072 311.681 300.214 312.444L300.422 313.523" stroke="#AC0000" stroke-opacity="0.8" stroke-width="1.5" stroke-linecap="round" stroke-linejoin="round"/>
<path d="M303.589 316.982L302.975 325.336C302.871 326.638 302.786 327.65 300.148 327.65H294.079C291.441 327.65 291.356 326.638 291.252 325.336L290.637 316.982" stroke="#AC0000" stroke-opacity="0.8" stroke-width="1.5" stroke-linecap="round" stroke-linejoin="round"/>
<path d="M295.534 323.088H298.683" stroke="#AC0000" stroke-opacity="0.8" stroke-width="1.5" stroke-linecap="round" stroke-linejoin="round"/>
<path d="M294.75 319.769H299.477" stroke="#AC0000" stroke-opacity="0.8" stroke-width="1.5" stroke-linecap="round" stroke-linejoin="round"/>
<rect x="36" y="225" width="290" height="59" rx="10" fill="white"/>
<path d="M49.0181 243.364H51.1488L54.8533 252.409H54.9897L58.6942 243.364H60.8249V255H59.1545V246.58H59.0465L55.6147 254.983H54.2283L50.7965 246.574H50.6886V255H49.0181V243.364ZM65.5409 255.193C64.9879 255.193 64.4879 255.091 64.0409 254.886C63.5939 254.678 63.2397 254.377 62.9784 253.983C62.7208 253.589 62.592 253.106 62.592 252.534C62.592 252.042 62.6867 251.636 62.8761 251.318C63.0655 251 63.3212 250.748 63.6432 250.562C63.9651 250.377 64.325 250.237 64.7227 250.142C65.1204 250.047 65.5257 249.975 65.9386 249.926C66.4613 249.866 66.8856 249.816 67.2113 249.778C67.5371 249.737 67.7738 249.67 67.9216 249.58C68.0693 249.489 68.1432 249.341 68.1432 249.136V249.097C68.1432 248.6 68.003 248.216 67.7227 247.943C67.4462 247.67 67.0333 247.534 66.4841 247.534C65.9121 247.534 65.4613 247.661 65.1318 247.915C64.806 248.165 64.5807 248.443 64.4557 248.75L62.8591 248.386C63.0485 247.856 63.325 247.428 63.6886 247.102C64.056 246.773 64.4784 246.534 64.9557 246.386C65.4329 246.235 65.9348 246.159 66.4613 246.159C66.8098 246.159 67.1791 246.201 67.5693 246.284C67.9632 246.364 68.3307 246.511 68.6716 246.727C69.0163 246.943 69.2985 247.252 69.5182 247.653C69.7379 248.051 69.8477 248.568 69.8477 249.205V255H68.1886V253.807H68.1204C68.0106 254.027 67.8458 254.242 67.6261 254.455C67.4064 254.667 67.1242 254.843 66.7795 254.983C66.4348 255.123 66.0219 255.193 65.5409 255.193ZM65.9102 253.83C66.3799 253.83 66.7814 253.737 67.1147 253.551C67.4519 253.366 67.7075 253.123 67.8818 252.824C68.0598 252.521 68.1488 252.197 68.1488 251.852V250.727C68.0882 250.788 67.9708 250.845 67.7966 250.898C67.6261 250.947 67.431 250.991 67.2113 251.028C66.9916 251.062 66.7776 251.095 66.5693 251.125C66.361 251.152 66.1867 251.174 66.0466 251.193C65.717 251.235 65.4159 251.305 65.1432 251.403C64.8742 251.502 64.6583 251.644 64.4954 251.83C64.3363 252.011 64.2568 252.254 64.2568 252.557C64.2568 252.977 64.4121 253.295 64.7227 253.511C65.0333 253.723 65.4291 253.83 65.9102 253.83ZM73.5693 249.818V255H71.8705V246.273H73.5012V247.693H73.6091C73.8099 247.231 74.1243 246.86 74.5523 246.58C74.9841 246.299 75.5277 246.159 76.183 246.159C76.7777 246.159 77.2985 246.284 77.7455 246.534C78.1925 246.78 78.539 247.148 78.7853 247.636C79.0315 248.125 79.1546 248.729 79.1546 249.449V255H77.4557V249.653C77.4557 249.021 77.2909 248.527 76.9614 248.17C76.6318 247.811 76.1792 247.631 75.6034 247.631C75.2095 247.631 74.8591 247.716 74.5523 247.886C74.2493 248.057 74.0087 248.307 73.8307 248.636C73.6565 248.962 73.5693 249.356 73.5693 249.818ZM84.8521 258.455C84.1589 258.455 83.5623 258.364 83.0623 258.182C82.5661 258 82.1608 257.759 81.8464 257.46C81.532 257.161 81.2971 256.833 81.1418 256.477L82.6021 255.875C82.7043 256.042 82.8407 256.218 83.0112 256.403C83.1854 256.593 83.4203 256.754 83.7157 256.886C84.015 257.019 84.3994 257.085 84.8691 257.085C85.5131 257.085 86.0453 256.928 86.4657 256.614C86.8862 256.303 87.0964 255.807 87.0964 255.125V253.409H86.9884C86.8862 253.595 86.7384 253.801 86.5453 254.028C86.3559 254.256 86.0945 254.453 85.7612 254.619C85.4278 254.786 84.9941 254.869 84.46 254.869C83.7706 254.869 83.1494 254.708 82.5964 254.386C82.0471 254.061 81.6115 253.581 81.2896 252.949C80.9714 252.312 80.8123 251.53 80.8123 250.602C80.8123 249.674 80.9695 248.879 81.2839 248.216C81.6021 247.553 82.0377 247.045 82.5907 246.693C83.1437 246.337 83.7706 246.159 84.4714 246.159C85.0131 246.159 85.4506 246.25 85.7839 246.432C86.1172 246.61 86.3767 246.818 86.5623 247.057C86.7517 247.295 86.8975 247.506 86.9998 247.688H87.1248V246.273H88.7896V255.193C88.7896 255.943 88.6153 256.559 88.2668 257.04C87.9184 257.521 87.4468 257.877 86.8521 258.108C86.2612 258.339 85.5945 258.455 84.8521 258.455ZM84.835 253.46C85.3237 253.46 85.7365 253.347 86.0737 253.119C86.4146 252.888 86.6721 252.559 86.8464 252.131C87.0244 251.699 87.1134 251.182 87.1134 250.58C87.1134 249.992 87.0263 249.475 86.8521 249.028C86.6778 248.581 86.4221 248.233 86.085 247.983C85.7479 247.729 85.3312 247.602 84.835 247.602C84.3237 247.602 83.8975 247.735 83.5566 248C83.2157 248.261 82.9581 248.617 82.7839 249.068C82.6134 249.519 82.5282 250.023 82.5282 250.58C82.5282 251.152 82.6153 251.653 82.7896 252.085C82.9638 252.517 83.2214 252.854 83.5623 253.097C83.907 253.339 84.3312 253.46 84.835 253.46ZM90.828 255V246.273H92.5268V255H90.828ZM91.6859 244.926C91.3905 244.926 91.1367 244.828 90.9246 244.631C90.7162 244.43 90.6121 244.191 90.6121 243.915C90.6121 243.634 90.7162 243.396 90.9246 243.199C91.1367 242.998 91.3905 242.898 91.6859 242.898C91.9814 242.898 92.2333 242.998 92.4416 243.199C92.6537 243.396 92.7598 243.634 92.7598 243.915C92.7598 244.191 92.6537 244.43 92.4416 244.631C92.2333 244.828 91.9814 244.926 91.6859 244.926ZM97.1121 255.193C96.5591 255.193 96.0591 255.091 95.6121 254.886C95.1652 254.678 94.811 254.377 94.5496 253.983C94.2921 253.589 94.1633 253.106 94.1633 252.534C94.1633 252.042 94.258 251.636 94.4474 251.318C94.6368 251 94.8924 250.748 95.2144 250.562C95.5364 250.377 95.8962 250.237 96.2939 250.142C96.6917 250.047 97.097 249.975 97.5099 249.926C98.0326 249.866 98.4568 249.816 98.7826 249.778C99.1083 249.737 99.3451 249.67 99.4928 249.58C99.6405 249.489 99.7144 249.341 99.7144 249.136V249.097C99.7144 248.6 99.5743 248.216 99.2939 247.943C99.0174 247.67 98.6046 247.534 98.0553 247.534C97.4833 247.534 97.0326 247.661 96.703 247.915C96.3773 248.165 96.1519 248.443 96.0269 248.75L94.4303 248.386C94.6197 247.856 94.8962 247.428 95.2599 247.102C95.6273 246.773 96.0496 246.534 96.5269 246.386C97.0042 246.235 97.5061 246.159 98.0326 246.159C98.3811 246.159 98.7504 246.201 99.1405 246.284C99.5345 246.364 99.9019 246.511 100.243 246.727C100.588 246.943 100.87 247.252 101.089 247.653C101.309 248.051 101.419 248.568 101.419 249.205V255H99.7599V253.807H99.6917C99.5818 254.027 99.4171 254.242 99.1974 254.455C98.9777 254.667 98.6955 254.843 98.3508 254.983C98.0061 255.123 97.5932 255.193 97.1121 255.193ZM97.4814 253.83C97.9511 253.83 98.3527 253.737 98.686 253.551C99.0231 253.366 99.2788 253.123 99.453 252.824C99.6311 252.521 99.7201 252.197 99.7201 251.852V250.727C99.6595 250.788 99.5421 250.845 99.3678 250.898C99.1974 250.947 99.0023 250.991 98.7826 251.028C98.5629 251.062 98.3489 251.095 98.1405 251.125C97.9322 251.152 97.758 251.174 97.6178 251.193C97.2883 251.235 96.9871 251.305 96.7144 251.403C96.4455 251.502 96.2296 251.644 96.0667 251.83C95.9076 252.011 95.828 252.254 95.828 252.557C95.828 252.977 95.9833 253.295 96.2939 253.511C96.6046 253.723 97.0004 253.83 97.4814 253.83ZM103.442 255V246.273H105.084V247.659H105.175C105.334 247.189 105.614 246.82 106.016 246.551C106.421 246.278 106.879 246.142 107.391 246.142C107.497 246.142 107.622 246.146 107.766 246.153C107.913 246.161 108.029 246.17 108.112 246.182V247.807C108.044 247.788 107.923 247.767 107.749 247.744C107.574 247.718 107.4 247.705 107.226 247.705C106.824 247.705 106.466 247.79 106.152 247.96C105.841 248.127 105.595 248.36 105.413 248.659C105.232 248.955 105.141 249.292 105.141 249.67V255H103.442ZM112.791 255.176C111.931 255.176 111.191 254.992 110.57 254.625C109.952 254.254 109.475 253.733 109.138 253.062C108.804 252.388 108.638 251.598 108.638 250.693C108.638 249.799 108.804 249.011 109.138 248.33C109.475 247.648 109.945 247.116 110.547 246.733C111.153 246.35 111.861 246.159 112.672 246.159C113.164 246.159 113.642 246.241 114.104 246.403C114.566 246.566 114.981 246.822 115.348 247.17C115.715 247.519 116.005 247.972 116.217 248.528C116.429 249.081 116.536 249.754 116.536 250.545V251.148H109.598V249.875H114.871C114.871 249.428 114.78 249.032 114.598 248.688C114.416 248.339 114.161 248.064 113.831 247.864C113.505 247.663 113.123 247.562 112.683 247.562C112.206 247.562 111.789 247.68 111.433 247.915C111.081 248.146 110.808 248.449 110.615 248.824C110.426 249.195 110.331 249.598 110.331 250.034V251.028C110.331 251.612 110.433 252.108 110.638 252.517C110.846 252.926 111.136 253.239 111.507 253.455C111.878 253.667 112.312 253.773 112.808 253.773C113.13 253.773 113.424 253.727 113.689 253.636C113.954 253.542 114.183 253.402 114.376 253.216C114.57 253.03 114.717 252.801 114.82 252.528L116.428 252.818C116.299 253.292 116.068 253.706 115.734 254.062C115.405 254.415 114.99 254.689 114.49 254.886C113.994 255.08 113.428 255.176 112.791 255.176ZM126.328 246.273V247.636H121.396V246.273H126.328ZM122.749 255V245.261C122.749 244.716 122.868 244.263 123.107 243.903C123.345 243.54 123.662 243.269 124.056 243.091C124.449 242.909 124.878 242.818 125.34 242.818C125.681 242.818 125.972 242.847 126.215 242.903C126.457 242.956 126.637 243.006 126.754 243.051L126.357 244.426C126.277 244.403 126.175 244.377 126.05 244.347C125.925 244.312 125.773 244.295 125.595 244.295C125.182 244.295 124.887 244.398 124.709 244.602C124.535 244.807 124.448 245.102 124.448 245.489V255H122.749ZM133.37 251.381V246.273H135.074V255H133.404V253.489H133.313C133.112 253.955 132.79 254.343 132.347 254.653C131.907 254.96 131.36 255.114 130.705 255.114C130.144 255.114 129.648 254.991 129.216 254.744C128.788 254.494 128.451 254.125 128.205 253.636C127.962 253.148 127.841 252.544 127.841 251.824V246.273H129.54V251.619C129.54 252.214 129.705 252.687 130.034 253.04C130.364 253.392 130.792 253.568 131.318 253.568C131.637 253.568 131.953 253.489 132.267 253.33C132.585 253.17 132.849 252.93 133.057 252.608C133.269 252.286 133.373 251.877 133.37 251.381ZM140.793 255.176C139.975 255.176 139.261 254.989 138.651 254.614C138.041 254.239 137.567 253.714 137.23 253.04C136.893 252.366 136.725 251.578 136.725 250.676C136.725 249.771 136.893 248.979 137.23 248.301C137.567 247.623 138.041 247.097 138.651 246.722C139.261 246.347 139.975 246.159 140.793 246.159C141.611 246.159 142.325 246.347 142.935 246.722C143.545 247.097 144.018 247.623 144.355 248.301C144.692 248.979 144.861 249.771 144.861 250.676C144.861 251.578 144.692 252.366 144.355 253.04C144.018 253.714 143.545 254.239 142.935 254.614C142.325 254.989 141.611 255.176 140.793 255.176ZM140.799 253.75C141.329 253.75 141.768 253.61 142.117 253.33C142.465 253.049 142.723 252.676 142.889 252.21C143.06 251.744 143.145 251.231 143.145 250.67C143.145 250.114 143.06 249.602 142.889 249.136C142.723 248.667 142.465 248.29 142.117 248.006C141.768 247.722 141.329 247.58 140.799 247.58C140.264 247.58 139.821 247.722 139.469 248.006C139.121 248.29 138.861 248.667 138.691 249.136C138.524 249.602 138.441 250.114 138.441 250.67C138.441 251.231 138.524 251.744 138.691 252.21C138.861 252.676 139.121 253.049 139.469 253.33C139.821 253.61 140.264 253.75 140.799 253.75ZM146.517 255V246.273H148.159V247.659H148.25C148.409 247.189 148.69 246.82 149.091 246.551C149.497 246.278 149.955 246.142 150.466 246.142C150.572 246.142 150.697 246.146 150.841 246.153C150.989 246.161 151.104 246.17 151.188 246.182V247.807C151.12 247.788 150.998 247.767 150.824 247.744C150.65 247.718 150.476 247.705 150.301 247.705C149.9 247.705 149.542 247.79 149.228 247.96C148.917 248.127 148.671 248.36 148.489 248.659C148.307 248.955 148.216 249.292 148.216 249.67V255H146.517ZM152.418 255V246.273H154.117V255H152.418ZM153.276 244.926C152.98 244.926 152.727 244.828 152.515 244.631C152.306 244.43 152.202 244.191 152.202 243.915C152.202 243.634 152.306 243.396 152.515 243.199C152.727 242.998 152.98 242.898 153.276 242.898C153.571 242.898 153.823 242.998 154.032 243.199C154.244 243.396 154.35 243.634 154.35 243.915C154.35 244.191 154.244 244.43 154.032 244.631C153.823 244.828 153.571 244.926 153.276 244.926Z" fill="#333437"/>
<path d="M245.989 249.875L247.125 251.011L236.153 261.958H235.042V260.847L245.989 249.875ZM250.339 242.625C250.037 242.625 249.723 242.746 249.493 242.975L247.282 245.187L251.813 249.718L254.025 247.507C254.496 247.035 254.496 246.25 254.025 245.803L251.197 242.975C250.955 242.734 250.653 242.625 250.339 242.625ZM245.989 246.48L232.625 259.844V264.375H237.156L250.52 251.011L245.989 246.48Z" fill="#333437" fill-opacity="0.9"/>
<rect x="280.5" y="238.5" width="33.6111" height="31" rx="7.5" fill="white" stroke="#AC2B2B"/>
<path d="M305.622 249.361C302.474 249.087 299.307 248.946 296.149 248.946C294.277 248.946 292.405 249.029 290.533 249.195L288.605 249.361" stroke="#AC0000" stroke-opacity="0.8" stroke-width="1.5" stroke-linecap="round" stroke-linejoin="round"/>
<path d="M293.804 248.523L294.012 247.436C294.164 246.648 294.277 246.059 295.875 246.059H298.352C299.949 246.059 300.072 246.681 300.214 247.444L300.422 248.523" stroke="#AC0000" stroke-opacity="0.8" stroke-width="1.5" stroke-linecap="round" stroke-linejoin="round"/>
<path d="M303.589 251.982L302.975 260.336C302.871 261.638 302.786 262.65 300.148 262.65H294.079C291.441 262.65 291.356 261.638 291.252 260.336L290.637 251.982" stroke="#AC0000" stroke-opacity="0.8" stroke-width="1.5" stroke-linecap="round" stroke-linejoin="round"/>
<path d="M295.534 258.088H298.683" stroke="#AC0000" stroke-opacity="0.8" stroke-width="1.5" stroke-linecap="round" stroke-linejoin="round"/>
<path d="M294.75 254.769H299.477" stroke="#AC0000" stroke-opacity="0.8" stroke-width="1.5" stroke-linecap="round" stroke-linejoin="round"/>
</g>
<rect x="1" y="461" width="359" height="121" fill="white"/>
<rect x="123.5" y="477.444" width="104.902" height="27.056" rx="13.528" fill="white" stroke="#38A0FF"/>
<path d="M149.395 489.583V491.299H142.572V489.583H149.395ZM146.92 486.883V494.129H145.054V486.883H146.92ZM158.24 486.876L155.533 495.127H153.353L157.051 485.174H158.438L158.24 486.876ZM160.489 495.127L157.775 486.876L157.557 485.174H158.958L162.677 495.127H160.489ZM160.366 491.422V493.028H155.109V491.422H160.366ZM168.159 487.731H169.943V494.881C169.943 495.555 169.793 496.127 169.492 496.597C169.196 497.071 168.781 497.429 168.248 497.67C167.715 497.916 167.095 498.039 166.389 498.039C166.079 498.039 165.751 497.998 165.404 497.916C165.062 497.834 164.734 497.707 164.42 497.533C164.11 497.36 163.85 497.141 163.641 496.877L164.509 495.715C164.737 495.979 165.001 496.184 165.302 496.33C165.603 496.481 165.935 496.556 166.3 496.556C166.655 496.556 166.956 496.49 167.202 496.358C167.448 496.23 167.637 496.041 167.77 495.79C167.902 495.544 167.968 495.246 167.968 494.895V489.44L168.159 487.731ZM163.183 491.518V491.374C163.183 490.809 163.251 490.296 163.388 489.836C163.529 489.371 163.727 488.972 163.982 488.64C164.242 488.307 164.557 488.05 164.926 487.867C165.295 487.685 165.712 487.594 166.177 487.594C166.669 487.594 167.081 487.685 167.414 487.867C167.747 488.05 168.02 488.309 168.234 488.647C168.449 488.979 168.615 489.373 168.733 489.829C168.856 490.28 168.952 490.775 169.021 491.313V491.627C168.952 492.142 168.85 492.621 168.713 493.063C168.576 493.505 168.396 493.892 168.173 494.225C167.95 494.553 167.672 494.808 167.339 494.99C167.011 495.173 166.619 495.264 166.163 495.264C165.707 495.264 165.295 495.17 164.926 494.984C164.561 494.797 164.249 494.535 163.989 494.197C163.729 493.86 163.529 493.464 163.388 493.008C163.251 492.552 163.183 492.055 163.183 491.518ZM165.151 491.374V491.518C165.151 491.823 165.181 492.108 165.24 492.372C165.299 492.637 165.391 492.871 165.514 493.076C165.641 493.277 165.799 493.434 165.985 493.548C166.177 493.657 166.402 493.712 166.662 493.712C167.022 493.712 167.316 493.637 167.544 493.486C167.772 493.332 167.943 493.12 168.057 492.851C168.171 492.582 168.237 492.272 168.255 491.921V491.026C168.246 490.738 168.207 490.481 168.139 490.253C168.07 490.021 167.975 489.822 167.852 489.658C167.729 489.494 167.569 489.367 167.373 489.276C167.177 489.184 166.945 489.139 166.676 489.139C166.416 489.139 166.19 489.198 165.999 489.317C165.812 489.43 165.655 489.588 165.527 489.788C165.404 489.989 165.311 490.226 165.247 490.499C165.183 490.768 165.151 491.06 165.151 491.374ZM176.157 487.731H177.941V494.881C177.941 495.555 177.791 496.127 177.49 496.597C177.194 497.071 176.779 497.429 176.246 497.67C175.713 497.916 175.093 498.039 174.387 498.039C174.077 498.039 173.749 497.998 173.402 497.916C173.061 497.834 172.732 497.707 172.418 497.533C172.108 497.36 171.848 497.141 171.639 496.877L172.507 495.715C172.735 495.979 172.999 496.184 173.3 496.33C173.601 496.481 173.933 496.556 174.298 496.556C174.653 496.556 174.954 496.49 175.2 496.358C175.446 496.23 175.635 496.041 175.768 495.79C175.9 495.544 175.966 495.246 175.966 494.895V489.44L176.157 487.731ZM171.181 491.518V491.374C171.181 490.809 171.249 490.296 171.386 489.836C171.527 489.371 171.725 488.972 171.98 488.64C172.24 488.307 172.555 488.05 172.924 487.867C173.293 487.685 173.71 487.594 174.175 487.594C174.667 487.594 175.079 487.685 175.412 487.867C175.745 488.05 176.018 488.309 176.232 488.647C176.447 488.979 176.613 489.373 176.731 489.829C176.854 490.28 176.95 490.775 177.019 491.313V491.627C176.95 492.142 176.848 492.621 176.711 493.063C176.574 493.505 176.394 493.892 176.171 494.225C175.948 494.553 175.67 494.808 175.337 494.99C175.009 495.173 174.617 495.264 174.161 495.264C173.705 495.264 173.293 495.17 172.924 494.984C172.559 494.797 172.247 494.535 171.987 494.197C171.728 493.86 171.527 493.464 171.386 493.008C171.249 492.552 171.181 492.055 171.181 491.518ZM173.149 491.374V491.518C173.149 491.823 173.179 492.108 173.238 492.372C173.298 492.637 173.389 492.871 173.512 493.076C173.639 493.277 173.797 493.434 173.983 493.548C174.175 493.657 174.4 493.712 174.66 493.712C175.02 493.712 175.314 493.637 175.542 493.486C175.77 493.332 175.941 493.12 176.055 492.851C176.169 492.582 176.235 492.272 176.253 491.921V491.026C176.244 490.738 176.205 490.481 176.137 490.253C176.068 490.021 175.973 489.822 175.85 489.658C175.727 489.494 175.567 489.367 175.371 489.276C175.175 489.184 174.943 489.139 174.674 489.139C174.414 489.139 174.188 489.198 173.997 489.317C173.81 489.43 173.653 489.588 173.525 489.788C173.402 489.989 173.309 490.226 173.245 490.499C173.181 490.768 173.149 491.06 173.149 491.374ZM181.551 487.731V495.127H179.575V487.731H181.551ZM179.452 485.803C179.452 485.516 179.552 485.279 179.753 485.092C179.953 484.905 180.222 484.812 180.56 484.812C180.892 484.812 181.159 484.905 181.359 485.092C181.564 485.279 181.667 485.516 181.667 485.803C181.667 486.09 181.564 486.327 181.359 486.514C181.159 486.701 180.892 486.794 180.56 486.794C180.222 486.794 179.953 486.701 179.753 486.514C179.552 486.327 179.452 486.09 179.452 485.803ZM187.553 493.357V487.731H189.521V495.127H187.669L187.553 493.357ZM187.771 491.839L188.353 491.825C188.353 492.318 188.296 492.776 188.182 493.199C188.068 493.619 187.897 493.983 187.669 494.293C187.441 494.598 187.154 494.838 186.808 495.011C186.461 495.179 186.053 495.264 185.584 495.264C185.224 495.264 184.891 495.214 184.586 495.113C184.285 495.009 184.025 494.847 183.807 494.628C183.592 494.405 183.424 494.12 183.301 493.774C183.182 493.423 183.123 493.001 183.123 492.509V487.731H185.092V492.523C185.092 492.741 185.117 492.926 185.167 493.076C185.222 493.227 185.297 493.35 185.393 493.445C185.488 493.541 185.6 493.609 185.728 493.651C185.86 493.692 186.006 493.712 186.165 493.712C186.571 493.712 186.89 493.63 187.122 493.466C187.359 493.302 187.525 493.079 187.621 492.796C187.721 492.509 187.771 492.19 187.771 491.839ZM192.953 489.31V495.127H190.984V487.731H192.83L192.953 489.31ZM192.666 491.169H192.133C192.133 490.622 192.203 490.13 192.345 489.693C192.486 489.25 192.684 488.874 192.939 488.565C193.195 488.25 193.498 488.011 193.849 487.847C194.204 487.678 194.601 487.594 195.038 487.594C195.384 487.594 195.701 487.644 195.988 487.744C196.275 487.845 196.521 488.004 196.727 488.223C196.936 488.442 197.096 488.731 197.205 489.091C197.319 489.451 197.376 489.891 197.376 490.41V495.127H195.394V490.403C195.394 490.075 195.348 489.82 195.257 489.638C195.166 489.456 195.031 489.328 194.854 489.255C194.68 489.178 194.466 489.139 194.211 489.139C193.947 489.139 193.716 489.191 193.521 489.296C193.329 489.401 193.17 489.547 193.042 489.734C192.919 489.916 192.826 490.13 192.762 490.376C192.698 490.622 192.666 490.887 192.666 491.169ZM203.556 487.731H205.34V494.881C205.34 495.555 205.189 496.127 204.889 496.597C204.592 497.071 204.178 497.429 203.645 497.67C203.111 497.916 202.492 498.039 201.785 498.039C201.475 498.039 201.147 497.998 200.801 497.916C200.459 497.834 200.131 497.707 199.816 497.533C199.507 497.36 199.247 497.141 199.037 496.877L199.905 495.715C200.133 495.979 200.397 496.184 200.698 496.33C200.999 496.481 201.332 496.556 201.696 496.556C202.052 496.556 202.353 496.49 202.599 496.358C202.845 496.23 203.034 496.041 203.166 495.79C203.298 495.544 203.364 495.246 203.364 494.895V489.44L203.556 487.731ZM198.579 491.518V491.374C198.579 490.809 198.647 490.296 198.784 489.836C198.925 489.371 199.124 488.972 199.379 488.64C199.639 488.307 199.953 488.05 200.322 487.867C200.691 487.685 201.108 487.594 201.573 487.594C202.065 487.594 202.478 487.685 202.811 487.867C203.143 488.05 203.417 488.309 203.631 488.647C203.845 488.979 204.011 489.373 204.13 489.829C204.253 490.28 204.349 490.775 204.417 491.313V491.627C204.349 492.142 204.246 492.621 204.109 493.063C203.973 493.505 203.793 493.892 203.569 494.225C203.346 494.553 203.068 494.808 202.735 494.99C202.407 495.173 202.015 495.264 201.56 495.264C201.104 495.264 200.691 495.17 200.322 494.984C199.958 494.797 199.646 494.535 199.386 494.197C199.126 493.86 198.925 493.464 198.784 493.008C198.647 492.552 198.579 492.055 198.579 491.518ZM200.548 491.374V491.518C200.548 491.823 200.577 492.108 200.637 492.372C200.696 492.637 200.787 492.871 200.91 493.076C201.038 493.277 201.195 493.434 201.382 493.548C201.573 493.657 201.799 493.712 202.059 493.712C202.419 493.712 202.713 493.637 202.94 493.486C203.168 493.332 203.339 493.12 203.453 492.851C203.567 492.582 203.633 492.272 203.651 491.921V491.026C203.642 490.738 203.604 490.481 203.535 490.253C203.467 490.021 203.371 489.822 203.248 489.658C203.125 489.494 202.965 489.367 202.77 489.276C202.574 489.184 202.341 489.139 202.072 489.139C201.812 489.139 201.587 489.198 201.396 489.317C201.209 489.43 201.051 489.588 200.924 489.788C200.801 489.989 200.707 490.226 200.644 490.499C200.58 490.768 200.548 491.06 200.548 491.374ZM208.949 487.731V495.127H206.974V487.731H208.949ZM206.851 485.803C206.851 485.516 206.951 485.279 207.151 485.092C207.352 484.905 207.621 484.812 207.958 484.812C208.291 484.812 208.557 484.905 208.758 485.092C208.963 485.279 209.065 485.516 209.065 485.803C209.065 486.09 208.963 486.327 208.758 486.514C208.557 486.701 208.291 486.794 207.958 486.794C207.621 486.794 207.352 486.701 207.151 486.514C206.951 486.327 206.851 486.09 206.851 485.803Z" fill="#38A0FF"/>
<path d="M34.1783 41.1783C33.8658 41.4908 33.4419 41.6663 33 41.6663C32.5581 41.6663 32.1342 41.4908 31.8217 41.1783L24.3217 33.6783C24.0092 33.3658 23.8337 32.942 23.8337 32.5C23.8337 32.0581 24.0092 31.6342 24.3217 31.3217L31.8217 23.8217C32.136 23.5181 32.557 23.3501 32.994 23.3539C33.431 23.3577 33.849 23.533 34.158 23.842C34.467 24.151 34.6423 24.569 34.6461 25.006C34.6499 25.443 34.4819 25.864 34.1783 26.1783L29.6667 30.8333H45.5C45.942 30.8333 46.3659 31.0089 46.6785 31.3215C46.9911 31.6341 47.1667 32.058 47.1667 32.5C47.1667 32.942 46.9911 33.366 46.6785 33.6785C46.3659 33.9911 45.942 34.1667 45.5 34.1667H29.6667L34.1783 38.8217C34.4908 39.1342 34.6663 39.5581 34.6663 40C34.6663 40.442 34.4908 40.8658 34.1783 41.1783Z" fill="white"/>
<path d="M116.81 113.309C116.81 113.035 116.767 112.791 116.683 112.576C116.605 112.355 116.458 112.156 116.243 111.98C116.035 111.798 115.739 111.622 115.355 111.453C114.977 111.277 114.489 111.095 113.89 110.906C113.226 110.698 112.607 110.464 112.034 110.203C111.461 109.943 110.957 109.64 110.521 109.295C110.091 108.95 109.756 108.553 109.515 108.104C109.274 107.648 109.154 107.12 109.154 106.521C109.154 105.936 109.277 105.402 109.525 104.92C109.779 104.438 110.137 104.025 110.599 103.68C111.061 103.328 111.605 103.058 112.23 102.869C112.861 102.68 113.558 102.586 114.32 102.586C115.374 102.586 116.286 102.778 117.054 103.162C117.829 103.546 118.428 104.067 118.851 104.725C119.274 105.382 119.486 106.121 119.486 106.941H116.81C116.81 106.499 116.715 106.108 116.527 105.77C116.344 105.431 116.064 105.164 115.687 104.969C115.316 104.773 114.847 104.676 114.28 104.676C113.734 104.676 113.278 104.757 112.913 104.92C112.555 105.083 112.285 105.304 112.103 105.584C111.927 105.864 111.839 106.176 111.839 106.521C111.839 106.782 111.901 107.016 112.025 107.225C112.148 107.426 112.334 107.618 112.581 107.801C112.829 107.977 113.135 108.143 113.499 108.299C113.87 108.449 114.3 108.598 114.788 108.748C115.57 108.982 116.253 109.243 116.839 109.529C117.432 109.816 117.923 110.141 118.314 110.506C118.711 110.87 119.007 111.281 119.202 111.736C119.404 112.192 119.505 112.71 119.505 113.289C119.505 113.901 119.385 114.448 119.144 114.93C118.903 115.411 118.558 115.822 118.109 116.16C117.659 116.499 117.119 116.756 116.488 116.932C115.863 117.107 115.163 117.195 114.388 117.195C113.698 117.195 113.014 117.104 112.337 116.922C111.667 116.733 111.058 116.453 110.511 116.082C109.964 115.704 109.528 115.229 109.202 114.656C108.877 114.077 108.714 113.4 108.714 112.625H111.409C111.409 113.074 111.481 113.458 111.624 113.777C111.774 114.09 111.982 114.347 112.249 114.549C112.523 114.744 112.842 114.887 113.206 114.979C113.571 115.07 113.965 115.115 114.388 115.115C114.935 115.115 115.384 115.04 115.736 114.891C116.094 114.734 116.361 114.52 116.536 114.246C116.719 113.973 116.81 113.66 116.81 113.309ZM120.521 111.824V111.619C120.521 110.844 120.632 110.132 120.853 109.48C121.074 108.823 121.397 108.253 121.82 107.771C122.243 107.29 122.761 106.915 123.373 106.648C123.985 106.375 124.681 106.238 125.463 106.238C126.257 106.238 126.96 106.375 127.572 106.648C128.19 106.915 128.711 107.29 129.134 107.771C129.558 108.253 129.88 108.823 130.101 109.48C130.323 110.132 130.433 110.844 130.433 111.619V111.824C130.433 112.592 130.323 113.305 130.101 113.963C129.88 114.614 129.558 115.184 129.134 115.672C128.711 116.154 128.194 116.528 127.582 116.795C126.97 117.062 126.27 117.195 125.482 117.195C124.701 117.195 124.001 117.062 123.382 116.795C122.764 116.528 122.243 116.154 121.82 115.672C121.397 115.184 121.074 114.614 120.853 113.963C120.632 113.305 120.521 112.592 120.521 111.824ZM123.099 111.619V111.824C123.099 112.286 123.145 112.719 123.236 113.123C123.327 113.527 123.467 113.882 123.656 114.188C123.845 114.493 124.089 114.734 124.388 114.91C124.694 115.079 125.059 115.164 125.482 115.164C125.899 115.164 126.257 115.079 126.556 114.91C126.856 114.734 127.1 114.493 127.289 114.188C127.484 113.882 127.627 113.527 127.718 113.123C127.81 112.719 127.855 112.286 127.855 111.824V111.619C127.855 111.163 127.81 110.737 127.718 110.34C127.627 109.936 127.484 109.581 127.289 109.275C127.1 108.963 126.852 108.719 126.546 108.543C126.247 108.361 125.886 108.27 125.463 108.27C125.046 108.27 124.688 108.361 124.388 108.543C124.089 108.719 123.845 108.963 123.656 109.275C123.467 109.581 123.327 109.936 123.236 110.34C123.145 110.737 123.099 111.163 123.099 111.619ZM136.908 106.434V108.289H130.854V106.434H136.908ZM132.475 103.836H135.063V113.953C135.063 114.266 135.105 114.507 135.189 114.676C135.274 114.845 135.401 114.959 135.57 115.018C135.74 115.076 135.941 115.105 136.176 115.105C136.345 115.105 136.501 115.096 136.645 115.076C136.788 115.057 136.908 115.037 137.006 115.018L137.016 116.951C136.801 117.023 136.557 117.081 136.283 117.127C136.016 117.173 135.714 117.195 135.375 117.195C134.796 117.195 134.288 117.098 133.852 116.902C133.415 116.701 133.077 116.378 132.836 115.936C132.595 115.486 132.475 114.894 132.475 114.158V103.836ZM143.227 106.434V108.289H137.172V106.434H143.227ZM138.793 103.836H141.381V113.953C141.381 114.266 141.424 114.507 141.508 114.676C141.593 114.845 141.72 114.959 141.889 115.018C142.058 115.076 142.26 115.105 142.495 115.105C142.664 115.105 142.82 115.096 142.963 115.076C143.107 115.057 143.227 115.037 143.325 115.018L143.334 116.951C143.12 117.023 142.875 117.081 142.602 117.127C142.335 117.173 142.032 117.195 141.694 117.195C141.114 117.195 140.607 117.098 140.17 116.902C139.734 116.701 139.396 116.378 139.155 115.936C138.914 115.486 138.793 114.894 138.793 114.158V103.836ZM143.833 111.824V111.619C143.833 110.844 143.943 110.132 144.165 109.48C144.386 108.823 144.708 108.253 145.132 107.771C145.555 107.29 146.072 106.915 146.684 106.648C147.296 106.375 147.993 106.238 148.774 106.238C149.568 106.238 150.272 106.375 150.884 106.648C151.502 106.915 152.023 107.29 152.446 107.771C152.869 108.253 153.192 108.823 153.413 109.48C153.634 110.132 153.745 110.844 153.745 111.619V111.824C153.745 112.592 153.634 113.305 153.413 113.963C153.192 114.614 152.869 115.184 152.446 115.672C152.023 116.154 151.505 116.528 150.893 116.795C150.281 117.062 149.582 117.195 148.794 117.195C148.013 117.195 147.313 117.062 146.694 116.795C146.076 116.528 145.555 116.154 145.132 115.672C144.708 115.184 144.386 114.614 144.165 113.963C143.943 113.305 143.833 112.592 143.833 111.824ZM146.411 111.619V111.824C146.411 112.286 146.457 112.719 146.548 113.123C146.639 113.527 146.779 113.882 146.968 114.188C147.156 114.493 147.401 114.734 147.7 114.91C148.006 115.079 148.371 115.164 148.794 115.164C149.21 115.164 149.568 115.079 149.868 114.91C150.167 114.734 150.412 114.493 150.6 114.188C150.796 113.882 150.939 113.527 151.03 113.123C151.121 112.719 151.167 112.286 151.167 111.824V111.619C151.167 111.163 151.121 110.737 151.03 110.34C150.939 109.936 150.796 109.581 150.6 109.275C150.412 108.963 150.164 108.719 149.858 108.543C149.559 108.361 149.197 108.27 148.774 108.27C148.358 108.27 147.999 108.361 147.7 108.543C147.401 108.719 147.156 108.963 146.968 109.275C146.779 109.581 146.639 109.936 146.548 110.34C146.457 110.737 146.411 111.163 146.411 111.619ZM160.357 109.891V111.932H155.015V109.891H160.357ZM170.679 112.322H173.365C173.293 113.273 173.03 114.116 172.574 114.852C172.118 115.581 171.483 116.154 170.67 116.57C169.856 116.987 168.869 117.195 167.711 117.195C166.819 117.195 166.015 117.039 165.298 116.727C164.589 116.408 163.98 115.955 163.472 115.369C162.971 114.777 162.587 114.067 162.32 113.24C162.053 112.407 161.92 111.473 161.92 110.438V109.354C161.92 108.318 162.056 107.384 162.33 106.551C162.603 105.717 162.994 105.008 163.502 104.422C164.016 103.829 164.631 103.374 165.347 103.055C166.07 102.736 166.877 102.576 167.769 102.576C168.928 102.576 169.908 102.791 170.709 103.221C171.509 103.644 172.131 104.227 172.574 104.969C173.017 105.711 173.283 106.564 173.375 107.527H170.689C170.637 106.928 170.507 106.421 170.298 106.004C170.097 105.587 169.791 105.271 169.38 105.057C168.977 104.835 168.44 104.725 167.769 104.725C167.248 104.725 166.789 104.822 166.392 105.018C166.002 105.213 165.676 105.506 165.416 105.896C165.155 106.281 164.96 106.762 164.83 107.342C164.699 107.915 164.634 108.579 164.634 109.334V110.438C164.634 111.16 164.693 111.808 164.81 112.381C164.927 112.954 165.11 113.439 165.357 113.836C165.604 114.233 165.923 114.536 166.314 114.744C166.705 114.952 167.17 115.057 167.711 115.057C168.368 115.057 168.902 114.952 169.312 114.744C169.729 114.536 170.045 114.23 170.259 113.826C170.481 113.423 170.621 112.921 170.679 112.322ZM180.67 114.754V109.881C180.67 109.523 180.608 109.214 180.484 108.953C180.361 108.693 180.172 108.491 179.918 108.348C179.664 108.204 179.342 108.133 178.951 108.133C178.606 108.133 178.303 108.191 178.043 108.309C177.789 108.426 177.594 108.592 177.457 108.807C177.32 109.015 177.252 109.256 177.252 109.529H174.664C174.664 109.093 174.768 108.68 174.977 108.289C175.185 107.892 175.481 107.54 175.865 107.234C176.256 106.922 176.721 106.678 177.262 106.502C177.809 106.326 178.421 106.238 179.098 106.238C179.898 106.238 180.611 106.375 181.236 106.648C181.868 106.915 182.363 107.319 182.721 107.859C183.085 108.4 183.268 109.08 183.268 109.9V114.51C183.268 115.037 183.3 115.49 183.365 115.867C183.437 116.238 183.541 116.561 183.678 116.834V117H181.051C180.927 116.733 180.833 116.395 180.768 115.984C180.702 115.568 180.67 115.158 180.67 114.754ZM181.031 110.564L181.051 112.098H179.42C179.016 112.098 178.661 112.14 178.355 112.225C178.049 112.303 177.799 112.42 177.604 112.576C177.408 112.726 177.262 112.908 177.164 113.123C177.066 113.331 177.018 113.569 177.018 113.836C177.018 114.096 177.076 114.331 177.193 114.539C177.317 114.747 177.493 114.913 177.721 115.037C177.955 115.154 178.229 115.213 178.541 115.213C178.997 115.213 179.394 115.122 179.732 114.939C180.071 114.751 180.335 114.523 180.523 114.256C180.712 113.989 180.813 113.735 180.826 113.494L181.568 114.607C181.477 114.874 181.34 115.158 181.158 115.457C180.976 115.757 180.742 116.036 180.455 116.297C180.169 116.557 179.824 116.772 179.42 116.941C179.016 117.111 178.548 117.195 178.014 117.195C177.33 117.195 176.718 117.059 176.178 116.785C175.637 116.512 175.211 116.137 174.898 115.662C174.586 115.187 174.43 114.646 174.43 114.041C174.43 113.481 174.534 112.986 174.742 112.557C174.951 112.127 175.26 111.766 175.67 111.473C176.08 111.173 176.588 110.949 177.193 110.799C177.805 110.643 178.505 110.564 179.293 110.564H181.031ZM190.192 106.434V108.289H184.137V106.434H190.192ZM185.758 103.836H188.346V113.953C188.346 114.266 188.388 114.507 188.473 114.676C188.558 114.845 188.685 114.959 188.854 115.018C189.023 115.076 189.225 115.105 189.459 115.105C189.629 115.105 189.785 115.096 189.928 115.076C190.071 115.057 190.192 115.037 190.289 115.018L190.299 116.951C190.084 117.023 189.84 117.081 189.567 117.127C189.3 117.173 188.997 117.195 188.659 117.195C188.079 117.195 187.571 117.098 187.135 116.902C186.699 116.701 186.36 116.378 186.12 115.936C185.879 115.486 185.758 114.894 185.758 114.158V103.836ZM196.257 117.195C195.456 117.195 194.736 117.065 194.098 116.805C193.46 116.544 192.917 116.183 192.468 115.721C192.025 115.252 191.683 114.708 191.442 114.09C191.208 113.465 191.091 112.794 191.091 112.078V111.688C191.091 110.874 191.208 110.135 191.442 109.471C191.677 108.8 192.009 108.224 192.438 107.742C192.868 107.26 193.382 106.889 193.981 106.629C194.58 106.368 195.241 106.238 195.964 106.238C196.712 106.238 197.373 106.365 197.946 106.619C198.519 106.867 198.998 107.218 199.382 107.674C199.766 108.13 200.055 108.676 200.251 109.314C200.446 109.946 200.544 110.646 200.544 111.414V112.498H192.263V110.721H198.005V110.525C197.992 110.115 197.914 109.741 197.77 109.402C197.627 109.057 197.406 108.784 197.106 108.582C196.807 108.374 196.419 108.27 195.944 108.27C195.56 108.27 195.225 108.354 194.938 108.523C194.658 108.686 194.424 108.921 194.235 109.227C194.053 109.526 193.916 109.884 193.825 110.301C193.734 110.717 193.688 111.18 193.688 111.688V112.078C193.688 112.521 193.747 112.931 193.864 113.309C193.988 113.686 194.167 114.015 194.401 114.295C194.642 114.568 194.929 114.783 195.261 114.939C195.599 115.089 195.983 115.164 196.413 115.164C196.953 115.164 197.442 115.06 197.878 114.852C198.32 114.637 198.705 114.321 199.03 113.904L200.329 115.252C200.108 115.577 199.808 115.89 199.43 116.189C199.059 116.489 198.61 116.733 198.083 116.922C197.555 117.104 196.947 117.195 196.257 117.195ZM208.591 106.434H210.935V116.678C210.935 117.635 210.726 118.445 210.31 119.109C209.9 119.78 209.323 120.288 208.581 120.633C207.839 120.984 206.976 121.16 205.993 121.16C205.57 121.16 205.111 121.102 204.616 120.984C204.128 120.867 203.656 120.682 203.2 120.428C202.751 120.18 202.377 119.858 202.077 119.461L203.239 117.938C203.591 118.348 203.988 118.657 204.431 118.865C204.874 119.08 205.352 119.188 205.866 119.188C206.387 119.188 206.83 119.09 207.195 118.895C207.566 118.706 207.849 118.426 208.044 118.055C208.246 117.69 208.347 117.241 208.347 116.707V108.846L208.591 106.434ZM201.452 111.844V111.639C201.452 110.831 201.55 110.099 201.745 109.441C201.941 108.777 202.221 108.208 202.585 107.732C202.956 107.257 203.402 106.889 203.923 106.629C204.45 106.368 205.043 106.238 205.7 106.238C206.397 106.238 206.983 106.365 207.458 106.619C207.94 106.873 208.337 107.234 208.65 107.703C208.969 108.172 209.216 108.729 209.392 109.373C209.574 110.011 209.714 110.714 209.812 111.482V112.039C209.721 112.788 209.574 113.475 209.372 114.1C209.177 114.725 208.917 115.271 208.591 115.74C208.265 116.202 207.862 116.561 207.38 116.814C206.898 117.068 206.332 117.195 205.681 117.195C205.03 117.195 204.444 117.062 203.923 116.795C203.402 116.528 202.956 116.154 202.585 115.672C202.221 115.19 201.941 114.624 201.745 113.973C201.55 113.322 201.452 112.612 201.452 111.844ZM204.03 111.639V111.844C204.03 112.299 204.076 112.726 204.167 113.123C204.258 113.52 204.398 113.872 204.587 114.178C204.776 114.477 205.014 114.712 205.3 114.881C205.586 115.05 205.928 115.135 206.325 115.135C206.859 115.135 207.295 115.024 207.634 114.803C207.979 114.575 208.239 114.266 208.415 113.875C208.598 113.478 208.715 113.032 208.767 112.537V111.004C208.734 110.613 208.663 110.252 208.552 109.92C208.448 109.588 208.301 109.301 208.113 109.061C207.924 108.82 207.683 108.631 207.39 108.494C207.097 108.357 206.749 108.289 206.345 108.289C205.954 108.289 205.613 108.377 205.32 108.553C205.027 108.722 204.786 108.96 204.597 109.266C204.408 109.572 204.265 109.926 204.167 110.33C204.076 110.734 204.03 111.17 204.03 111.639ZM212.4 111.824V111.619C212.4 110.844 212.511 110.132 212.732 109.48C212.953 108.823 213.276 108.253 213.699 107.771C214.122 107.29 214.64 106.915 215.252 106.648C215.864 106.375 216.56 106.238 217.341 106.238C218.136 106.238 218.839 106.375 219.451 106.648C220.069 106.915 220.59 107.29 221.013 107.771C221.436 108.253 221.759 108.823 221.98 109.48C222.201 110.132 222.312 110.844 222.312 111.619V111.824C222.312 112.592 222.201 113.305 221.98 113.963C221.759 114.614 221.436 115.184 221.013 115.672C220.59 116.154 220.073 116.528 219.461 116.795C218.849 117.062 218.149 117.195 217.361 117.195C216.58 117.195 215.88 117.062 215.261 116.795C214.643 116.528 214.122 116.154 213.699 115.672C213.276 115.184 212.953 114.614 212.732 113.963C212.511 113.305 212.4 112.592 212.4 111.824ZM214.978 111.619V111.824C214.978 112.286 215.024 112.719 215.115 113.123C215.206 113.527 215.346 113.882 215.535 114.188C215.724 114.493 215.968 114.734 216.267 114.91C216.573 115.079 216.938 115.164 217.361 115.164C217.778 115.164 218.136 115.079 218.435 114.91C218.735 114.734 218.979 114.493 219.168 114.188C219.363 113.882 219.506 113.527 219.597 113.123C219.688 112.719 219.734 112.286 219.734 111.824V111.619C219.734 111.163 219.688 110.737 219.597 110.34C219.506 109.936 219.363 109.581 219.168 109.275C218.979 108.963 218.731 108.719 218.425 108.543C218.126 108.361 217.765 108.27 217.341 108.27C216.925 108.27 216.567 108.361 216.267 108.543C215.968 108.719 215.724 108.963 215.535 109.275C215.346 109.581 215.206 109.936 215.115 110.34C215.024 110.737 214.978 111.163 214.978 111.619ZM226.365 108.592V117H223.787V106.434H226.229L226.365 108.592ZM229.578 106.365L229.539 108.768C229.396 108.742 229.233 108.722 229.051 108.709C228.875 108.696 228.709 108.689 228.553 108.689C228.156 108.689 227.807 108.745 227.508 108.855C227.208 108.96 226.958 109.113 226.756 109.314C226.561 109.516 226.411 109.764 226.307 110.057C226.202 110.343 226.144 110.669 226.131 111.033L225.574 110.965C225.574 110.294 225.643 109.673 225.779 109.1C225.916 108.527 226.115 108.025 226.375 107.596C226.635 107.166 226.961 106.834 227.352 106.6C227.749 106.359 228.204 106.238 228.719 106.238C228.862 106.238 229.015 106.251 229.178 106.277C229.347 106.297 229.48 106.326 229.578 106.365ZM233.329 106.434V117H230.741V106.434H233.329ZM230.565 103.67C230.565 103.286 230.695 102.967 230.955 102.713C231.222 102.459 231.58 102.332 232.03 102.332C232.479 102.332 232.834 102.459 233.094 102.713C233.361 102.967 233.495 103.286 233.495 103.67C233.495 104.048 233.361 104.363 233.094 104.617C232.834 104.871 232.479 104.998 232.03 104.998C231.58 104.998 231.222 104.871 230.955 104.617C230.695 104.363 230.565 104.048 230.565 103.67ZM240.136 117.195C239.335 117.195 238.615 117.065 237.977 116.805C237.339 116.544 236.796 116.183 236.346 115.721C235.904 115.252 235.562 114.708 235.321 114.09C235.087 113.465 234.97 112.794 234.97 112.078V111.688C234.97 110.874 235.087 110.135 235.321 109.471C235.555 108.8 235.888 108.224 236.317 107.742C236.747 107.26 237.261 106.889 237.86 106.629C238.459 106.368 239.12 106.238 239.843 106.238C240.591 106.238 241.252 106.365 241.825 106.619C242.398 106.867 242.876 107.218 243.261 107.674C243.645 108.13 243.934 108.676 244.13 109.314C244.325 109.946 244.423 110.646 244.423 111.414V112.498H236.141V110.721H241.884V110.525C241.871 110.115 241.792 109.741 241.649 109.402C241.506 109.057 241.285 108.784 240.985 108.582C240.686 108.374 240.298 108.27 239.823 108.27C239.439 108.27 239.104 108.354 238.817 108.523C238.537 108.686 238.303 108.921 238.114 109.227C237.932 109.526 237.795 109.884 237.704 110.301C237.613 110.717 237.567 111.18 237.567 111.688V112.078C237.567 112.521 237.626 112.931 237.743 113.309C237.867 113.686 238.046 114.015 238.28 114.295C238.521 114.568 238.807 114.783 239.139 114.939C239.478 115.089 239.862 115.164 240.292 115.164C240.832 115.164 241.32 115.06 241.757 114.852C242.199 114.637 242.583 114.321 242.909 113.904L244.208 115.252C243.986 115.577 243.687 115.89 243.309 116.189C242.938 116.489 242.489 116.733 241.962 116.922C241.434 117.104 240.826 117.195 240.136 117.195Z" fill="#333437"/>
</g>
<defs>
<filter id="filter0_bd_124_619" x="-26" y="564" width="407" height="96" filterUnits="userSpaceOnUse" color-interpolation-filters="sRGB">
<feFlood flood-opacity="0" result="BackgroundImageFix"/>
<feGaussianBlur in="BackgroundImageFix" stdDeviation="10"/>
<feComposite in2="SourceAlpha" operator="in" result="effect1_backgroundBlur_124_619"/>
<feColorMatrix in="SourceAlpha" type="matrix" values="0 0 0 0 0 0 0 0 0 0 0 0 0 0 0 0 0 0 127 0" result="hardAlpha"/>
<feOffset dy="-0.5"/>
<feColorMatrix type="matrix" values="0 0 0 0 0 0 0 0 0 0 0 0 0 0 0 0 0 0 0.1 0"/>
<feBlend mode="normal" in2="effect1_backgroundBlur_124_619" result="effect2_dropShadow_124_619"/>
<feBlend mode="normal" in="SourceGraphic" in2="effect2_dropShadow_124_619" result="shape"/>
</filter>
<filter id="filter1_d_124_619" x="32" y="150" width="298" height="325" filterUnits="userSpaceOnUse" color-interpolation-filters="sRGB">
<feFlood flood-opacity="0" result="BackgroundImageFix"/>
<feColorMatrix in="SourceAlpha" type="matrix" values="0 0 0 0 0 0 0 0 0 0 0 0 0 0 0 0 0 0 127 0" result="hardAlpha"/>
<feOffset/>
<feGaussianBlur stdDeviation="2"/>
<feComposite in2="hardAlpha" operator="out"/>
<feColorMatrix type="matrix" values="0 0 0 0 0 0 0 0 0 0 0 0 0 0 0 0 0 0 0.25 0"/>
<feBlend mode="normal" in2="BackgroundImageFix" result="effect1_dropShadow_124_619"/>
<feBlend mode="normal" in="SourceGraphic" in2="effect1_dropShadow_124_619" result="shape"/>
</filter>
<clipPath id="clip0_124_619">
<rect width="360" height="640" fill="white"/>
</clipPath>
</defs>
</svg>
