<svg width="360" height="640" viewBox="0 0 360 640" fill="none" xmlns="http://www.w3.org/2000/svg">
<rect width="360" height="640" fill="white"/>
<path d="M65.669 401.727V409H64.6605L60.9638 403.666H60.8963V409H59.799V401.727H60.8146L64.5149 407.068H64.5824V401.727H65.669ZM69.4821 409.11C68.9707 409.11 68.5244 408.993 68.1433 408.759C67.7621 408.524 67.4662 408.196 67.2555 407.775C67.0448 407.353 66.9395 406.861 66.9395 406.298C66.9395 405.732 67.0448 405.237 67.2555 404.813C67.4662 404.389 67.7621 404.06 68.1433 403.826C68.5244 403.592 68.9707 403.474 69.4821 403.474C69.9934 403.474 70.4397 403.592 70.8208 403.826C71.202 404.06 71.4979 404.389 71.7086 404.813C71.9193 405.237 72.0247 405.732 72.0247 406.298C72.0247 406.861 71.9193 407.353 71.7086 407.775C71.4979 408.196 71.202 408.524 70.8208 408.759C70.4397 408.993 69.9934 409.11 69.4821 409.11ZM69.4856 408.219C69.8171 408.219 70.0917 408.131 70.3095 407.956C70.5273 407.781 70.6883 407.548 70.7924 407.256C70.899 406.965 70.9522 406.644 70.9522 406.294C70.9522 405.946 70.899 405.626 70.7924 405.335C70.6883 405.042 70.5273 404.806 70.3095 404.629C70.0917 404.451 69.8171 404.362 69.4856 404.362C69.1518 404.362 68.8748 404.451 68.6547 404.629C68.4368 404.806 68.2747 405.042 68.1681 405.335C68.064 405.626 68.0119 405.946 68.0119 406.294C68.0119 406.644 68.064 406.965 68.1681 407.256C68.2747 407.548 68.4368 407.781 68.6547 407.956C68.8748 408.131 69.1518 408.219 69.4856 408.219ZM74.2717 405.761V409H73.2099V403.545H74.229V404.433H74.2965C74.422 404.144 74.6185 403.912 74.886 403.737C75.1559 403.562 75.4956 403.474 75.9052 403.474C76.2769 403.474 76.6024 403.553 76.8817 403.709C77.1611 403.863 77.3777 404.092 77.5316 404.398C77.6855 404.703 77.7624 405.081 77.7624 405.531V409H76.7006V405.658C76.7006 405.263 76.5977 404.954 76.3917 404.732C76.1857 404.507 75.9028 404.394 75.543 404.394C75.2968 404.394 75.0778 404.447 74.886 404.554C74.6966 404.661 74.5463 404.817 74.435 405.023C74.3261 405.226 74.2717 405.473 74.2717 405.761ZM82.8947 405.761V409H81.8329V401.727H82.8805V404.433H82.948C83.0758 404.14 83.2711 403.906 83.5339 403.734C83.7967 403.561 84.14 403.474 84.5637 403.474C84.9378 403.474 85.2645 403.551 85.5439 403.705C85.8256 403.859 86.0434 404.089 86.1973 404.394C86.3535 404.697 86.4316 405.076 86.4316 405.531V409H85.3699V405.658C85.3699 405.258 85.2669 404.948 85.0609 404.728C84.8549 404.505 84.5685 404.394 84.2015 404.394C83.9506 404.394 83.7257 404.447 83.5268 404.554C83.3303 404.661 83.1752 404.817 83.0616 405.023C82.9503 405.226 82.8947 405.473 82.8947 405.761ZM89.4359 409.121C89.0903 409.121 88.7778 409.057 88.4984 408.929C88.219 408.799 87.9977 408.611 87.8343 408.364C87.6734 408.118 87.5929 407.816 87.5929 407.459C87.5929 407.151 87.652 406.898 87.7704 406.699C87.8888 406.5 88.0486 406.343 88.2498 406.227C88.4511 406.111 88.676 406.023 88.9245 405.964C89.1731 405.905 89.4264 405.86 89.6845 405.829C90.0112 405.791 90.2763 405.76 90.4799 405.737C90.6835 405.71 90.8315 405.669 90.9238 405.612C91.0162 405.555 91.0623 405.463 91.0623 405.335V405.31C91.0623 405 90.9747 404.76 90.7995 404.589C90.6267 404.419 90.3687 404.334 90.0254 404.334C89.6679 404.334 89.3862 404.413 89.1802 404.572C88.9766 404.728 88.8358 404.902 88.7576 405.094L87.7598 404.866C87.8781 404.535 88.051 404.268 88.2782 404.064C88.5079 403.858 88.7718 403.709 89.0701 403.616C89.3684 403.522 89.6821 403.474 90.0112 403.474C90.229 403.474 90.4598 403.5 90.7037 403.553C90.9499 403.602 91.1795 403.695 91.3926 403.83C91.608 403.964 91.7844 404.157 91.9217 404.408C92.059 404.657 92.1277 404.98 92.1277 405.378V409H91.0907V408.254H91.0481C90.9795 408.392 90.8765 408.527 90.7392 408.659C90.6019 408.792 90.4255 408.902 90.21 408.989C89.9946 409.077 89.7366 409.121 89.4359 409.121ZM89.6667 408.268C89.9603 408.268 90.2112 408.21 90.4196 408.094C90.6303 407.978 90.7901 407.827 90.899 407.64C91.0102 407.451 91.0659 407.248 91.0659 407.033V406.33C91.028 406.367 90.9546 406.403 90.8457 406.436C90.7392 406.467 90.6172 406.494 90.4799 406.518C90.3426 406.539 90.2089 406.559 90.0787 406.578C89.9484 406.595 89.8395 406.609 89.752 406.621C89.546 406.647 89.3578 406.691 89.1873 406.752C89.0192 406.814 88.8843 406.902 88.7825 407.018C88.6831 407.132 88.6333 407.284 88.6333 407.473C88.6333 407.736 88.7304 407.935 88.9245 408.07C89.1187 408.202 89.3661 408.268 89.6667 408.268ZM93.5419 409V403.545H94.6037V409H93.5419ZM94.0781 402.704C93.8935 402.704 93.7348 402.642 93.6023 402.519C93.4721 402.394 93.407 402.245 93.407 402.072C93.407 401.897 93.4721 401.747 93.6023 401.624C93.7348 401.499 93.8935 401.436 94.0781 401.436C94.2628 401.436 94.4202 401.499 94.5504 401.624C94.683 401.747 94.7493 401.897 94.7493 402.072C94.7493 402.245 94.683 402.394 94.5504 402.519C94.4202 402.642 94.2628 402.704 94.0781 402.704ZM102.134 406.738V403.545H103.199V409H102.155V408.055H102.098C101.973 408.347 101.772 408.589 101.495 408.783C101.22 408.975 100.878 409.071 100.468 409.071C100.118 409.071 99.8079 408.994 99.538 408.84C99.2705 408.684 99.0598 408.453 98.9059 408.148C98.7544 407.842 98.6786 407.465 98.6786 407.015V403.545H99.7404V406.887C99.7404 407.259 99.8434 407.555 100.049 407.775C100.255 407.995 100.523 408.105 100.852 408.105C101.051 408.105 101.248 408.055 101.445 407.956C101.644 407.857 101.808 407.706 101.939 407.505C102.071 407.304 102.136 407.048 102.134 406.738ZM105.688 405.761V409H104.626V403.545H105.645V404.433H105.713C105.838 404.144 106.035 403.912 106.302 403.737C106.572 403.562 106.912 403.474 107.321 403.474C107.693 403.474 108.018 403.553 108.298 403.709C108.577 403.863 108.794 404.092 108.948 404.398C109.102 404.703 109.178 405.081 109.178 405.531V409H108.117V405.658C108.117 405.263 108.014 404.954 107.808 404.732C107.602 404.507 107.319 404.394 106.959 404.394C106.713 404.394 106.494 404.447 106.302 404.554C106.113 404.661 105.962 404.817 105.851 405.023C105.742 405.226 105.688 405.473 105.688 405.761ZM114.836 409.121C114.491 409.121 114.178 409.057 113.899 408.929C113.619 408.799 113.398 408.611 113.235 408.364C113.074 408.118 112.993 407.816 112.993 407.459C112.993 407.151 113.052 406.898 113.171 406.699C113.289 406.5 113.449 406.343 113.65 406.227C113.851 406.111 114.076 406.023 114.325 405.964C114.574 405.905 114.827 405.86 115.085 405.829C115.412 405.791 115.677 405.76 115.88 405.737C116.084 405.71 116.232 405.669 116.324 405.612C116.417 405.555 116.463 405.463 116.463 405.335V405.31C116.463 405 116.375 404.76 116.2 404.589C116.027 404.419 115.769 404.334 115.426 404.334C115.068 404.334 114.787 404.413 114.581 404.572C114.377 404.728 114.236 404.902 114.158 405.094L113.16 404.866C113.279 404.535 113.451 404.268 113.679 404.064C113.908 403.858 114.172 403.709 114.471 403.616C114.769 403.522 115.083 403.474 115.412 403.474C115.629 403.474 115.86 403.5 116.104 403.553C116.35 403.602 116.58 403.695 116.793 403.83C117.008 403.964 117.185 404.157 117.322 404.408C117.459 404.657 117.528 404.98 117.528 405.378V409H116.491V408.254H116.449C116.38 408.392 116.277 408.527 116.14 408.659C116.002 408.792 115.826 408.902 115.61 408.989C115.395 409.077 115.137 409.121 114.836 409.121ZM115.067 408.268C115.361 408.268 115.612 408.21 115.82 408.094C116.031 407.978 116.19 407.827 116.299 407.64C116.411 407.451 116.466 407.248 116.466 407.033V406.33C116.428 406.367 116.355 406.403 116.246 406.436C116.14 406.467 116.018 406.494 115.88 406.518C115.743 406.539 115.609 406.559 115.479 406.578C115.349 406.595 115.24 406.609 115.152 406.621C114.946 406.647 114.758 406.691 114.588 406.752C114.42 406.814 114.285 406.902 114.183 407.018C114.083 407.132 114.034 407.284 114.034 407.473C114.034 407.736 114.131 407.935 114.325 408.07C114.519 408.202 114.766 408.268 115.067 408.268ZM121.24 409.11C120.712 409.11 120.257 408.991 119.876 408.751C119.497 408.51 119.206 408.177 119.003 407.754C118.799 407.33 118.697 406.844 118.697 406.298C118.697 405.744 118.801 405.255 119.01 404.831C119.218 404.405 119.512 404.072 119.89 403.833C120.269 403.594 120.715 403.474 121.229 403.474C121.644 403.474 122.013 403.551 122.337 403.705C122.662 403.857 122.923 404.07 123.122 404.344C123.323 404.619 123.443 404.94 123.481 405.307H122.447C122.39 405.051 122.26 404.831 122.057 404.646C121.855 404.462 121.586 404.369 121.247 404.369C120.951 404.369 120.692 404.447 120.469 404.604C120.249 404.758 120.077 404.978 119.954 405.264C119.831 405.548 119.77 405.884 119.77 406.273C119.77 406.67 119.83 407.014 119.951 407.303C120.072 407.591 120.242 407.815 120.462 407.974C120.685 408.132 120.946 408.212 121.247 408.212C121.448 408.212 121.631 408.175 121.794 408.102C121.96 408.026 122.098 407.918 122.209 407.778C122.323 407.639 122.402 407.471 122.447 407.274H123.481C123.443 407.627 123.328 407.942 123.136 408.219C122.944 408.496 122.688 408.714 122.366 408.872C122.046 409.031 121.671 409.11 121.24 409.11ZM126.914 409.11C126.386 409.11 125.931 408.991 125.55 408.751C125.171 408.51 124.88 408.177 124.676 407.754C124.473 407.33 124.371 406.844 124.371 406.298C124.371 405.744 124.475 405.255 124.684 404.831C124.892 404.405 125.185 404.072 125.564 403.833C125.943 403.594 126.389 403.474 126.903 403.474C127.317 403.474 127.687 403.551 128.011 403.705C128.335 403.857 128.597 404.07 128.796 404.344C128.997 404.619 129.117 404.94 129.154 405.307H128.121C128.064 405.051 127.934 404.831 127.73 404.646C127.529 404.462 127.259 404.369 126.921 404.369C126.625 404.369 126.366 404.447 126.143 404.604C125.923 404.758 125.751 404.978 125.628 405.264C125.505 405.548 125.444 405.884 125.444 406.273C125.444 406.67 125.504 407.014 125.625 407.303C125.745 407.591 125.916 407.815 126.136 407.974C126.359 408.132 126.62 408.212 126.921 408.212C127.122 408.212 127.304 408.175 127.468 408.102C127.633 408.026 127.772 407.918 127.883 407.778C127.997 407.639 128.076 407.471 128.121 407.274H129.154C129.117 407.627 129.002 407.942 128.81 408.219C128.618 408.496 128.361 408.714 128.039 408.872C127.72 409.031 127.345 409.11 126.914 409.11ZM132.588 409.11C132.076 409.11 131.63 408.993 131.249 408.759C130.868 408.524 130.572 408.196 130.361 407.775C130.15 407.353 130.045 406.861 130.045 406.298C130.045 405.732 130.15 405.237 130.361 404.813C130.572 404.389 130.868 404.06 131.249 403.826C131.63 403.592 132.076 403.474 132.588 403.474C133.099 403.474 133.545 403.592 133.926 403.826C134.307 404.06 134.603 404.389 134.814 404.813C135.025 405.237 135.13 405.732 135.13 406.298C135.13 406.861 135.025 407.353 134.814 407.775C134.603 408.196 134.307 408.524 133.926 408.759C133.545 408.993 133.099 409.11 132.588 409.11ZM132.591 408.219C132.923 408.219 133.197 408.131 133.415 407.956C133.633 407.781 133.794 407.548 133.898 407.256C134.004 406.965 134.058 406.644 134.058 406.294C134.058 405.946 134.004 405.626 133.898 405.335C133.794 405.042 133.633 404.806 133.415 404.629C133.197 404.451 132.923 404.362 132.591 404.362C132.257 404.362 131.98 404.451 131.76 404.629C131.542 404.806 131.38 405.042 131.274 405.335C131.169 405.626 131.117 405.946 131.117 406.294C131.117 406.644 131.169 406.965 131.274 407.256C131.38 407.548 131.542 407.781 131.76 407.956C131.98 408.131 132.257 408.219 132.591 408.219ZM139.771 406.738V403.545H140.836V409H139.792V408.055H139.735C139.61 408.347 139.408 408.589 139.131 408.783C138.857 408.975 138.515 409.071 138.105 409.071C137.755 409.071 137.445 408.994 137.175 408.84C136.907 408.684 136.696 408.453 136.543 408.148C136.391 407.842 136.315 407.465 136.315 407.015V403.545H137.377V406.887C137.377 407.259 137.48 407.555 137.686 407.775C137.892 407.995 138.16 408.105 138.489 408.105C138.688 408.105 138.885 408.055 139.082 407.956C139.281 407.857 139.445 407.706 139.575 407.505C139.708 407.304 139.773 407.048 139.771 406.738ZM143.324 405.761V409H142.263V403.545H143.282V404.433H143.349C143.475 404.144 143.671 403.912 143.939 403.737C144.209 403.562 144.548 403.474 144.958 403.474C145.33 403.474 145.655 403.553 145.934 403.709C146.214 403.863 146.43 404.092 146.584 404.398C146.738 404.703 146.815 405.081 146.815 405.531V409H145.753V405.658C145.753 405.263 145.65 404.954 145.444 404.732C145.238 404.507 144.956 404.394 144.596 404.394C144.349 404.394 144.131 404.447 143.939 404.554C143.749 404.661 143.599 404.817 143.488 405.023C143.379 405.226 143.324 405.473 143.324 405.761ZM150.785 403.545V404.398H147.806V403.545H150.785ZM148.605 402.239H149.667V407.398C149.667 407.604 149.698 407.759 149.759 407.864C149.821 407.965 149.9 408.035 149.997 408.073C150.096 408.109 150.204 408.126 150.32 408.126C150.405 408.126 150.48 408.121 150.544 408.109C150.608 408.097 150.657 408.087 150.693 408.08L150.885 408.957C150.823 408.981 150.736 409.005 150.622 409.028C150.508 409.054 150.366 409.069 150.196 409.071C149.916 409.076 149.656 409.026 149.415 408.922C149.173 408.818 148.978 408.657 148.829 408.439C148.68 408.221 148.605 407.948 148.605 407.619V402.239ZM153.121 406.908V406.841C153.126 406.401 153.17 406.05 153.252 405.79C153.338 405.529 153.458 405.319 153.615 405.158C153.771 404.997 153.959 404.85 154.179 404.717C154.321 404.627 154.449 404.527 154.563 404.415C154.676 404.304 154.766 404.176 154.833 404.032C154.899 403.888 154.932 403.728 154.932 403.553C154.932 403.342 154.882 403.16 154.783 403.006C154.684 402.852 154.551 402.733 154.385 402.651C154.222 402.565 154.04 402.523 153.838 402.523C153.656 402.523 153.482 402.561 153.316 402.636C153.151 402.712 153.013 402.83 152.904 402.991C152.796 403.15 152.733 403.355 152.716 403.606H151.637C151.653 403.18 151.761 402.82 151.96 402.526C152.159 402.23 152.422 402.007 152.748 401.855C153.077 401.704 153.441 401.628 153.838 401.628C154.274 401.628 154.655 401.71 154.982 401.873C155.309 402.034 155.562 402.26 155.742 402.551C155.924 402.84 156.015 403.177 156.015 403.563C156.015 403.828 155.974 404.067 155.891 404.281C155.808 404.491 155.69 404.679 155.536 404.845C155.384 405.011 155.202 405.158 154.989 405.286C154.788 405.411 154.624 405.541 154.499 405.676C154.376 405.811 154.286 405.971 154.229 406.156C154.172 406.34 154.141 406.569 154.137 406.841V406.908H153.121ZM153.657 409.067C153.463 409.067 153.296 408.999 153.157 408.862C153.017 408.722 152.947 408.554 152.947 408.357C152.947 408.163 153.017 407.997 153.157 407.86C153.296 407.72 153.463 407.651 153.657 407.651C153.849 407.651 154.015 407.72 154.154 407.86C154.297 407.997 154.368 408.163 154.368 408.357C154.368 408.487 154.334 408.607 154.268 408.716C154.204 408.822 154.119 408.908 154.012 408.972C153.906 409.036 153.788 409.067 153.657 409.067Z" fill="#333437" fill-opacity="0.7"/>
<path d="M159.799 410V402.727H162.391C162.955 402.727 163.422 402.824 163.794 403.018C164.168 403.213 164.447 403.481 164.632 403.825C164.817 404.165 164.909 404.56 164.909 405.007C164.909 405.452 164.816 405.844 164.629 406.183C164.444 406.519 164.165 406.78 163.79 406.967C163.419 407.154 162.951 407.248 162.388 407.248H160.424V406.303H162.288C162.643 406.303 162.932 406.252 163.155 406.151C163.38 406.049 163.544 405.901 163.648 405.707C163.753 405.513 163.805 405.279 163.805 405.007C163.805 404.732 163.751 404.495 163.645 404.293C163.541 404.092 163.376 403.938 163.151 403.832C162.929 403.723 162.636 403.668 162.274 403.668H160.896V410H159.799ZM163.389 406.719L165.186 410H163.936L162.175 406.719H163.389ZM168.442 410.11C167.904 410.11 167.441 409.995 167.053 409.766C166.667 409.534 166.369 409.208 166.158 408.789C165.95 408.368 165.846 407.874 165.846 407.308C165.846 406.75 165.95 406.257 166.158 405.831C166.369 405.405 166.662 405.072 167.039 404.833C167.418 404.594 167.86 404.474 168.367 404.474C168.675 404.474 168.973 404.525 169.262 404.627C169.551 404.729 169.81 404.889 170.04 405.107C170.269 405.324 170.45 405.607 170.583 405.955C170.715 406.301 170.782 406.721 170.782 407.216V407.592H166.446V406.797H169.741C169.741 406.518 169.684 406.27 169.571 406.055C169.457 405.837 169.297 405.665 169.091 405.54C168.888 405.414 168.649 405.352 168.374 405.352C168.076 405.352 167.815 405.425 167.593 405.572C167.373 405.716 167.202 405.906 167.081 406.14C166.963 406.372 166.904 406.624 166.904 406.896V407.518C166.904 407.882 166.968 408.192 167.096 408.448C167.226 408.704 167.407 408.899 167.639 409.034C167.871 409.167 168.142 409.233 168.452 409.233C168.653 409.233 168.837 409.205 169.003 409.148C169.168 409.089 169.312 409.001 169.432 408.885C169.553 408.769 169.645 408.626 169.709 408.455L170.714 408.636C170.634 408.932 170.489 409.192 170.281 409.414C170.075 409.634 169.816 409.806 169.503 409.929C169.193 410.05 168.839 410.11 168.442 410.11ZM174.247 412.159C173.814 412.159 173.441 412.102 173.128 411.989C172.818 411.875 172.565 411.725 172.368 411.538C172.172 411.351 172.025 411.146 171.928 410.923L172.841 410.547C172.904 410.651 172.99 410.761 173.096 410.877C173.205 410.996 173.352 411.096 173.537 411.179C173.724 411.262 173.964 411.303 174.257 411.303C174.66 411.303 174.993 411.205 175.255 411.009C175.518 410.814 175.65 410.504 175.65 410.078V409.006H175.582C175.518 409.122 175.426 409.251 175.305 409.393C175.187 409.535 175.023 409.658 174.815 409.762C174.607 409.866 174.336 409.918 174.002 409.918C173.571 409.918 173.183 409.818 172.837 409.616C172.494 409.413 172.221 409.113 172.02 408.718C171.821 408.32 171.722 407.831 171.722 407.251C171.722 406.671 171.82 406.174 172.017 405.76C172.216 405.346 172.488 405.028 172.833 404.808C173.179 404.586 173.571 404.474 174.009 404.474C174.347 404.474 174.621 404.531 174.829 404.645C175.038 404.756 175.2 404.886 175.316 405.036C175.434 405.185 175.525 405.316 175.589 405.43H175.667V404.545H176.708V410.121C176.708 410.589 176.599 410.974 176.381 411.275C176.163 411.576 175.868 411.798 175.497 411.942C175.127 412.087 174.711 412.159 174.247 412.159ZM174.236 409.038C174.542 409.038 174.8 408.967 175.01 408.825C175.223 408.68 175.384 408.474 175.493 408.207C175.605 407.937 175.66 407.614 175.66 407.237C175.66 406.87 175.606 406.547 175.497 406.268C175.388 405.988 175.228 405.771 175.017 405.614C174.807 405.456 174.546 405.376 174.236 405.376C173.917 405.376 173.65 405.459 173.437 405.625C173.224 405.788 173.063 406.011 172.954 406.293C172.848 406.574 172.794 406.889 172.794 407.237C172.794 407.595 172.849 407.908 172.958 408.178C173.067 408.448 173.228 408.659 173.441 408.81C173.656 408.962 173.921 409.038 174.236 409.038ZM178.132 410V404.545H179.194V410H178.132ZM178.668 403.704C178.483 403.704 178.325 403.642 178.192 403.519C178.062 403.394 177.997 403.245 177.997 403.072C177.997 402.897 178.062 402.747 178.192 402.624C178.325 402.499 178.483 402.436 178.668 402.436C178.853 402.436 179.01 402.499 179.14 402.624C179.273 402.747 179.339 402.897 179.339 403.072C179.339 403.245 179.273 403.394 179.14 403.519C179.01 403.642 178.853 403.704 178.668 403.704ZM184.709 405.877L183.747 406.048C183.707 405.924 183.643 405.807 183.555 405.696C183.47 405.585 183.354 405.494 183.207 405.423C183.06 405.352 182.877 405.316 182.657 405.316C182.356 405.316 182.105 405.384 181.904 405.518C181.703 405.651 181.602 405.823 181.602 406.033C181.602 406.216 181.67 406.362 181.805 406.474C181.939 406.585 182.157 406.676 182.458 406.747L183.324 406.946C183.826 407.062 184.2 407.241 184.447 407.482C184.693 407.724 184.816 408.037 184.816 408.423C184.816 408.75 184.721 409.041 184.532 409.297C184.345 409.55 184.083 409.749 183.747 409.893C183.413 410.038 183.026 410.11 182.586 410.11C181.975 410.11 181.477 409.98 181.091 409.719C180.705 409.457 180.468 409.084 180.381 408.601L181.407 408.445C181.471 408.712 181.602 408.915 181.801 409.052C182 409.187 182.259 409.254 182.579 409.254C182.927 409.254 183.205 409.182 183.413 409.038C183.622 408.891 183.726 408.712 183.726 408.501C183.726 408.331 183.662 408.188 183.534 408.072C183.408 407.956 183.215 407.868 182.955 407.809L182.032 407.607C181.523 407.491 181.146 407.306 180.903 407.053C180.661 406.799 180.54 406.478 180.54 406.09C180.54 405.768 180.63 405.487 180.81 405.245C180.99 405.004 181.239 404.815 181.556 404.68C181.873 404.543 182.237 404.474 182.646 404.474C183.236 404.474 183.7 404.602 184.038 404.858C184.377 405.111 184.6 405.451 184.709 405.877ZM188.529 404.545V405.398H185.55V404.545H188.529ZM186.349 403.239H187.411V408.398C187.411 408.604 187.442 408.759 187.503 408.864C187.565 408.965 187.644 409.035 187.741 409.073C187.841 409.109 187.948 409.126 188.064 409.126C188.15 409.126 188.224 409.121 188.288 409.109C188.352 409.097 188.402 409.087 188.437 409.08L188.629 409.957C188.567 409.981 188.48 410.005 188.366 410.028C188.252 410.054 188.11 410.069 187.94 410.071C187.661 410.076 187.4 410.026 187.159 409.922C186.917 409.818 186.722 409.657 186.573 409.439C186.424 409.221 186.349 408.948 186.349 408.619V403.239ZM189.704 410V404.545H190.73V405.412H190.787C190.887 405.118 191.062 404.888 191.313 404.719C191.566 404.549 191.852 404.464 192.172 404.464C192.238 404.464 192.316 404.466 192.406 404.471C192.499 404.476 192.571 404.482 192.623 404.489V405.504C192.58 405.492 192.505 405.479 192.396 405.465C192.287 405.449 192.178 405.44 192.069 405.44C191.818 405.44 191.594 405.494 191.398 405.6C191.204 405.704 191.05 405.85 190.936 406.037C190.823 406.222 190.766 406.432 190.766 406.669V410H189.704ZM195.08 410.121C194.735 410.121 194.422 410.057 194.143 409.929C193.864 409.799 193.642 409.611 193.479 409.364C193.318 409.118 193.237 408.816 193.237 408.459C193.237 408.151 193.297 407.898 193.415 407.699C193.533 407.5 193.693 407.343 193.894 407.227C194.096 407.111 194.32 407.023 194.569 406.964C194.818 406.905 195.071 406.86 195.329 406.829C195.656 406.791 195.921 406.76 196.124 406.737C196.328 406.71 196.476 406.669 196.568 406.612C196.661 406.555 196.707 406.463 196.707 406.335V406.31C196.707 406 196.619 405.76 196.444 405.589C196.271 405.419 196.013 405.334 195.67 405.334C195.312 405.334 195.031 405.413 194.825 405.572C194.621 405.728 194.48 405.902 194.402 406.094L193.404 405.866C193.523 405.535 193.695 405.268 193.923 405.064C194.152 404.858 194.416 404.709 194.715 404.616C195.013 404.522 195.327 404.474 195.656 404.474C195.874 404.474 196.104 404.5 196.348 404.553C196.594 404.602 196.824 404.695 197.037 404.83C197.253 404.964 197.429 405.157 197.566 405.408C197.704 405.657 197.772 405.98 197.772 406.378V410H196.735V409.254H196.693C196.624 409.392 196.521 409.527 196.384 409.659C196.246 409.792 196.07 409.902 195.855 409.989C195.639 410.077 195.381 410.121 195.08 410.121ZM195.311 409.268C195.605 409.268 195.856 409.21 196.064 409.094C196.275 408.978 196.435 408.827 196.544 408.64C196.655 408.451 196.71 408.248 196.71 408.033V407.33C196.673 407.367 196.599 407.403 196.49 407.436C196.384 407.467 196.262 407.494 196.124 407.518C195.987 407.539 195.853 407.559 195.723 407.578C195.593 407.595 195.484 407.609 195.396 407.621C195.191 407.647 195.002 407.691 194.832 407.752C194.664 407.814 194.529 407.902 194.427 408.018C194.328 408.132 194.278 408.284 194.278 408.473C194.278 408.736 194.375 408.935 194.569 409.07C194.763 409.202 195.011 409.268 195.311 409.268ZM201.733 404.545V405.398H198.753V404.545H201.733ZM199.552 403.239H200.614V408.398C200.614 408.604 200.645 408.759 200.706 408.864C200.768 408.965 200.847 409.035 200.944 409.073C201.044 409.109 201.151 409.126 201.267 409.126C201.353 409.126 201.427 409.121 201.491 409.109C201.555 409.097 201.605 409.087 201.64 409.08L201.832 409.957C201.77 409.981 201.683 410.005 201.569 410.028C201.456 410.054 201.314 410.069 201.143 410.071C200.864 410.076 200.603 410.026 200.362 409.922C200.12 409.818 199.925 409.657 199.776 409.439C199.627 409.221 199.552 408.948 199.552 408.619V403.239ZM202.907 410V404.545H203.969V410H202.907ZM203.443 403.704C203.259 403.704 203.1 403.642 202.968 403.519C202.837 403.394 202.772 403.245 202.772 403.072C202.772 402.897 202.837 402.747 202.968 402.624C203.1 402.499 203.259 402.436 203.443 402.436C203.628 402.436 203.785 402.499 203.916 402.624C204.048 402.747 204.115 402.897 204.115 403.072C204.115 403.245 204.048 403.394 203.916 403.519C203.785 403.642 203.628 403.704 203.443 403.704Z" fill="#38A0FF"/>
<path d="M99.8188 215H98.0716L101.997 204.091H103.899L107.825 215H106.078L102.993 206.072H102.908L99.8188 215ZM100.112 210.728H105.779V212.113H100.112V210.728ZM112.587 215.165C111.795 215.165 111.113 214.986 110.541 214.627C109.973 214.265 109.536 213.766 109.231 213.13C108.926 212.495 108.773 211.767 108.773 210.946C108.773 210.115 108.929 209.382 109.242 208.746C109.554 208.107 109.995 207.608 110.563 207.25C111.131 206.891 111.8 206.712 112.571 206.712C113.192 206.712 113.746 206.827 114.233 207.058C114.719 207.285 115.112 207.605 115.41 208.017C115.712 208.429 115.891 208.91 115.948 209.46H114.398C114.313 209.077 114.117 208.746 113.812 208.469C113.51 208.192 113.105 208.054 112.598 208.054C112.154 208.054 111.765 208.171 111.431 208.406C111.101 208.636 110.843 208.967 110.659 209.396C110.474 209.822 110.382 210.327 110.382 210.909C110.382 211.506 110.472 212.021 110.653 212.454C110.834 212.887 111.09 213.223 111.42 213.461C111.754 213.699 112.147 213.817 112.598 213.817C112.899 213.817 113.173 213.762 113.418 213.652C113.666 213.539 113.874 213.377 114.041 213.168C114.212 212.958 114.33 212.706 114.398 212.411H115.948C115.891 212.94 115.719 213.413 115.431 213.828C115.144 214.244 114.758 214.57 114.275 214.808C113.796 215.046 113.233 215.165 112.587 215.165ZM121.098 215.165C120.306 215.165 119.624 214.986 119.052 214.627C118.484 214.265 118.047 213.766 117.742 213.13C117.436 212.495 117.284 211.767 117.284 210.946C117.284 210.115 117.44 209.382 117.752 208.746C118.065 208.107 118.505 207.608 119.073 207.25C119.642 206.891 120.311 206.712 121.082 206.712C121.703 206.712 122.257 206.827 122.744 207.058C123.23 207.285 123.622 207.605 123.921 208.017C124.223 208.429 124.402 208.91 124.459 209.46H122.909C122.823 209.077 122.628 208.746 122.323 208.469C122.021 208.192 121.616 208.054 121.108 208.054C120.664 208.054 120.276 208.171 119.942 208.406C119.611 208.636 119.354 208.967 119.169 209.396C118.985 209.822 118.892 210.327 118.892 210.909C118.892 211.506 118.983 212.021 119.164 212.454C119.345 212.887 119.601 213.223 119.931 213.461C120.265 213.699 120.657 213.817 121.108 213.817C121.41 213.817 121.684 213.762 121.929 213.652C122.177 213.539 122.385 213.377 122.552 213.168C122.722 212.958 122.841 212.706 122.909 212.411H124.459C124.402 212.94 124.23 213.413 123.942 213.828C123.654 214.244 123.269 214.57 122.786 214.808C122.307 215.046 121.744 215.165 121.098 215.165ZM129.688 215.165C128.882 215.165 128.188 214.993 127.606 214.648C127.027 214.3 126.579 213.812 126.263 213.184C125.951 212.551 125.794 211.811 125.794 210.962C125.794 210.124 125.951 209.386 126.263 208.746C126.579 208.107 127.02 207.608 127.584 207.25C128.152 206.891 128.816 206.712 129.576 206.712C130.038 206.712 130.485 206.788 130.919 206.941C131.352 207.093 131.741 207.333 132.085 207.66C132.43 207.987 132.701 208.411 132.9 208.933C133.099 209.451 133.199 210.082 133.199 210.824V211.388H126.695V210.195H131.638C131.638 209.776 131.553 209.405 131.382 209.082C131.212 208.755 130.972 208.498 130.663 208.31C130.358 208.121 129.999 208.027 129.587 208.027C129.14 208.027 128.749 208.137 128.415 208.358C128.085 208.574 127.829 208.858 127.648 209.21C127.471 209.558 127.382 209.936 127.382 210.344V211.277C127.382 211.824 127.478 212.289 127.669 212.672C127.865 213.056 128.136 213.349 128.484 213.551C128.832 213.75 129.239 213.849 129.704 213.849C130.006 213.849 130.281 213.807 130.53 213.722C130.778 213.633 130.993 213.501 131.174 213.327C131.356 213.153 131.494 212.939 131.59 212.683L133.097 212.955C132.977 213.398 132.76 213.787 132.447 214.121C132.139 214.451 131.75 214.709 131.281 214.893C130.816 215.075 130.285 215.165 129.688 215.165ZM138.029 215.16C137.368 215.16 136.779 214.991 136.26 214.654C135.745 214.313 135.34 213.828 135.046 213.2C134.754 212.567 134.609 211.809 134.609 210.925C134.609 210.041 134.756 209.284 135.051 208.656C135.349 208.027 135.758 207.546 136.276 207.212C136.795 206.879 137.382 206.712 138.039 206.712C138.547 206.712 138.955 206.797 139.264 206.967C139.577 207.134 139.818 207.33 139.989 207.553C140.163 207.777 140.298 207.974 140.394 208.145H140.489V204.091H142.082V215H140.527V213.727H140.394C140.298 213.901 140.159 214.1 139.978 214.324C139.801 214.547 139.556 214.743 139.243 214.909C138.931 215.076 138.526 215.16 138.029 215.16ZM138.38 213.801C138.838 213.801 139.225 213.681 139.541 213.439C139.861 213.194 140.102 212.855 140.266 212.422C140.433 211.989 140.516 211.484 140.516 210.909C140.516 210.341 140.434 209.844 140.271 209.418C140.108 208.991 139.868 208.659 139.552 208.422C139.236 208.184 138.845 208.065 138.38 208.065C137.901 208.065 137.501 208.189 137.182 208.438C136.862 208.686 136.621 209.025 136.457 209.455C136.297 209.885 136.217 210.369 136.217 210.909C136.217 211.456 136.299 211.948 136.462 212.385C136.626 212.821 136.867 213.168 137.187 213.423C137.51 213.675 137.908 213.801 138.38 213.801ZM144.355 215V206.818H145.948V215H144.355ZM145.16 205.556C144.883 205.556 144.645 205.463 144.446 205.279C144.251 205.091 144.153 204.867 144.153 204.608C144.153 204.345 144.251 204.121 144.446 203.936C144.645 203.748 144.883 203.654 145.16 203.654C145.437 203.654 145.673 203.748 145.868 203.936C146.067 204.121 146.166 204.345 146.166 204.608C146.166 204.867 146.067 205.091 145.868 205.279C145.673 205.463 145.437 205.556 145.16 205.556ZM152.06 218.068V206.818H153.616V208.145H153.749C153.841 207.974 153.974 207.777 154.148 207.553C154.322 207.33 154.564 207.134 154.873 206.967C155.182 206.797 155.59 206.712 156.098 206.712C156.759 206.712 157.348 206.879 157.867 207.212C158.385 207.546 158.792 208.027 159.086 208.656C159.385 209.284 159.534 210.041 159.534 210.925C159.534 211.809 159.386 212.567 159.092 213.2C158.797 213.828 158.392 214.313 157.877 214.654C157.362 214.991 156.775 215.16 156.114 215.16C155.617 215.16 155.21 215.076 154.894 214.909C154.582 214.743 154.337 214.547 154.159 214.324C153.982 214.1 153.845 213.901 153.749 213.727H153.653V218.068H152.06ZM153.621 210.909C153.621 211.484 153.705 211.989 153.871 212.422C154.038 212.855 154.28 213.194 154.596 213.439C154.912 213.681 155.299 213.801 155.757 213.801C156.233 213.801 156.631 213.675 156.95 213.423C157.27 213.168 157.511 212.821 157.675 212.385C157.842 211.948 157.925 211.456 157.925 210.909C157.925 210.369 157.843 209.885 157.68 209.455C157.52 209.025 157.279 208.686 156.956 208.438C156.636 208.189 156.237 208.065 155.757 208.065C155.295 208.065 154.905 208.184 154.585 208.422C154.269 208.659 154.03 208.991 153.866 209.418C153.703 209.844 153.621 210.341 153.621 210.909ZM164.845 215.165C164.038 215.165 163.344 214.993 162.762 214.648C162.183 214.3 161.735 213.812 161.419 213.184C161.107 212.551 160.951 211.811 160.951 210.962C160.951 210.124 161.107 209.386 161.419 208.746C161.735 208.107 162.176 207.608 162.74 207.25C163.309 206.891 163.973 206.712 164.733 206.712C165.194 206.712 165.642 206.788 166.075 206.941C166.508 207.093 166.897 207.333 167.242 207.66C167.586 207.987 167.858 208.411 168.057 208.933C168.255 209.451 168.355 210.082 168.355 210.824V211.388H161.851V210.195H166.794C166.794 209.776 166.709 209.405 166.538 209.082C166.368 208.755 166.128 208.498 165.819 208.31C165.514 208.121 165.155 208.027 164.743 208.027C164.296 208.027 163.905 208.137 163.571 208.358C163.241 208.574 162.985 208.858 162.804 209.21C162.627 209.558 162.538 209.936 162.538 210.344V211.277C162.538 211.824 162.634 212.289 162.826 212.672C163.021 213.056 163.293 213.349 163.641 213.551C163.989 213.75 164.395 213.849 164.86 213.849C165.162 213.849 165.438 213.807 165.686 213.722C165.935 213.633 166.15 213.501 166.331 213.327C166.512 213.153 166.65 212.939 166.746 212.683L168.254 212.955C168.133 213.398 167.916 213.787 167.604 214.121C167.295 214.451 166.906 214.709 166.437 214.893C165.972 215.075 165.441 215.165 164.845 215.165ZM170.122 215V206.818H171.661V208.118H171.747C171.896 207.678 172.159 207.331 172.535 207.079C172.915 206.824 173.345 206.696 173.824 206.696C173.923 206.696 174.041 206.699 174.176 206.706C174.314 206.713 174.422 206.722 174.5 206.733V208.256C174.437 208.239 174.323 208.219 174.16 208.198C173.996 208.173 173.833 208.161 173.67 208.161C173.293 208.161 172.958 208.24 172.663 208.4C172.372 208.556 172.141 208.775 171.97 209.055C171.8 209.332 171.715 209.648 171.715 210.004V215H170.122ZM183.295 215.165C182.503 215.165 181.821 214.986 181.249 214.627C180.681 214.265 180.244 213.766 179.939 213.13C179.634 212.495 179.481 211.767 179.481 210.946C179.481 210.115 179.637 209.382 179.95 208.746C180.262 208.107 180.703 207.608 181.271 207.25C181.839 206.891 182.508 206.712 183.279 206.712C183.9 206.712 184.454 206.827 184.941 207.058C185.427 207.285 185.82 207.605 186.118 208.017C186.42 208.429 186.599 208.91 186.656 209.46H185.106C185.021 209.077 184.825 208.746 184.52 208.469C184.218 208.192 183.813 208.054 183.306 208.054C182.862 208.054 182.473 208.171 182.139 208.406C181.809 208.636 181.551 208.967 181.367 209.396C181.182 209.822 181.09 210.327 181.09 210.909C181.09 211.506 181.18 212.021 181.361 212.454C181.542 212.887 181.798 213.223 182.128 213.461C182.462 213.699 182.855 213.817 183.306 213.817C183.607 213.817 183.881 213.762 184.126 213.652C184.374 213.539 184.582 213.377 184.749 213.168C184.92 212.958 185.038 212.706 185.106 212.411H186.656C186.599 212.94 186.427 213.413 186.139 213.828C185.852 214.244 185.466 214.57 184.983 214.808C184.504 215.046 183.941 215.165 183.295 215.165ZM191.806 215.165C191.039 215.165 190.369 214.989 189.797 214.638C189.226 214.286 188.782 213.794 188.466 213.162C188.15 212.53 187.992 211.792 187.992 210.946C187.992 210.098 188.15 209.355 188.466 208.72C188.782 208.084 189.226 207.591 189.797 207.239C190.369 206.887 191.039 206.712 191.806 206.712C192.573 206.712 193.242 206.887 193.814 207.239C194.386 207.591 194.829 208.084 195.145 208.72C195.462 209.355 195.62 210.098 195.62 210.946C195.62 211.792 195.462 212.53 195.145 213.162C194.829 213.794 194.386 214.286 193.814 214.638C193.242 214.989 192.573 215.165 191.806 215.165ZM191.811 213.828C192.308 213.828 192.72 213.697 193.047 213.434C193.373 213.171 193.615 212.821 193.771 212.385C193.931 211.948 194.011 211.467 194.011 210.941C194.011 210.419 193.931 209.94 193.771 209.503C193.615 209.062 193.373 208.709 193.047 208.443C192.72 208.176 192.308 208.043 191.811 208.043C191.31 208.043 190.895 208.176 190.564 208.443C190.238 208.709 189.995 209.062 189.835 209.503C189.678 209.94 189.6 210.419 189.6 210.941C189.6 211.467 189.678 211.948 189.835 212.385C189.995 212.821 190.238 213.171 190.564 213.434C190.895 213.697 191.31 213.828 191.811 213.828ZM198.99 210.142V215H197.397V206.818H198.926V208.15H199.027C199.216 207.717 199.51 207.369 199.912 207.106C200.316 206.843 200.826 206.712 201.44 206.712C201.998 206.712 202.486 206.829 202.905 207.063C203.324 207.294 203.649 207.638 203.88 208.097C204.111 208.555 204.226 209.121 204.226 209.796V215H202.633V209.988C202.633 209.395 202.479 208.931 202.17 208.597C201.861 208.26 201.437 208.091 200.897 208.091C200.528 208.091 200.199 208.171 199.912 208.331C199.627 208.491 199.402 208.725 199.235 209.034C199.072 209.339 198.99 209.709 198.99 210.142ZM210.181 206.818V208.097H205.712V206.818H210.181ZM206.911 204.858H208.504V212.598C208.504 212.907 208.55 213.139 208.642 213.295C208.734 213.448 208.853 213.553 208.999 213.61C209.148 213.663 209.31 213.69 209.484 213.69C209.611 213.69 209.723 213.681 209.819 213.663C209.915 213.645 209.99 213.631 210.043 213.62L210.331 214.936C210.238 214.972 210.107 215.007 209.936 215.043C209.766 215.082 209.553 215.103 209.297 215.107C208.878 215.114 208.488 215.039 208.125 214.883C207.763 214.727 207.47 214.485 207.246 214.158C207.023 213.832 206.911 213.422 206.911 212.928V204.858ZM211.943 215V206.818H213.536V215H211.943ZM212.748 205.556C212.471 205.556 212.233 205.463 212.034 205.279C211.838 205.091 211.741 204.867 211.741 204.608C211.741 204.345 211.838 204.121 212.034 203.936C212.233 203.748 212.471 203.654 212.748 203.654C213.025 203.654 213.261 203.748 213.456 203.936C213.655 204.121 213.754 204.345 213.754 204.608C213.754 204.867 213.655 205.091 213.456 205.279C213.261 205.463 213.025 205.556 212.748 205.556ZM217.271 210.142V215H215.679V206.818H217.207V208.15H217.309C217.497 207.717 217.792 207.369 218.193 207.106C218.598 206.843 219.107 206.712 219.722 206.712C220.279 206.712 220.767 206.829 221.186 207.063C221.605 207.294 221.93 207.638 222.161 208.097C222.392 208.555 222.507 209.121 222.507 209.796V215H220.915V209.988C220.915 209.395 220.76 208.931 220.451 208.597C220.142 208.26 219.718 208.091 219.178 208.091C218.809 208.091 218.48 208.171 218.193 208.331C217.909 208.491 217.683 208.725 217.516 209.034C217.353 209.339 217.271 209.709 217.271 210.142ZM229.826 211.607V206.818H231.424V215H229.858V213.583H229.773C229.585 214.02 229.283 214.384 228.867 214.675C228.456 214.963 227.942 215.107 227.328 215.107C226.803 215.107 226.337 214.991 225.932 214.76C225.531 214.526 225.215 214.18 224.984 213.722C224.757 213.263 224.643 212.697 224.643 212.022V206.818H226.236V211.831C226.236 212.388 226.391 212.832 226.7 213.162C227.008 213.493 227.41 213.658 227.903 213.658C228.202 213.658 228.498 213.583 228.793 213.434C229.091 213.285 229.338 213.059 229.533 212.757C229.732 212.456 229.83 212.072 229.826 211.607ZM235.945 215.181C235.427 215.181 234.958 215.085 234.539 214.893C234.12 214.698 233.788 214.416 233.543 214.047C233.302 213.677 233.181 213.224 233.181 212.688C233.181 212.227 233.27 211.847 233.447 211.548C233.625 211.25 233.864 211.014 234.166 210.84C234.468 210.666 234.805 210.534 235.178 210.446C235.551 210.357 235.931 210.289 236.318 210.243C236.808 210.186 237.206 210.14 237.511 210.105C237.817 210.066 238.039 210.004 238.177 209.918C238.316 209.833 238.385 209.695 238.385 209.503V209.466C238.385 209 238.254 208.64 237.991 208.384C237.732 208.129 237.345 208.001 236.83 208.001C236.293 208.001 235.871 208.12 235.562 208.358C235.256 208.592 235.045 208.853 234.928 209.141L233.431 208.8C233.609 208.303 233.868 207.901 234.209 207.596C234.553 207.287 234.949 207.063 235.397 206.925C235.844 206.783 236.315 206.712 236.808 206.712C237.135 206.712 237.481 206.751 237.847 206.829C238.216 206.903 238.561 207.042 238.88 207.244C239.204 207.447 239.468 207.736 239.674 208.113C239.88 208.485 239.983 208.97 239.983 209.567V215H238.428V213.881H238.364C238.261 214.087 238.106 214.29 237.9 214.489C237.694 214.687 237.43 214.853 237.107 214.984C236.783 215.115 236.396 215.181 235.945 215.181ZM236.292 213.903C236.732 213.903 237.108 213.816 237.421 213.642C237.737 213.468 237.977 213.24 238.14 212.96C238.307 212.676 238.39 212.372 238.39 212.049V210.994C238.333 211.051 238.223 211.104 238.06 211.154C237.9 211.2 237.717 211.241 237.511 211.277C237.305 211.309 237.105 211.339 236.909 211.367C236.714 211.392 236.551 211.413 236.419 211.431C236.11 211.47 235.828 211.536 235.572 211.628C235.32 211.721 235.118 211.854 234.965 212.028C234.816 212.198 234.742 212.425 234.742 212.71C234.742 213.104 234.887 213.402 235.178 213.604C235.47 213.803 235.841 213.903 236.292 213.903ZM242.104 215V206.818H243.644V208.118H243.729C243.878 207.678 244.141 207.331 244.517 207.079C244.897 206.824 245.327 206.696 245.806 206.696C245.906 206.696 246.023 206.699 246.158 206.706C246.296 206.713 246.405 206.722 246.483 206.733V208.256C246.419 208.239 246.305 208.219 246.142 208.198C245.979 208.173 245.815 208.161 245.652 208.161C245.276 208.161 244.94 208.24 244.645 208.4C244.354 208.556 244.123 208.775 243.953 209.055C243.782 209.332 243.697 209.648 243.697 210.004V215H242.104ZM251.095 215.165C250.288 215.165 249.594 214.993 249.012 214.648C248.433 214.3 247.985 213.812 247.669 213.184C247.357 212.551 247.201 211.811 247.201 210.962C247.201 210.124 247.357 209.386 247.669 208.746C247.985 208.107 248.426 207.608 248.99 207.25C249.559 206.891 250.223 206.712 250.983 206.712C251.444 206.712 251.892 206.788 252.325 206.941C252.758 207.093 253.147 207.333 253.492 207.66C253.836 207.987 254.108 208.411 254.307 208.933C254.505 209.451 254.605 210.082 254.605 210.824V211.388H248.101V210.195H253.044C253.044 209.776 252.959 209.405 252.788 209.082C252.618 208.755 252.378 208.498 252.069 208.31C251.764 208.121 251.405 208.027 250.993 208.027C250.546 208.027 250.155 208.137 249.821 208.358C249.491 208.574 249.235 208.858 249.054 209.21C248.877 209.558 248.788 209.936 248.788 210.344V211.277C248.788 211.824 248.884 212.289 249.076 212.672C249.271 213.056 249.543 213.349 249.891 213.551C250.239 213.75 250.645 213.849 251.11 213.849C251.412 213.849 251.688 213.807 251.936 213.722C252.185 213.633 252.4 213.501 252.581 213.327C252.762 213.153 252.9 212.939 252.996 212.683L254.504 212.955C254.383 213.398 254.166 213.787 253.854 214.121C253.545 214.451 253.156 214.709 252.687 214.893C252.222 215.075 251.691 215.165 251.095 215.165Z" fill="#333437" fill-opacity="0.8"/>
<path d="M108.814 183V165.545H115.803C117.087 165.545 118.158 165.736 119.016 166.116C119.874 166.497 120.518 167.026 120.95 167.702C121.382 168.372 121.598 169.145 121.598 170.02C121.598 170.702 121.462 171.301 121.189 171.818C120.916 172.33 120.541 172.75 120.064 173.08C119.592 173.403 119.053 173.634 118.445 173.77V173.94C119.109 173.969 119.732 174.156 120.311 174.503C120.896 174.849 121.371 175.335 121.734 175.96C122.098 176.58 122.28 177.318 122.28 178.176C122.28 179.102 122.05 179.929 121.589 180.656C121.135 181.378 120.462 181.949 119.57 182.369C118.678 182.79 117.578 183 116.271 183H108.814ZM112.504 179.983H115.513C116.541 179.983 117.291 179.787 117.763 179.395C118.234 178.997 118.47 178.469 118.47 177.81C118.47 177.327 118.354 176.901 118.121 176.531C117.888 176.162 117.555 175.872 117.124 175.662C116.697 175.452 116.189 175.347 115.598 175.347H112.504V179.983ZM112.504 172.849H115.24C115.746 172.849 116.195 172.761 116.587 172.585C116.984 172.403 117.297 172.148 117.524 171.818C117.757 171.489 117.874 171.094 117.874 170.634C117.874 170.003 117.649 169.494 117.2 169.108C116.757 168.722 116.126 168.528 115.308 168.528H112.504V172.849ZM130.579 183.256C129.232 183.256 128.073 182.983 127.102 182.438C126.136 181.886 125.391 181.108 124.869 180.102C124.346 179.091 124.085 177.895 124.085 176.514C124.085 175.168 124.346 173.986 124.869 172.969C125.391 171.952 126.127 171.159 127.076 170.591C128.031 170.023 129.15 169.739 130.434 169.739C131.298 169.739 132.102 169.878 132.846 170.156C133.596 170.429 134.249 170.841 134.806 171.392C135.369 171.943 135.806 172.636 136.119 173.472C136.431 174.301 136.587 175.273 136.587 176.386V177.384H125.533V175.134H133.17C133.17 174.611 133.056 174.148 132.829 173.744C132.602 173.341 132.286 173.026 131.883 172.798C131.485 172.565 131.022 172.449 130.494 172.449C129.942 172.449 129.454 172.577 129.028 172.832C128.607 173.082 128.278 173.42 128.039 173.847C127.8 174.267 127.678 174.736 127.673 175.253V177.392C127.673 178.04 127.792 178.599 128.031 179.071C128.275 179.543 128.619 179.906 129.062 180.162C129.505 180.418 130.031 180.545 130.638 180.545C131.042 180.545 131.411 180.489 131.746 180.375C132.082 180.261 132.369 180.091 132.607 179.864C132.846 179.636 133.028 179.358 133.153 179.028L136.511 179.25C136.34 180.057 135.991 180.761 135.462 181.364C134.94 181.96 134.263 182.426 133.434 182.761C132.61 183.091 131.658 183.256 130.579 183.256ZM142.587 175.432V183H138.957V169.909H142.417V172.219H142.57C142.86 171.457 143.346 170.855 144.028 170.412C144.71 169.963 145.536 169.739 146.508 169.739C147.417 169.739 148.21 169.938 148.886 170.335C149.562 170.733 150.087 171.301 150.462 172.04C150.837 172.773 151.025 173.648 151.025 174.665V183H147.394V175.312C147.4 174.511 147.195 173.886 146.781 173.438C146.366 172.983 145.795 172.756 145.067 172.756C144.579 172.756 144.147 172.861 143.772 173.071C143.403 173.281 143.113 173.588 142.903 173.991C142.698 174.389 142.593 174.869 142.587 175.432ZM160.849 169.909V172.636H152.966V169.909H160.849ZM154.756 166.773H158.386V178.977C158.386 179.312 158.438 179.574 158.54 179.761C158.642 179.943 158.784 180.071 158.966 180.145C159.153 180.219 159.369 180.256 159.614 180.256C159.784 180.256 159.955 180.241 160.125 180.213C160.295 180.179 160.426 180.153 160.517 180.136L161.088 182.838C160.906 182.895 160.651 182.96 160.321 183.034C159.991 183.114 159.591 183.162 159.119 183.179C158.244 183.213 157.477 183.097 156.818 182.83C156.165 182.562 155.656 182.148 155.293 181.585C154.929 181.023 154.75 180.312 154.756 179.455V166.773ZM168.989 183.256C167.665 183.256 166.52 182.974 165.554 182.412C164.594 181.844 163.852 181.054 163.33 180.043C162.807 179.026 162.545 177.847 162.545 176.506C162.545 175.153 162.807 173.972 163.33 172.96C163.852 171.943 164.594 171.153 165.554 170.591C166.52 170.023 167.665 169.739 168.989 169.739C170.312 169.739 171.455 170.023 172.415 170.591C173.381 171.153 174.125 171.943 174.648 172.96C175.17 173.972 175.432 175.153 175.432 176.506C175.432 177.847 175.17 179.026 174.648 180.043C174.125 181.054 173.381 181.844 172.415 182.412C171.455 182.974 170.312 183.256 168.989 183.256ZM169.006 180.443C169.608 180.443 170.111 180.273 170.514 179.932C170.918 179.585 171.222 179.114 171.426 178.517C171.636 177.92 171.741 177.241 171.741 176.48C171.741 175.719 171.636 175.04 171.426 174.443C171.222 173.847 170.918 173.375 170.514 173.028C170.111 172.682 169.608 172.509 169.006 172.509C168.398 172.509 167.886 172.682 167.472 173.028C167.063 173.375 166.753 173.847 166.543 174.443C166.338 175.04 166.236 175.719 166.236 176.48C166.236 177.241 166.338 177.92 166.543 178.517C166.753 179.114 167.063 179.585 167.472 179.932C167.886 180.273 168.398 180.443 169.006 180.443ZM177.793 183V169.909H181.312V172.193H181.449C181.688 171.381 182.088 170.767 182.651 170.352C183.213 169.932 183.861 169.722 184.594 169.722C184.776 169.722 184.972 169.733 185.182 169.756C185.392 169.778 185.577 169.81 185.736 169.849V173.071C185.565 173.02 185.33 172.974 185.028 172.935C184.727 172.895 184.452 172.875 184.202 172.875C183.668 172.875 183.19 172.991 182.77 173.224C182.355 173.452 182.026 173.77 181.781 174.179C181.543 174.588 181.423 175.06 181.423 175.594V183H177.793ZM191.244 175.432V183H187.613V169.909H191.073V172.219H191.227C191.516 171.457 192.002 170.855 192.684 170.412C193.366 169.963 194.192 169.739 195.164 169.739C196.073 169.739 196.866 169.938 197.542 170.335C198.218 170.733 198.744 171.301 199.119 172.04C199.494 172.773 199.681 173.648 199.681 174.665V183H196.05V175.312C196.056 174.511 195.852 173.886 195.437 173.438C195.022 172.983 194.451 172.756 193.724 172.756C193.235 172.756 192.803 172.861 192.428 173.071C192.059 173.281 191.769 173.588 191.559 173.991C191.354 174.389 191.249 174.869 191.244 175.432ZM206.276 183.247C205.44 183.247 204.696 183.102 204.043 182.812C203.389 182.517 202.872 182.082 202.491 181.509C202.116 180.929 201.929 180.207 201.929 179.344C201.929 178.616 202.063 178.006 202.33 177.511C202.597 177.017 202.96 176.619 203.42 176.318C203.881 176.017 204.403 175.79 204.989 175.636C205.58 175.483 206.199 175.375 206.847 175.312C207.608 175.233 208.222 175.159 208.688 175.091C209.153 175.017 209.491 174.909 209.702 174.767C209.912 174.625 210.017 174.415 210.017 174.136V174.085C210.017 173.545 209.847 173.128 209.506 172.832C209.17 172.537 208.693 172.389 208.074 172.389C207.42 172.389 206.901 172.534 206.514 172.824C206.128 173.108 205.872 173.466 205.747 173.898L202.389 173.625C202.56 172.83 202.895 172.142 203.395 171.562C203.895 170.977 204.54 170.528 205.33 170.216C206.125 169.898 207.045 169.739 208.091 169.739C208.818 169.739 209.514 169.824 210.179 169.994C210.849 170.165 211.443 170.429 211.96 170.787C212.483 171.145 212.895 171.605 213.196 172.168C213.497 172.724 213.648 173.392 213.648 174.17V183H210.205V181.185H210.102C209.892 181.594 209.611 181.955 209.259 182.267C208.906 182.574 208.483 182.815 207.989 182.991C207.494 183.162 206.923 183.247 206.276 183.247ZM207.315 180.741C207.849 180.741 208.321 180.636 208.73 180.426C209.139 180.21 209.46 179.92 209.693 179.557C209.926 179.193 210.043 178.781 210.043 178.321V176.932C209.929 177.006 209.773 177.074 209.574 177.136C209.381 177.193 209.162 177.247 208.918 177.298C208.673 177.344 208.429 177.386 208.185 177.426C207.94 177.46 207.719 177.491 207.52 177.52C207.094 177.582 206.722 177.682 206.403 177.818C206.085 177.955 205.838 178.139 205.662 178.372C205.486 178.599 205.398 178.884 205.398 179.224C205.398 179.719 205.577 180.097 205.935 180.358C206.298 180.614 206.759 180.741 207.315 180.741ZM223.428 169.909V172.636H215.544V169.909H223.428ZM217.334 166.773H220.964V178.977C220.964 179.312 221.016 179.574 221.118 179.761C221.22 179.943 221.362 180.071 221.544 180.145C221.732 180.219 221.947 180.256 222.192 180.256C222.362 180.256 222.533 180.241 222.703 180.213C222.874 180.179 223.004 180.153 223.095 180.136L223.666 182.838C223.484 182.895 223.229 182.96 222.899 183.034C222.57 183.114 222.169 183.162 221.697 183.179C220.822 183.213 220.055 183.097 219.396 182.83C218.743 182.562 218.234 182.148 217.871 181.585C217.507 181.023 217.328 180.312 217.334 179.455V166.773ZM231.567 183.256C230.243 183.256 229.098 182.974 228.132 182.412C227.172 181.844 226.43 181.054 225.908 180.043C225.385 179.026 225.124 177.847 225.124 176.506C225.124 175.153 225.385 173.972 225.908 172.96C226.43 171.943 227.172 171.153 228.132 170.591C229.098 170.023 230.243 169.739 231.567 169.739C232.891 169.739 234.033 170.023 234.993 170.591C235.959 171.153 236.703 171.943 237.226 172.96C237.749 173.972 238.01 175.153 238.01 176.506C238.01 177.847 237.749 179.026 237.226 180.043C236.703 181.054 235.959 181.844 234.993 182.412C234.033 182.974 232.891 183.256 231.567 183.256ZM231.584 180.443C232.186 180.443 232.689 180.273 233.092 179.932C233.496 179.585 233.8 179.114 234.004 178.517C234.214 177.92 234.32 177.241 234.32 176.48C234.32 175.719 234.214 175.04 234.004 174.443C233.8 173.847 233.496 173.375 233.092 173.028C232.689 172.682 232.186 172.509 231.584 172.509C230.976 172.509 230.464 172.682 230.05 173.028C229.641 173.375 229.331 173.847 229.121 174.443C228.916 175.04 228.814 175.719 228.814 176.48C228.814 177.241 228.916 177.92 229.121 178.517C229.331 179.114 229.641 179.585 230.05 179.932C230.464 180.273 230.976 180.443 231.584 180.443ZM244.709 165.545L244.376 177.767H241.257L240.916 165.545H244.709ZM242.817 183.222C242.254 183.222 241.771 183.023 241.368 182.625C240.964 182.222 240.766 181.739 240.771 181.176C240.766 180.619 240.964 180.142 241.368 179.744C241.771 179.347 242.254 179.148 242.817 179.148C243.357 179.148 243.831 179.347 244.24 179.744C244.649 180.142 244.857 180.619 244.862 181.176C244.857 181.551 244.757 181.895 244.564 182.207C244.376 182.514 244.129 182.761 243.822 182.949C243.516 183.131 243.18 183.222 242.817 183.222Z" fill="#333437" fill-opacity="0.8"/>
<rect x="58.4719" y="355" width="237.725" height="32" rx="8" fill="#38A0FF"/>
<rect x="58.9719" y="355.5" width="236.725" height="31" rx="7.5" stroke="#333437" stroke-opacity="0.5"/>
<path d="M156.158 376H153.851L157.366 365.818H160.14L163.65 376H161.343L158.793 368.145H158.713L156.158 376ZM156.014 371.998H161.463V373.678H156.014V371.998ZM167.931 376.149C167.149 376.149 166.476 375.983 165.912 375.652C165.352 375.317 164.921 374.853 164.62 374.26C164.321 373.667 164.172 372.984 164.172 372.212C164.172 371.429 164.323 370.743 164.625 370.153C164.93 369.56 165.362 369.098 165.922 368.766C166.482 368.432 167.149 368.264 167.921 368.264C168.587 368.264 169.17 368.385 169.671 368.627C170.171 368.869 170.567 369.209 170.859 369.646C171.151 370.084 171.311 370.598 171.341 371.188H169.343C169.286 370.806 169.137 370.5 168.895 370.268C168.657 370.032 168.343 369.915 167.956 369.915C167.627 369.915 167.341 370.004 167.095 370.183C166.854 370.359 166.665 370.616 166.529 370.954C166.393 371.292 166.325 371.701 166.325 372.182C166.325 372.669 166.391 373.083 166.524 373.425C166.66 373.766 166.85 374.026 167.095 374.205C167.341 374.384 167.627 374.474 167.956 374.474C168.198 374.474 168.415 374.424 168.607 374.325C168.802 374.225 168.963 374.081 169.089 373.892C169.218 373.7 169.303 373.469 169.343 373.201H171.341C171.308 373.784 171.149 374.298 170.864 374.742C170.582 375.183 170.193 375.528 169.696 375.776C169.198 376.025 168.61 376.149 167.931 376.149ZM176.148 376.149C175.365 376.149 174.692 375.983 174.129 375.652C173.569 375.317 173.138 374.853 172.836 374.26C172.538 373.667 172.389 372.984 172.389 372.212C172.389 371.429 172.54 370.743 172.841 370.153C173.146 369.56 173.579 369.098 174.139 368.766C174.699 368.432 175.365 368.264 176.138 368.264C176.804 368.264 177.387 368.385 177.888 368.627C178.388 368.869 178.784 369.209 179.076 369.646C179.367 370.084 179.528 370.598 179.558 371.188H177.559C177.503 370.806 177.354 370.5 177.112 370.268C176.873 370.032 176.56 369.915 176.172 369.915C175.844 369.915 175.558 370.004 175.312 370.183C175.07 370.359 174.881 370.616 174.746 370.954C174.61 371.292 174.542 371.701 174.542 372.182C174.542 372.669 174.608 373.083 174.741 373.425C174.876 373.766 175.067 374.026 175.312 374.205C175.558 374.384 175.844 374.474 176.172 374.474C176.414 374.474 176.631 374.424 176.824 374.325C177.019 374.225 177.18 374.081 177.306 373.892C177.435 373.7 177.52 373.469 177.559 373.201H179.558C179.525 373.784 179.366 374.298 179.081 374.742C178.799 375.183 178.41 375.528 177.912 375.776C177.415 376.025 176.827 376.149 176.148 376.149ZM184.394 376.149C183.609 376.149 182.932 375.99 182.366 375.672C181.802 375.35 181.368 374.896 181.063 374.31C180.758 373.72 180.606 373.022 180.606 372.217C180.606 371.431 180.758 370.742 181.063 370.148C181.368 369.555 181.797 369.093 182.351 368.761C182.908 368.43 183.561 368.264 184.31 368.264C184.813 368.264 185.282 368.345 185.717 368.508C186.154 368.667 186.535 368.907 186.86 369.229C187.188 369.55 187.443 369.955 187.626 370.442C187.808 370.926 187.899 371.492 187.899 372.142V372.724H181.451V371.411H185.905C185.905 371.106 185.839 370.836 185.707 370.601C185.574 370.366 185.39 370.182 185.155 370.049C184.923 369.913 184.653 369.845 184.344 369.845C184.023 369.845 183.738 369.92 183.489 370.069C183.244 370.215 183.052 370.412 182.913 370.661C182.773 370.906 182.702 371.179 182.699 371.481V372.729C182.699 373.107 182.768 373.433 182.908 373.708C183.05 373.983 183.251 374.195 183.509 374.344C183.768 374.494 184.074 374.568 184.429 374.568C184.664 374.568 184.88 374.535 185.075 374.469C185.271 374.402 185.438 374.303 185.577 374.17C185.717 374.038 185.823 373.875 185.896 373.683L187.854 373.812C187.755 374.283 187.551 374.694 187.243 375.045C186.938 375.393 186.544 375.665 186.06 375.861C185.579 376.053 185.024 376.149 184.394 376.149ZM192.095 376.124C191.515 376.124 190.99 375.975 190.519 375.677C190.052 375.375 189.681 374.933 189.405 374.349C189.134 373.763 188.998 373.044 188.998 372.192C188.998 371.317 189.139 370.589 189.42 370.009C189.702 369.426 190.077 368.99 190.544 368.702C191.015 368.41 191.53 368.264 192.09 368.264C192.518 368.264 192.874 368.337 193.159 368.483C193.447 368.625 193.679 368.804 193.855 369.02C194.034 369.232 194.17 369.441 194.263 369.646H194.327V365.818H196.44V376H194.352V374.777H194.263C194.163 374.989 194.022 375.2 193.84 375.408C193.661 375.614 193.428 375.785 193.139 375.92C192.854 376.056 192.506 376.124 192.095 376.124ZM192.766 374.439C193.108 374.439 193.396 374.346 193.631 374.161C193.87 373.972 194.052 373.708 194.178 373.37C194.307 373.032 194.372 372.636 194.372 372.182C194.372 371.728 194.309 371.333 194.183 370.999C194.057 370.664 193.875 370.405 193.636 370.223C193.398 370.041 193.108 369.95 192.766 369.95C192.418 369.95 192.125 370.044 191.886 370.233C191.648 370.422 191.467 370.684 191.344 371.018C191.222 371.353 191.16 371.741 191.16 372.182C191.16 372.626 191.222 373.019 191.344 373.36C191.47 373.698 191.651 373.963 191.886 374.156C192.125 374.344 192.418 374.439 192.766 374.439ZM198.182 376V368.364H200.299V376H198.182ZM199.246 367.379C198.931 367.379 198.661 367.275 198.435 367.066C198.213 366.854 198.102 366.6 198.102 366.305C198.102 366.014 198.213 365.763 198.435 365.555C198.661 365.343 198.931 365.237 199.246 365.237C199.56 365.237 199.829 365.343 200.051 365.555C200.276 365.763 200.389 366.014 200.389 366.305C200.389 366.6 200.276 366.854 200.051 367.066C199.829 367.275 199.56 367.379 199.246 367.379Z" fill="white"/>
<rect x="59.275" y="309" width="237.725" height="32" rx="8" fill="white"/>
<rect x="59.775" y="309.5" width="236.725" height="31" rx="7.5" stroke="#333437" stroke-opacity="0.5"/>
<rect x="70" y="309" width="48" height="5" fill="white"/>
<path d="M71.3873 312V304.727H73.9796C74.5454 304.727 75.0142 304.83 75.3859 305.036C75.7575 305.242 76.0357 305.524 76.2204 305.881C76.405 306.237 76.4974 306.637 76.4974 307.082C76.4974 307.529 76.4038 307.932 76.2168 308.289C76.0322 308.644 75.7528 308.926 75.3788 309.134C75.0071 309.34 74.5395 309.443 73.9761 309.443H72.1934V308.513H73.8766C74.2341 308.513 74.5241 308.451 74.7467 308.328C74.9692 308.203 75.1325 308.032 75.2367 307.817C75.3409 307.601 75.393 307.356 75.393 307.082C75.393 306.807 75.3409 306.563 75.2367 306.35C75.1325 306.137 74.968 305.97 74.7431 305.849C74.5206 305.729 74.227 305.668 73.8624 305.668H72.4846V312H71.3873ZM79.2371 312.121C78.8914 312.121 78.5789 312.057 78.2996 311.929C78.0202 311.799 77.7989 311.611 77.6355 311.364C77.4745 311.118 77.394 310.816 77.394 310.459C77.394 310.151 77.4532 309.898 77.5716 309.699C77.69 309.5 77.8498 309.343 78.051 309.227C78.2522 309.111 78.4771 309.023 78.7257 308.964C78.9743 308.905 79.2276 308.86 79.4856 308.829C79.8123 308.791 80.0775 308.76 80.2811 308.737C80.4847 308.71 80.6327 308.669 80.725 308.612C80.8173 308.555 80.8635 308.463 80.8635 308.335V308.31C80.8635 308 80.7759 307.76 80.6007 307.589C80.4279 307.419 80.1698 307.334 79.8266 307.334C79.4691 307.334 79.1873 307.413 78.9814 307.572C78.7778 307.728 78.6369 307.902 78.5588 308.094L77.5609 307.866C77.6793 307.535 77.8521 307.268 78.0794 307.064C78.309 306.858 78.573 306.709 78.8713 306.616C79.1696 306.522 79.4833 306.474 79.8123 306.474C80.0302 306.474 80.261 306.5 80.5048 306.553C80.751 306.602 80.9807 306.695 81.1937 306.83C81.4092 306.964 81.5855 307.157 81.7229 307.408C81.8602 307.657 81.9288 307.98 81.9288 308.378V312H80.8919V311.254H80.8493C80.7806 311.392 80.6776 311.527 80.5403 311.659C80.403 311.792 80.2266 311.902 80.0112 311.989C79.7958 312.077 79.5377 312.121 79.2371 312.121ZM79.4679 311.268C79.7614 311.268 80.0124 311.21 80.2207 311.094C80.4314 310.978 80.5912 310.827 80.7001 310.64C80.8114 310.451 80.867 310.248 80.867 310.033V309.33C80.8292 309.367 80.7558 309.403 80.6469 309.436C80.5403 309.467 80.4184 309.494 80.2811 309.518C80.1438 309.539 80.01 309.559 79.8798 309.578C79.7496 309.595 79.6407 309.609 79.5531 309.621C79.3472 309.647 79.1589 309.691 78.9885 309.752C78.8204 309.814 78.6855 309.902 78.5837 310.018C78.4842 310.132 78.4345 310.284 78.4345 310.473C78.4345 310.736 78.5316 310.935 78.7257 311.07C78.9198 311.202 79.1672 311.268 79.4679 311.268ZM87.4304 307.877L86.4681 308.048C86.4278 307.924 86.3639 307.807 86.2763 307.696C86.1911 307.585 86.0751 307.494 85.9283 307.423C85.7815 307.352 85.598 307.316 85.3779 307.316C85.0772 307.316 84.8263 307.384 84.625 307.518C84.4238 307.651 84.3232 307.823 84.3232 308.033C84.3232 308.216 84.3907 308.362 84.5256 308.474C84.6605 308.585 84.8783 308.676 85.179 308.747L86.0455 308.946C86.5474 309.062 86.9214 309.241 87.1676 309.482C87.4139 309.724 87.537 310.037 87.537 310.423C87.537 310.75 87.4423 311.041 87.2529 311.297C87.0658 311.55 86.8042 311.749 86.4681 311.893C86.1343 312.038 85.7472 312.11 85.3068 312.11C84.696 312.11 84.1977 311.98 83.8118 311.719C83.4259 311.457 83.1892 311.084 83.1016 310.601L84.1279 310.445C84.1918 310.712 84.3232 310.915 84.522 311.052C84.7209 311.187 84.9801 311.254 85.2997 311.254C85.6478 311.254 85.9259 311.182 86.1343 311.038C86.3426 310.891 86.4468 310.712 86.4468 310.501C86.4468 310.331 86.3828 310.188 86.255 310.072C86.1295 309.956 85.9366 309.868 85.6762 309.809L84.7529 309.607C84.2439 309.491 83.8675 309.306 83.6236 309.053C83.3821 308.799 83.2614 308.478 83.2614 308.09C83.2614 307.768 83.3514 307.487 83.5313 307.245C83.7112 307.004 83.9598 306.815 84.277 306.68C84.5942 306.543 84.9576 306.474 85.3672 306.474C85.9567 306.474 86.4207 306.602 86.7593 306.858C87.0978 307.111 87.3215 307.451 87.4304 307.877ZM92.7918 307.877L91.8294 308.048C91.7891 307.924 91.7252 307.807 91.6376 307.696C91.5524 307.585 91.4364 307.494 91.2896 307.423C91.1428 307.352 90.9594 307.316 90.7392 307.316C90.4385 307.316 90.1876 307.384 89.9864 307.518C89.7851 307.651 89.6845 307.823 89.6845 308.033C89.6845 308.216 89.752 308.362 89.8869 308.474C90.0219 308.585 90.2397 308.676 90.5403 308.747L91.4068 308.946C91.9087 309.062 92.2828 309.241 92.529 309.482C92.7752 309.724 92.8983 310.037 92.8983 310.423C92.8983 310.75 92.8036 311.041 92.6142 311.297C92.4272 311.55 92.1656 311.749 91.8294 311.893C91.4956 312.038 91.1085 312.11 90.6682 312.11C90.0574 312.11 89.559 311.98 89.1731 311.719C88.7873 311.457 88.5505 311.084 88.4629 310.601L89.4892 310.445C89.5531 310.712 89.6845 310.915 89.8834 311.052C90.0822 311.187 90.3415 311.254 90.6611 311.254C91.0091 311.254 91.2873 311.182 91.4956 311.038C91.7039 310.891 91.8081 310.712 91.8081 310.501C91.8081 310.331 91.7442 310.188 91.6163 310.072C91.4909 309.956 91.2979 309.868 91.0375 309.809L90.1142 309.607C89.6052 309.491 89.2288 309.306 88.9849 309.053C88.7435 308.799 88.6227 308.478 88.6227 308.09C88.6227 307.768 88.7127 307.487 88.8926 307.245C89.0725 307.004 89.3211 306.815 89.6383 306.68C89.9556 306.543 90.319 306.474 90.7285 306.474C91.318 306.474 91.782 306.602 92.1206 306.858C92.4591 307.111 92.6829 307.451 92.7918 307.877ZM95.2483 312L93.6431 306.545H94.7404L95.8093 310.551H95.8626L96.935 306.545H98.0323L99.0977 310.533H99.1509L100.213 306.545H101.31L99.7085 312H98.6254L97.5174 308.062H97.4358L96.3278 312H95.2483ZM104.449 312.11C103.938 312.11 103.492 311.993 103.11 311.759C102.729 311.524 102.433 311.196 102.223 310.775C102.012 310.353 101.907 309.861 101.907 309.298C101.907 308.732 102.012 308.237 102.223 307.813C102.433 307.389 102.729 307.06 103.11 306.826C103.492 306.592 103.938 306.474 104.449 306.474C104.961 306.474 105.407 306.592 105.788 306.826C106.169 307.06 106.465 307.389 106.676 307.813C106.887 308.237 106.992 308.732 106.992 309.298C106.992 309.861 106.887 310.353 106.676 310.775C106.465 311.196 106.169 311.524 105.788 311.759C105.407 311.993 104.961 312.11 104.449 312.11ZM104.453 311.219C104.784 311.219 105.059 311.131 105.277 310.956C105.494 310.781 105.655 310.548 105.76 310.256C105.866 309.965 105.919 309.644 105.919 309.294C105.919 308.946 105.866 308.626 105.76 308.335C105.655 308.042 105.494 307.806 105.277 307.629C105.059 307.451 104.784 307.362 104.453 307.362C104.119 307.362 103.842 307.451 103.622 307.629C103.404 307.806 103.242 308.042 103.135 308.335C103.031 308.626 102.979 308.946 102.979 309.294C102.979 309.644 103.031 309.965 103.135 310.256C103.242 310.548 103.404 310.781 103.622 310.956C103.842 311.131 104.119 311.219 104.453 311.219ZM108.177 312V306.545H109.203V307.412H109.26C109.36 307.118 109.535 306.888 109.786 306.719C110.039 306.549 110.325 306.464 110.645 306.464C110.711 306.464 110.79 306.466 110.879 306.471C110.972 306.476 111.044 306.482 111.096 306.489V307.504C111.053 307.492 110.978 307.479 110.869 307.465C110.76 307.449 110.651 307.44 110.542 307.44C110.291 307.44 110.067 307.494 109.871 307.6C109.677 307.704 109.523 307.85 109.409 308.037C109.296 308.222 109.239 308.432 109.239 308.669V312H108.177ZM113.862 312.107C113.421 312.107 113.028 311.994 112.683 311.769C112.339 311.542 112.069 311.219 111.873 310.8C111.679 310.378 111.582 309.873 111.582 309.283C111.582 308.694 111.68 308.19 111.876 307.771C112.075 307.352 112.348 307.031 112.693 306.808C113.039 306.586 113.431 306.474 113.869 306.474C114.207 306.474 114.479 306.531 114.685 306.645C114.894 306.756 115.055 306.886 115.168 307.036C115.284 307.185 115.374 307.316 115.438 307.43H115.502V304.727H116.564V312H115.527V311.151H115.438C115.374 311.267 115.282 311.4 115.161 311.549C115.043 311.698 114.88 311.828 114.671 311.94C114.463 312.051 114.193 312.107 113.862 312.107ZM114.096 311.201C114.401 311.201 114.659 311.121 114.87 310.96C115.083 310.796 115.244 310.57 115.353 310.281C115.464 309.992 115.52 309.656 115.52 309.273C115.52 308.894 115.465 308.562 115.357 308.278C115.248 307.994 115.088 307.773 114.877 307.614C114.666 307.456 114.406 307.376 114.096 307.376C113.776 307.376 113.51 307.459 113.297 307.625C113.084 307.791 112.923 308.017 112.814 308.303C112.707 308.59 112.654 308.913 112.654 309.273C112.654 309.637 112.709 309.965 112.817 310.256C112.926 310.548 113.087 310.778 113.3 310.949C113.516 311.117 113.781 311.201 114.096 311.201Z" fill="#333437" fill-opacity="0.7"/>
<rect x="59.0469" y="261" width="237.725" height="32" rx="8" fill="white"/>
<rect x="59.5469" y="261.5" width="236.725" height="31" rx="7.5" stroke="#333437" stroke-opacity="0.5"/>
<rect x="70" y="261" width="28" height="5" fill="white"/>
<path d="M71.7792 263V255.727H76.3389V256.672H72.8765V258.888H76.101V259.829H72.8765V262.055H76.3815V263H71.7792ZM77.7194 263V257.545H78.7386V258.433H78.8061C78.9197 258.133 79.1055 257.898 79.3636 257.73C79.6216 257.56 79.9306 257.474 80.2904 257.474C80.655 257.474 80.9604 257.56 81.2066 257.73C81.4552 257.901 81.6387 258.135 81.7571 258.433H81.8139C81.9441 258.142 82.1512 257.91 82.4353 257.737C82.7194 257.562 83.058 257.474 83.4509 257.474C83.9457 257.474 84.3494 257.629 84.6619 257.94C84.9767 258.25 85.1342 258.717 85.1342 259.342V263H84.0724V259.442C84.0724 259.072 83.9718 258.805 83.7705 258.639C83.5693 258.473 83.329 258.391 83.0497 258.391C82.704 258.391 82.4353 258.497 82.2436 258.71C82.0518 258.921 81.9559 259.192 81.9559 259.523V263H80.8977V259.374C80.8977 259.078 80.8053 258.84 80.6207 258.661C80.436 258.481 80.1957 258.391 79.8998 258.391C79.6986 258.391 79.5127 258.444 79.3423 258.55C79.1742 258.655 79.0381 258.8 78.9339 258.987C78.8321 259.174 78.7812 259.391 78.7812 259.637V263H77.7194ZM88.1447 263.121C87.799 263.121 87.4865 263.057 87.2072 262.929C86.9278 262.799 86.7064 262.611 86.5431 262.364C86.3821 262.118 86.3016 261.816 86.3016 261.459C86.3016 261.151 86.3608 260.898 86.4792 260.699C86.5975 260.5 86.7573 260.343 86.9586 260.227C87.1598 260.111 87.3847 260.023 87.6333 259.964C87.8819 259.905 88.1352 259.86 88.3932 259.829C88.7199 259.791 88.9851 259.76 89.1887 259.737C89.3923 259.71 89.5403 259.669 89.6326 259.612C89.7249 259.555 89.7711 259.463 89.7711 259.335V259.31C89.7711 259 89.6835 258.76 89.5083 258.589C89.3355 258.419 89.0774 258.334 88.7341 258.334C88.3767 258.334 88.0949 258.413 87.889 258.572C87.6854 258.728 87.5445 258.902 87.4664 259.094L86.4685 258.866C86.5869 258.535 86.7597 258.268 86.987 258.064C87.2166 257.858 87.4806 257.709 87.7789 257.616C88.0772 257.522 88.3909 257.474 88.7199 257.474C88.9377 257.474 89.1686 257.5 89.4124 257.553C89.6586 257.602 89.8883 257.695 90.1013 257.83C90.3168 257.964 90.4931 258.157 90.6305 258.408C90.7678 258.657 90.8364 258.98 90.8364 259.378V263H89.7995V262.254H89.7569C89.6882 262.392 89.5852 262.527 89.4479 262.659C89.3106 262.792 89.1342 262.902 88.9188 262.989C88.7034 263.077 88.4453 263.121 88.1447 263.121ZM88.3755 262.268C88.669 262.268 88.92 262.21 89.1283 262.094C89.339 261.978 89.4988 261.827 89.6077 261.64C89.719 261.451 89.7746 261.248 89.7746 261.033V260.33C89.7368 260.367 89.6634 260.403 89.5545 260.436C89.4479 260.467 89.326 260.494 89.1887 260.518C89.0514 260.539 88.9176 260.559 88.7874 260.578C88.6572 260.595 88.5483 260.609 88.4607 260.621C88.2547 260.647 88.0665 260.691 87.8961 260.752C87.728 260.814 87.593 260.902 87.4912 261.018C87.3918 261.132 87.3421 261.284 87.3421 261.473C87.3421 261.736 87.4392 261.935 87.6333 262.07C87.8274 262.202 88.0748 262.268 88.3755 262.268ZM92.2507 263V257.545H93.3124V263H92.2507ZM92.7869 256.704C92.6022 256.704 92.4436 256.642 92.311 256.519C92.1808 256.394 92.1157 256.245 92.1157 256.072C92.1157 255.897 92.1808 255.747 92.311 255.624C92.4436 255.499 92.6022 255.436 92.7869 255.436C92.9715 255.436 93.129 255.499 93.2592 255.624C93.3918 255.747 93.458 255.897 93.458 256.072C93.458 256.245 93.3918 256.394 93.2592 256.519C93.129 256.642 92.9715 256.704 92.7869 256.704ZM95.8027 255.727V263H94.7409V255.727H95.8027Z" fill="#333437" fill-opacity="0.7"/>
<path d="M41.1264 100.41C48.5825 97.1875 54.4177 91.7188 57.7675 84.8828C55.6063 82.832 52.7968 81.3672 49.7711 80.4883L48.1502 80C48.0422 80.1953 47.9341 80.4883 47.9341 80.6836C45.3407 87.3242 40.0458 92.6953 32.914 95.7227C27.9432 97.8711 24.2692 101.777 22.5403 106.465L22 107.93C22.2161 108.027 22.5403 108.125 22.7564 108.125C24.8095 108.809 26.8627 109.688 28.8077 110.762C31.5092 106.367 35.8315 102.656 41.1264 100.41Z" fill="#333437"/>
<path d="M72.4635 100.801C68.4653 106.27 62.9543 110.664 56.1466 113.594C50.6356 115.938 46.4213 120.332 44.4762 125.605L43.9359 127.266C45.989 128.926 48.4744 130.195 51.1759 130.977L52.7967 131.465C52.9048 131.27 53.0129 130.977 53.0129 130.781C55.6063 124.141 60.9012 118.77 68.0331 115.742C73.0038 113.594 76.7858 109.688 78.4067 105L78.947 103.535C76.6778 102.949 74.5166 101.973 72.4635 100.801Z" fill="#333437"/>
<path d="M39.6136 122.188C42.315 116.328 47.2857 111.543 53.6612 108.809C59.4964 106.27 64.359 102.363 67.7089 97.5781C65.2235 95.4297 63.1704 92.9883 61.6576 90.0586C57.6594 96.6992 51.392 102.07 43.7198 105.391C39.2894 107.246 35.7234 110.469 33.5623 114.375C35.9396 116.426 37.8846 118.965 39.3974 121.797C39.3974 121.797 39.5055 121.992 39.6136 122.188Z" fill="#333437"/>
<path d="M100.592 111.559C100.592 111.051 100.513 110.595 100.357 110.191C100.214 109.775 99.9405 109.397 99.5369 109.059C99.1332 108.707 98.5668 108.362 97.8376 108.023C97.1085 107.685 96.1645 107.333 95.0056 106.969C93.7166 106.552 92.4926 106.083 91.3337 105.562C90.1879 105.042 89.1723 104.436 88.2869 103.746C87.4145 103.043 86.7244 102.229 86.2166 101.305C85.7218 100.38 85.4744 99.306 85.4744 98.082C85.4744 96.8971 85.7348 95.8229 86.2556 94.8594C86.7764 93.8828 87.5056 93.0495 88.4431 92.3594C89.3806 91.6562 90.4874 91.1159 91.7634 90.7383C93.0525 90.3607 94.4653 90.1719 96.0017 90.1719C98.0981 90.1719 99.9275 90.5495 101.49 91.3047C103.052 92.0599 104.263 93.0951 105.123 94.4102C105.995 95.7253 106.431 97.2292 106.431 98.9219H100.611C100.611 98.0885 100.435 97.3594 100.084 96.7344C99.7452 96.0964 99.2244 95.5951 98.5212 95.2305C97.8311 94.8659 96.9587 94.6836 95.9041 94.6836C94.8884 94.6836 94.0421 94.8398 93.365 95.1523C92.6879 95.4518 92.1801 95.862 91.8416 96.3828C91.503 96.8906 91.3337 97.4635 91.3337 98.1016C91.3337 98.5833 91.4509 99.0195 91.6853 99.4102C91.9327 99.8008 92.2973 100.165 92.7791 100.504C93.2608 100.842 93.8533 101.161 94.5564 101.461C95.2595 101.76 96.0733 102.053 96.9978 102.34C98.5473 102.809 99.908 103.336 101.08 103.922C102.265 104.508 103.254 105.165 104.049 105.895C104.843 106.624 105.442 107.451 105.845 108.375C106.249 109.299 106.451 110.348 106.451 111.52C106.451 112.757 106.21 113.863 105.728 114.84C105.247 115.816 104.55 116.643 103.638 117.32C102.727 117.997 101.64 118.512 100.377 118.863C99.1137 119.215 97.7009 119.391 96.1384 119.391C94.7322 119.391 93.3455 119.208 91.9783 118.844C90.6111 118.466 89.3676 117.9 88.2478 117.145C87.141 116.389 86.2556 115.426 85.5916 114.254C84.9275 113.082 84.5955 111.695 84.5955 110.094H90.4744C90.4744 110.979 90.6111 111.728 90.8845 112.34C91.158 112.952 91.5421 113.447 92.0369 113.824C92.5447 114.202 93.1436 114.475 93.8337 114.645C94.5369 114.814 95.3051 114.898 96.1384 114.898C97.1541 114.898 97.9874 114.755 98.6384 114.469C99.3025 114.182 99.7908 113.785 100.103 113.277C100.429 112.77 100.592 112.197 100.592 111.559ZM115.709 102.242V119H110.064V97.8672H115.357L115.709 102.242ZM114.927 107.691H113.365C113.365 106.22 113.541 104.866 113.892 103.629C114.257 102.379 114.784 101.298 115.474 100.387C116.177 99.4622 117.043 98.7461 118.072 98.2383C119.101 97.7305 120.292 97.4766 121.646 97.4766C122.584 97.4766 123.443 97.6198 124.224 97.9062C125.006 98.1797 125.676 98.6159 126.236 99.2148C126.809 99.8008 127.252 100.569 127.564 101.52C127.877 102.457 128.033 103.583 128.033 104.898V119H122.408V105.523C122.408 104.56 122.278 103.818 122.017 103.297C121.757 102.776 121.386 102.411 120.904 102.203C120.435 101.995 119.869 101.891 119.205 101.891C118.476 101.891 117.838 102.04 117.291 102.34C116.757 102.639 116.314 103.056 115.963 103.59C115.611 104.111 115.351 104.723 115.181 105.426C115.012 106.129 114.927 106.884 114.927 107.691ZM127.506 107.047L125.494 107.301C125.494 105.921 125.663 104.638 126.002 103.453C126.353 102.268 126.868 101.227 127.545 100.328C128.235 99.4297 129.088 98.7331 130.103 98.2383C131.119 97.7305 132.291 97.4766 133.619 97.4766C134.635 97.4766 135.559 97.6263 136.392 97.9258C137.226 98.2122 137.935 98.6745 138.521 99.3125C139.12 99.9375 139.576 100.758 139.888 101.773C140.214 102.789 140.377 104.033 140.377 105.504V119H134.732V105.504C134.732 104.527 134.602 103.785 134.342 103.277C134.094 102.757 133.73 102.398 133.248 102.203C132.779 101.995 132.219 101.891 131.568 101.891C130.891 101.891 130.299 102.027 129.791 102.301C129.283 102.561 128.86 102.926 128.521 103.395C128.183 103.863 127.929 104.41 127.76 105.035C127.59 105.647 127.506 106.318 127.506 107.047ZM156.138 114.234V104.82C156.138 104.143 156.028 103.564 155.806 103.082C155.585 102.587 155.24 102.203 154.771 101.93C154.316 101.656 153.723 101.52 152.994 101.52C152.369 101.52 151.829 101.63 151.373 101.852C150.917 102.06 150.566 102.366 150.318 102.77C150.071 103.16 149.947 103.622 149.947 104.156H144.322C144.322 103.258 144.53 102.405 144.947 101.598C145.364 100.79 145.969 100.081 146.763 99.4688C147.558 98.8438 148.502 98.3555 149.595 98.0039C150.702 97.6523 151.939 97.4766 153.306 97.4766C154.947 97.4766 156.405 97.75 157.681 98.2969C158.957 98.8438 159.96 99.6641 160.689 100.758C161.431 101.852 161.802 103.219 161.802 104.859V113.902C161.802 115.061 161.874 116.012 162.017 116.754C162.161 117.483 162.369 118.121 162.642 118.668V119H156.959C156.685 118.427 156.477 117.711 156.334 116.852C156.204 115.979 156.138 115.107 156.138 114.234ZM156.881 106.129L156.92 109.312H153.775C153.033 109.312 152.388 109.397 151.842 109.566C151.295 109.736 150.845 109.977 150.494 110.289C150.142 110.589 149.882 110.94 149.713 111.344C149.556 111.747 149.478 112.19 149.478 112.672C149.478 113.154 149.589 113.59 149.81 113.98C150.032 114.358 150.351 114.658 150.767 114.879C151.184 115.087 151.672 115.191 152.232 115.191C153.079 115.191 153.814 115.022 154.439 114.684C155.064 114.345 155.546 113.928 155.885 113.434C156.236 112.939 156.418 112.47 156.431 112.027L157.916 114.41C157.707 114.944 157.421 115.497 157.056 116.07C156.705 116.643 156.256 117.184 155.709 117.691C155.162 118.186 154.504 118.596 153.736 118.922C152.968 119.234 152.056 119.391 151.002 119.391C149.661 119.391 148.443 119.124 147.349 118.59C146.269 118.043 145.409 117.294 144.771 116.344C144.146 115.38 143.834 114.286 143.834 113.062C143.834 111.956 144.042 110.973 144.459 110.113C144.875 109.254 145.487 108.531 146.295 107.945C147.115 107.346 148.137 106.897 149.361 106.598C150.585 106.285 152.004 106.129 153.619 106.129H156.881ZM171.763 102.477V119H166.138V97.8672H171.431L171.763 102.477ZM178.131 97.7305L178.033 102.945C177.76 102.906 177.427 102.874 177.037 102.848C176.659 102.809 176.314 102.789 176.002 102.789C175.207 102.789 174.517 102.893 173.931 103.102C173.358 103.297 172.877 103.59 172.486 103.98C172.108 104.371 171.822 104.846 171.627 105.406C171.444 105.966 171.34 106.604 171.314 107.32L170.181 106.969C170.181 105.602 170.318 104.345 170.592 103.199C170.865 102.04 171.262 101.031 171.783 100.172C172.317 99.3125 172.968 98.6484 173.736 98.1797C174.504 97.7109 175.383 97.4766 176.373 97.4766C176.685 97.4766 177.004 97.5026 177.33 97.5547C177.655 97.5938 177.922 97.6523 178.131 97.7305ZM192.115 97.8672V101.852H179.81V97.8672H192.115ZM182.857 92.6523H188.482V112.633C188.482 113.245 188.56 113.714 188.717 114.039C188.886 114.365 189.133 114.592 189.459 114.723C189.784 114.84 190.194 114.898 190.689 114.898C191.041 114.898 191.353 114.885 191.627 114.859C191.913 114.82 192.154 114.781 192.349 114.742L192.369 118.883C191.887 119.039 191.366 119.163 190.806 119.254C190.247 119.345 189.628 119.391 188.951 119.391C187.714 119.391 186.633 119.189 185.709 118.785C184.797 118.368 184.094 117.704 183.599 116.793C183.105 115.882 182.857 114.684 182.857 113.199V92.6523ZM206.802 106.52H199.498L199.459 102.496H205.592C206.672 102.496 207.558 102.359 208.248 102.086C208.938 101.799 209.452 101.389 209.791 100.855C210.142 100.309 210.318 99.6445 210.318 98.8633C210.318 97.9779 210.149 97.2617 209.81 96.7148C209.485 96.168 208.97 95.7708 208.267 95.5234C207.577 95.276 206.685 95.1523 205.592 95.1523H201.529V119H195.67V90.5625H205.592C207.245 90.5625 208.723 90.7188 210.025 91.0312C211.34 91.3438 212.454 91.819 213.365 92.457C214.276 93.0951 214.973 93.9023 215.455 94.8789C215.937 95.8424 216.177 96.9883 216.177 98.3164C216.177 99.4883 215.911 100.569 215.377 101.559C214.856 102.548 214.029 103.355 212.896 103.98C211.776 104.605 210.312 104.951 208.502 105.016L206.802 106.52ZM206.549 119H197.896L200.181 114.43H206.549C207.577 114.43 208.417 114.267 209.068 113.941C209.719 113.603 210.201 113.147 210.513 112.574C210.826 112.001 210.982 111.344 210.982 110.602C210.982 109.768 210.839 109.046 210.552 108.434C210.279 107.822 209.836 107.353 209.224 107.027C208.612 106.689 207.805 106.52 206.802 106.52H201.158L201.197 102.496H208.228L209.576 104.078C211.308 104.052 212.701 104.358 213.756 104.996C214.823 105.621 215.598 106.435 216.08 107.438C216.575 108.44 216.822 109.514 216.822 110.66C216.822 112.483 216.425 114.02 215.631 115.27C214.836 116.507 213.671 117.438 212.135 118.062C210.611 118.688 208.749 119 206.549 119ZM233.365 113.941V97.8672H238.99V119H233.697L233.365 113.941ZM233.99 109.605L235.65 109.566C235.65 110.973 235.487 112.281 235.162 113.492C234.836 114.69 234.348 115.732 233.697 116.617C233.046 117.49 232.226 118.173 231.236 118.668C230.247 119.15 229.081 119.391 227.74 119.391C226.711 119.391 225.761 119.247 224.888 118.961C224.029 118.661 223.287 118.199 222.662 117.574C222.05 116.936 221.568 116.122 221.217 115.133C220.878 114.13 220.709 112.926 220.709 111.52V97.8672H226.334V111.559C226.334 112.184 226.405 112.711 226.549 113.141C226.705 113.57 226.92 113.922 227.193 114.195C227.467 114.469 227.786 114.664 228.15 114.781C228.528 114.898 228.944 114.957 229.4 114.957C230.559 114.957 231.47 114.723 232.135 114.254C232.812 113.785 233.287 113.147 233.56 112.34C233.847 111.52 233.99 110.608 233.99 109.605ZM255.767 114.391V89H261.431V119H256.334L255.767 114.391ZM242.408 108.688V108.277C242.408 106.663 242.59 105.198 242.955 103.883C243.319 102.555 243.853 101.415 244.556 100.465C245.26 99.5143 246.125 98.7786 247.154 98.2578C248.183 97.737 249.355 97.4766 250.67 97.4766C251.907 97.4766 252.987 97.737 253.912 98.2578C254.849 98.7786 255.644 99.5208 256.295 100.484C256.959 101.435 257.493 102.561 257.896 103.863C258.3 105.152 258.593 106.565 258.775 108.102V109C258.593 110.471 258.3 111.839 257.896 113.102C257.493 114.365 256.959 115.471 256.295 116.422C255.644 117.359 254.849 118.089 253.912 118.609C252.974 119.13 251.881 119.391 250.631 119.391C249.316 119.391 248.144 119.124 247.115 118.59C246.099 118.056 245.24 117.307 244.537 116.344C243.847 115.38 243.319 114.247 242.955 112.945C242.59 111.643 242.408 110.224 242.408 108.688ZM248.033 108.277V108.688C248.033 109.56 248.098 110.374 248.228 111.129C248.372 111.884 248.599 112.555 248.912 113.141C249.237 113.714 249.654 114.163 250.162 114.488C250.683 114.801 251.314 114.957 252.056 114.957C253.02 114.957 253.814 114.742 254.439 114.312C255.064 113.87 255.539 113.264 255.865 112.496C256.204 111.728 256.399 110.842 256.451 109.84V107.281C256.412 106.461 256.295 105.725 256.099 105.074C255.917 104.41 255.644 103.844 255.279 103.375C254.927 102.906 254.485 102.542 253.951 102.281C253.43 102.021 252.812 101.891 252.095 101.891C251.366 101.891 250.741 102.06 250.22 102.398C249.7 102.724 249.276 103.173 248.951 103.746C248.638 104.319 248.404 104.996 248.248 105.777C248.105 106.546 248.033 107.379 248.033 108.277ZM279.205 97.8672H284.302V118.297C284.302 120.224 283.873 121.858 283.013 123.199C282.167 124.553 280.982 125.576 279.459 126.266C277.935 126.969 276.164 127.32 274.146 127.32C273.261 127.32 272.323 127.203 271.334 126.969C270.357 126.734 269.42 126.37 268.521 125.875C267.636 125.38 266.894 124.755 266.295 124L268.775 120.68C269.426 121.435 270.181 122.021 271.041 122.438C271.9 122.867 272.851 123.082 273.892 123.082C274.908 123.082 275.767 122.893 276.47 122.516C277.174 122.151 277.714 121.611 278.092 120.895C278.469 120.191 278.658 119.339 278.658 118.336V102.75L279.205 97.8672ZM264.986 108.688V108.277C264.986 106.663 265.181 105.198 265.572 103.883C265.976 102.555 266.542 101.415 267.271 100.465C268.013 99.5143 268.912 98.7786 269.967 98.2578C271.021 97.737 272.213 97.4766 273.541 97.4766C274.947 97.4766 276.125 97.737 277.076 98.2578C278.026 98.7786 278.808 99.5208 279.42 100.484C280.032 101.435 280.507 102.561 280.845 103.863C281.197 105.152 281.47 106.565 281.666 108.102V109C281.47 110.471 281.177 111.839 280.787 113.102C280.396 114.365 279.882 115.471 279.244 116.422C278.606 117.359 277.812 118.089 276.861 118.609C275.924 119.13 274.804 119.391 273.502 119.391C272.2 119.391 271.021 119.124 269.967 118.59C268.925 118.056 268.033 117.307 267.291 116.344C266.549 115.38 265.976 114.247 265.572 112.945C265.181 111.643 264.986 110.224 264.986 108.688ZM270.611 108.277V108.688C270.611 109.56 270.696 110.374 270.865 111.129C271.034 111.884 271.295 112.555 271.646 113.141C272.011 113.714 272.46 114.163 272.994 114.488C273.541 114.801 274.185 114.957 274.927 114.957C275.956 114.957 276.796 114.742 277.447 114.312C278.098 113.87 278.586 113.264 278.912 112.496C279.237 111.728 279.426 110.842 279.478 109.84V107.281C279.452 106.461 279.342 105.725 279.146 105.074C278.951 104.41 278.677 103.844 278.326 103.375C277.974 102.906 277.519 102.542 276.959 102.281C276.399 102.021 275.735 101.891 274.967 101.891C274.224 101.891 273.58 102.06 273.033 102.398C272.499 102.724 272.05 103.173 271.685 103.746C271.334 104.319 271.067 104.996 270.885 105.777C270.702 106.546 270.611 107.379 270.611 108.277ZM298.404 119.391C296.763 119.391 295.292 119.13 293.99 118.609C292.688 118.076 291.581 117.34 290.67 116.402C289.771 115.465 289.081 114.378 288.599 113.141C288.118 111.891 287.877 110.562 287.877 109.156V108.375C287.877 106.773 288.105 105.309 288.56 103.98C289.016 102.652 289.667 101.5 290.513 100.523C291.373 99.5469 292.414 98.7982 293.638 98.2773C294.862 97.7435 296.243 97.4766 297.779 97.4766C299.276 97.4766 300.605 97.724 301.763 98.2188C302.922 98.7135 303.892 99.4167 304.674 100.328C305.468 101.24 306.067 102.333 306.47 103.609C306.874 104.872 307.076 106.279 307.076 107.828V110.172H290.279V106.422H301.549V105.992C301.549 105.211 301.405 104.514 301.119 103.902C300.845 103.277 300.429 102.783 299.869 102.418C299.309 102.053 298.593 101.871 297.72 101.871C296.978 101.871 296.34 102.034 295.806 102.359C295.273 102.685 294.836 103.141 294.498 103.727C294.172 104.312 293.925 105.003 293.756 105.797C293.599 106.578 293.521 107.438 293.521 108.375V109.156C293.521 110.003 293.638 110.784 293.873 111.5C294.12 112.216 294.465 112.835 294.908 113.355C295.364 113.876 295.911 114.28 296.549 114.566C297.2 114.853 297.935 114.996 298.756 114.996C299.771 114.996 300.715 114.801 301.588 114.41C302.473 114.007 303.235 113.401 303.873 112.594L306.607 115.562C306.164 116.201 305.559 116.812 304.791 117.398C304.036 117.984 303.124 118.466 302.056 118.844C300.989 119.208 299.771 119.391 298.404 119.391ZM320.631 97.8672V101.852H308.326V97.8672H320.631ZM311.373 92.6523H316.998V112.633C316.998 113.245 317.076 113.714 317.232 114.039C317.401 114.365 317.649 114.592 317.974 114.723C318.3 114.84 318.71 114.898 319.205 114.898C319.556 114.898 319.869 114.885 320.142 114.859C320.429 114.82 320.67 114.781 320.865 114.742L320.885 118.883C320.403 119.039 319.882 119.163 319.322 119.254C318.762 119.345 318.144 119.391 317.467 119.391C316.23 119.391 315.149 119.189 314.224 118.785C313.313 118.368 312.61 117.704 312.115 116.793C311.62 115.882 311.373 114.684 311.373 113.199V92.6523Z" fill="#333437"/>
</svg>
