<svg width="94" height="100" viewBox="0 0 94 100" fill="none" xmlns="http://www.w3.org/2000/svg">
<path d="M93.2523 75.0846C88.8464 82.6815 82.5174 88.9839 74.902 93.3577C67.2867 97.7315 58.6537 100.022 49.8717 99.9998C41.0897 99.9773 32.4685 97.6421 24.8757 93.2293C17.2829 88.8164 10.9863 82.4816 6.6195 74.8623C2.25268 67.2429 -0.0302906 58.6078 0.000303407 49.8258C0.0308974 41.0438 2.37398 32.4249 6.79378 24.8361C11.2136 17.2473 17.5542 10.9565 25.1775 6.59672C32.8009 2.23689 41.4381 -0.0381631 50.22 0.000484162L50.132 20.0003C44.8629 19.9771 39.6805 21.3421 35.1065 23.958C30.5325 26.5739 26.7281 30.3484 24.0763 34.9017C21.4244 39.4549 20.0185 44.6263 20.0002 49.8955C19.9818 55.1647 21.3516 60.3457 23.9717 64.9174C26.5918 69.489 30.3698 73.2899 34.9254 75.9376C39.4811 78.5853 44.6538 79.9864 49.923 79.9999C55.1922 80.0134 60.372 78.6389 64.9412 76.0146C69.5104 73.3903 73.3079 69.6089 75.9514 65.0508L93.2523 75.0846Z" fill="#DCDCDC" fill-opacity="0.8"/>
</svg>
