<svg width="50" height="75" viewBox="0 0 50 75" fill="none" xmlns="http://www.w3.org/2000/svg">
<path d="M5.96244e-07 0C8.77595 1.04652e-07 17.3973 2.30985 24.9977 6.69742C32.5982 11.085 38.9099 17.3957 43.2987 24.9955C47.6874 32.5952 49.9986 41.2162 50 49.9922C50.0014 58.7681 47.6929 67.3898 43.3065 74.9909L25.9839 64.9946C28.6157 60.4339 30.0008 55.2609 30 49.9953C29.9992 44.7297 28.6125 39.5571 25.9792 34.9973C23.3459 30.4374 19.5589 26.651 14.9986 24.0185C10.4384 21.3859 5.26557 20 3.57746e-07 20L5.96244e-07 0Z" fill="#38A0FF"/>
</svg>
