<svg width="21" height="22" viewBox="0 0 21 22" fill="none" xmlns="http://www.w3.org/2000/svg">
<path fill-rule="evenodd" clip-rule="evenodd" d="M9.88606 0.210648C10.2472 -0.0702159 10.7528 -0.0702159 11.1139 0.210648L20.1139 7.21065C20.3575 7.4001 20.5 7.69141 20.5 8V19C20.5 19.7957 20.1839 20.5587 19.6213 21.1213C19.0587 21.6839 18.2957 22 17.5 22H13.5V13C13.5 11.8954 12.6046 11 11.5 11H9.5C8.39543 11 7.5 11.8954 7.5 13V22H3.5C2.70435 22 1.94129 21.6839 1.37868 21.1213C0.81607 20.5587 0.5 19.7957 0.5 19V8C0.5 7.69141 0.642473 7.4001 0.886059 7.21065L9.88606 0.210648Z" fill="white"/>
</svg>
